G75*
%MOIN*%
%OFA0B0*%
%FSLAX25Y25*%
%IPPOS*%
%LPD*%
%AMOC8*
5,1,8,0,0,1.08239X$1,22.5*
%
%ADD10C,0.00500*%
%ADD11C,0.00600*%
%ADD12C,0.00300*%
%ADD13C,0.03000*%
D10*
X0188497Y0160732D02*
X0194154Y0155075D01*
X0203346Y0164268D01*
X0197690Y0169925D01*
X0188497Y0160732D01*
X0194861Y0164268D02*
X0194819Y0164223D01*
X0194779Y0164176D01*
X0194743Y0164126D01*
X0194710Y0164074D01*
X0194680Y0164020D01*
X0194653Y0163965D01*
X0194630Y0163908D01*
X0194611Y0163849D01*
X0194595Y0163790D01*
X0194582Y0163730D01*
X0194574Y0163669D01*
X0194569Y0163607D01*
X0194568Y0163546D01*
X0194571Y0163484D01*
X0194578Y0163423D01*
X0194588Y0163362D01*
X0194602Y0163302D01*
X0194620Y0163243D01*
X0194641Y0163185D01*
X0194666Y0163129D01*
X0194694Y0163074D01*
X0194726Y0163022D01*
X0194761Y0162971D01*
X0194799Y0162922D01*
X0194839Y0162876D01*
X0194883Y0162832D01*
X0194929Y0162792D01*
X0194978Y0162754D01*
X0195029Y0162719D01*
X0195081Y0162687D01*
X0195136Y0162659D01*
X0195192Y0162634D01*
X0195250Y0162613D01*
X0195309Y0162595D01*
X0195369Y0162581D01*
X0195430Y0162571D01*
X0195491Y0162564D01*
X0195553Y0162561D01*
X0195614Y0162562D01*
X0195676Y0162567D01*
X0195737Y0162575D01*
X0195797Y0162588D01*
X0195856Y0162604D01*
X0195915Y0162623D01*
X0195972Y0162646D01*
X0196027Y0162673D01*
X0196081Y0162703D01*
X0196133Y0162736D01*
X0196183Y0162772D01*
X0196230Y0162812D01*
X0196275Y0162854D01*
X0196275Y0162853D02*
X0196233Y0162808D01*
X0196193Y0162761D01*
X0196157Y0162711D01*
X0196124Y0162659D01*
X0196094Y0162605D01*
X0196067Y0162550D01*
X0196044Y0162493D01*
X0196025Y0162434D01*
X0196009Y0162375D01*
X0195996Y0162315D01*
X0195988Y0162254D01*
X0195983Y0162192D01*
X0195982Y0162131D01*
X0195985Y0162069D01*
X0195992Y0162008D01*
X0196002Y0161947D01*
X0196016Y0161887D01*
X0196034Y0161828D01*
X0196055Y0161770D01*
X0196080Y0161714D01*
X0196108Y0161659D01*
X0196140Y0161607D01*
X0196175Y0161556D01*
X0196213Y0161507D01*
X0196253Y0161461D01*
X0196297Y0161417D01*
X0196343Y0161377D01*
X0196392Y0161339D01*
X0196443Y0161304D01*
X0196495Y0161272D01*
X0196550Y0161244D01*
X0196606Y0161219D01*
X0196664Y0161198D01*
X0196723Y0161180D01*
X0196783Y0161166D01*
X0196844Y0161156D01*
X0196905Y0161149D01*
X0196967Y0161146D01*
X0197028Y0161147D01*
X0197090Y0161152D01*
X0197151Y0161160D01*
X0197211Y0161173D01*
X0197270Y0161189D01*
X0197329Y0161208D01*
X0197386Y0161231D01*
X0197441Y0161258D01*
X0197495Y0161288D01*
X0197547Y0161321D01*
X0197597Y0161357D01*
X0197644Y0161397D01*
X0197689Y0161439D01*
X0150717Y0170537D02*
X0150717Y0186661D01*
X0125126Y0186661D01*
X0125126Y0169339D01*
X0149519Y0169339D01*
X0150717Y0170537D01*
X0171535Y0191773D02*
X0172649Y0192886D01*
X0171535Y0191773D01*
X0168195Y0195114D02*
X0169308Y0196227D01*
D11*
X0173322Y0136487D02*
X0173322Y0118513D01*
X0153522Y0118513D02*
X0153522Y0136487D01*
X0155222Y0132300D02*
X0155224Y0132384D01*
X0155230Y0132469D01*
X0155240Y0132552D01*
X0155254Y0132636D01*
X0155271Y0132718D01*
X0155293Y0132800D01*
X0155318Y0132880D01*
X0155347Y0132959D01*
X0155380Y0133037D01*
X0155416Y0133113D01*
X0155456Y0133188D01*
X0155500Y0133260D01*
X0155546Y0133331D01*
X0155596Y0133399D01*
X0155649Y0133464D01*
X0155705Y0133527D01*
X0155764Y0133588D01*
X0155826Y0133645D01*
X0155890Y0133700D01*
X0155957Y0133751D01*
X0156026Y0133800D01*
X0156098Y0133845D01*
X0156171Y0133886D01*
X0156246Y0133924D01*
X0156323Y0133959D01*
X0156402Y0133990D01*
X0156482Y0134017D01*
X0156563Y0134040D01*
X0156645Y0134060D01*
X0156728Y0134076D01*
X0156811Y0134088D01*
X0156896Y0134096D01*
X0156980Y0134100D01*
X0157064Y0134100D01*
X0157148Y0134096D01*
X0157233Y0134088D01*
X0157316Y0134076D01*
X0157399Y0134060D01*
X0157481Y0134040D01*
X0157562Y0134017D01*
X0157642Y0133990D01*
X0157721Y0133959D01*
X0157798Y0133924D01*
X0157873Y0133886D01*
X0157946Y0133845D01*
X0158018Y0133800D01*
X0158087Y0133751D01*
X0158154Y0133700D01*
X0158218Y0133645D01*
X0158280Y0133588D01*
X0158339Y0133527D01*
X0158395Y0133464D01*
X0158448Y0133399D01*
X0158498Y0133331D01*
X0158544Y0133260D01*
X0158588Y0133188D01*
X0158628Y0133113D01*
X0158664Y0133037D01*
X0158697Y0132959D01*
X0158726Y0132880D01*
X0158751Y0132800D01*
X0158773Y0132718D01*
X0158790Y0132636D01*
X0158804Y0132552D01*
X0158814Y0132469D01*
X0158820Y0132384D01*
X0158822Y0132300D01*
X0158820Y0132216D01*
X0158814Y0132131D01*
X0158804Y0132048D01*
X0158790Y0131964D01*
X0158773Y0131882D01*
X0158751Y0131800D01*
X0158726Y0131720D01*
X0158697Y0131641D01*
X0158664Y0131563D01*
X0158628Y0131487D01*
X0158588Y0131412D01*
X0158544Y0131340D01*
X0158498Y0131269D01*
X0158448Y0131201D01*
X0158395Y0131136D01*
X0158339Y0131073D01*
X0158280Y0131012D01*
X0158218Y0130955D01*
X0158154Y0130900D01*
X0158087Y0130849D01*
X0158018Y0130800D01*
X0157946Y0130755D01*
X0157873Y0130714D01*
X0157798Y0130676D01*
X0157721Y0130641D01*
X0157642Y0130610D01*
X0157562Y0130583D01*
X0157481Y0130560D01*
X0157399Y0130540D01*
X0157316Y0130524D01*
X0157233Y0130512D01*
X0157148Y0130504D01*
X0157064Y0130500D01*
X0156980Y0130500D01*
X0156896Y0130504D01*
X0156811Y0130512D01*
X0156728Y0130524D01*
X0156645Y0130540D01*
X0156563Y0130560D01*
X0156482Y0130583D01*
X0156402Y0130610D01*
X0156323Y0130641D01*
X0156246Y0130676D01*
X0156171Y0130714D01*
X0156098Y0130755D01*
X0156026Y0130800D01*
X0155957Y0130849D01*
X0155890Y0130900D01*
X0155826Y0130955D01*
X0155764Y0131012D01*
X0155705Y0131073D01*
X0155649Y0131136D01*
X0155596Y0131201D01*
X0155546Y0131269D01*
X0155500Y0131340D01*
X0155456Y0131412D01*
X0155416Y0131487D01*
X0155380Y0131563D01*
X0155347Y0131641D01*
X0155318Y0131720D01*
X0155293Y0131800D01*
X0155271Y0131882D01*
X0155254Y0131964D01*
X0155240Y0132048D01*
X0155230Y0132131D01*
X0155224Y0132216D01*
X0155222Y0132300D01*
D12*
X0156119Y0112553D02*
X0156119Y0110447D01*
X0156121Y0110403D01*
X0156127Y0110360D01*
X0156136Y0110318D01*
X0156149Y0110276D01*
X0156166Y0110236D01*
X0156186Y0110197D01*
X0156209Y0110160D01*
X0156236Y0110126D01*
X0156265Y0110093D01*
X0156298Y0110064D01*
X0156332Y0110037D01*
X0156369Y0110014D01*
X0156408Y0109994D01*
X0156448Y0109977D01*
X0156490Y0109964D01*
X0156532Y0109955D01*
X0156575Y0109949D01*
X0156619Y0109947D01*
X0162225Y0109947D01*
X0162269Y0109949D01*
X0162312Y0109955D01*
X0162354Y0109964D01*
X0162396Y0109977D01*
X0162436Y0109994D01*
X0162475Y0110014D01*
X0162512Y0110037D01*
X0162546Y0110064D01*
X0162579Y0110093D01*
X0162608Y0110126D01*
X0162635Y0110160D01*
X0162658Y0110197D01*
X0162678Y0110236D01*
X0162695Y0110276D01*
X0162708Y0110318D01*
X0162717Y0110360D01*
X0162723Y0110403D01*
X0162725Y0110447D01*
X0162725Y0112553D01*
X0162723Y0112597D01*
X0162717Y0112640D01*
X0162708Y0112682D01*
X0162695Y0112724D01*
X0162678Y0112764D01*
X0162658Y0112803D01*
X0162635Y0112840D01*
X0162608Y0112874D01*
X0162579Y0112907D01*
X0162546Y0112936D01*
X0162512Y0112963D01*
X0162475Y0112986D01*
X0162436Y0113006D01*
X0162396Y0113023D01*
X0162354Y0113036D01*
X0162312Y0113045D01*
X0162269Y0113051D01*
X0162225Y0113053D01*
X0156619Y0113053D01*
X0156575Y0113051D01*
X0156532Y0113045D01*
X0156490Y0113036D01*
X0156448Y0113023D01*
X0156408Y0113006D01*
X0156369Y0112986D01*
X0156332Y0112963D01*
X0156298Y0112936D01*
X0156265Y0112907D01*
X0156236Y0112874D01*
X0156209Y0112840D01*
X0156186Y0112803D01*
X0156166Y0112764D01*
X0156149Y0112724D01*
X0156136Y0112682D01*
X0156127Y0112640D01*
X0156121Y0112597D01*
X0156119Y0112553D01*
X0181341Y0117909D02*
X0182831Y0116420D01*
X0182830Y0116419D02*
X0182863Y0116390D01*
X0182897Y0116363D01*
X0182934Y0116340D01*
X0182973Y0116320D01*
X0183013Y0116303D01*
X0183055Y0116290D01*
X0183097Y0116281D01*
X0183140Y0116275D01*
X0183184Y0116273D01*
X0183228Y0116275D01*
X0183271Y0116281D01*
X0183313Y0116290D01*
X0183355Y0116303D01*
X0183395Y0116320D01*
X0183434Y0116340D01*
X0183471Y0116363D01*
X0183505Y0116390D01*
X0183538Y0116419D01*
X0183538Y0116420D02*
X0187502Y0120384D01*
X0187503Y0120383D02*
X0187532Y0120416D01*
X0187559Y0120450D01*
X0187582Y0120487D01*
X0187602Y0120526D01*
X0187619Y0120566D01*
X0187632Y0120608D01*
X0187641Y0120650D01*
X0187647Y0120693D01*
X0187649Y0120737D01*
X0187647Y0120781D01*
X0187641Y0120824D01*
X0187632Y0120866D01*
X0187619Y0120908D01*
X0187602Y0120948D01*
X0187582Y0120987D01*
X0187559Y0121024D01*
X0187532Y0121058D01*
X0187503Y0121091D01*
X0187502Y0121091D02*
X0186013Y0122580D01*
X0186013Y0122581D02*
X0185980Y0122610D01*
X0185946Y0122637D01*
X0185909Y0122660D01*
X0185870Y0122680D01*
X0185830Y0122697D01*
X0185788Y0122710D01*
X0185746Y0122719D01*
X0185703Y0122725D01*
X0185659Y0122727D01*
X0185615Y0122725D01*
X0185572Y0122719D01*
X0185530Y0122710D01*
X0185488Y0122697D01*
X0185448Y0122680D01*
X0185409Y0122660D01*
X0185372Y0122637D01*
X0185338Y0122610D01*
X0185305Y0122581D01*
X0185306Y0122580D02*
X0181341Y0118616D01*
X0181341Y0118617D02*
X0181312Y0118584D01*
X0181285Y0118550D01*
X0181262Y0118513D01*
X0181242Y0118474D01*
X0181225Y0118434D01*
X0181212Y0118392D01*
X0181203Y0118350D01*
X0181197Y0118307D01*
X0181195Y0118263D01*
X0181197Y0118219D01*
X0181203Y0118176D01*
X0181212Y0118134D01*
X0181225Y0118092D01*
X0181242Y0118052D01*
X0181262Y0118013D01*
X0181285Y0117976D01*
X0181312Y0117942D01*
X0181341Y0117909D01*
X0212841Y0148909D02*
X0214331Y0147420D01*
X0214330Y0147419D02*
X0214363Y0147390D01*
X0214397Y0147363D01*
X0214434Y0147340D01*
X0214473Y0147320D01*
X0214513Y0147303D01*
X0214555Y0147290D01*
X0214597Y0147281D01*
X0214640Y0147275D01*
X0214684Y0147273D01*
X0214728Y0147275D01*
X0214771Y0147281D01*
X0214813Y0147290D01*
X0214855Y0147303D01*
X0214895Y0147320D01*
X0214934Y0147340D01*
X0214971Y0147363D01*
X0215005Y0147390D01*
X0215038Y0147419D01*
X0215038Y0147420D02*
X0219002Y0151384D01*
X0219003Y0151383D02*
X0219032Y0151416D01*
X0219059Y0151450D01*
X0219082Y0151487D01*
X0219102Y0151526D01*
X0219119Y0151566D01*
X0219132Y0151608D01*
X0219141Y0151650D01*
X0219147Y0151693D01*
X0219149Y0151737D01*
X0219147Y0151781D01*
X0219141Y0151824D01*
X0219132Y0151866D01*
X0219119Y0151908D01*
X0219102Y0151948D01*
X0219082Y0151987D01*
X0219059Y0152024D01*
X0219032Y0152058D01*
X0219003Y0152091D01*
X0219002Y0152091D02*
X0217513Y0153580D01*
X0217513Y0153581D02*
X0217480Y0153610D01*
X0217446Y0153637D01*
X0217409Y0153660D01*
X0217370Y0153680D01*
X0217330Y0153697D01*
X0217288Y0153710D01*
X0217246Y0153719D01*
X0217203Y0153725D01*
X0217159Y0153727D01*
X0217115Y0153725D01*
X0217072Y0153719D01*
X0217030Y0153710D01*
X0216988Y0153697D01*
X0216948Y0153680D01*
X0216909Y0153660D01*
X0216872Y0153637D01*
X0216838Y0153610D01*
X0216805Y0153581D01*
X0216806Y0153580D02*
X0212841Y0149616D01*
X0212841Y0149617D02*
X0212812Y0149584D01*
X0212785Y0149550D01*
X0212762Y0149513D01*
X0212742Y0149474D01*
X0212725Y0149434D01*
X0212712Y0149392D01*
X0212703Y0149350D01*
X0212697Y0149307D01*
X0212695Y0149263D01*
X0212697Y0149219D01*
X0212703Y0149176D01*
X0212712Y0149134D01*
X0212725Y0149092D01*
X0212742Y0149052D01*
X0212762Y0149013D01*
X0212785Y0148976D01*
X0212812Y0148942D01*
X0212841Y0148909D01*
X0206002Y0156409D02*
X0204513Y0154920D01*
X0204513Y0154919D02*
X0204480Y0154890D01*
X0204446Y0154863D01*
X0204409Y0154840D01*
X0204370Y0154820D01*
X0204330Y0154803D01*
X0204288Y0154790D01*
X0204246Y0154781D01*
X0204203Y0154775D01*
X0204159Y0154773D01*
X0204115Y0154775D01*
X0204072Y0154781D01*
X0204030Y0154790D01*
X0203988Y0154803D01*
X0203948Y0154820D01*
X0203909Y0154840D01*
X0203872Y0154863D01*
X0203838Y0154890D01*
X0203805Y0154919D01*
X0203806Y0154920D02*
X0199841Y0158884D01*
X0199538Y0158580D02*
X0203502Y0154616D01*
X0203503Y0154617D02*
X0203532Y0154584D01*
X0203559Y0154550D01*
X0203582Y0154513D01*
X0203602Y0154474D01*
X0203619Y0154434D01*
X0203632Y0154392D01*
X0203641Y0154350D01*
X0203647Y0154307D01*
X0203649Y0154263D01*
X0203647Y0154219D01*
X0203641Y0154176D01*
X0203632Y0154134D01*
X0203619Y0154092D01*
X0203602Y0154052D01*
X0203582Y0154013D01*
X0203559Y0153976D01*
X0203532Y0153942D01*
X0203503Y0153909D01*
X0203502Y0153909D02*
X0202013Y0152420D01*
X0202013Y0152419D02*
X0201980Y0152390D01*
X0201946Y0152363D01*
X0201909Y0152340D01*
X0201870Y0152320D01*
X0201830Y0152303D01*
X0201788Y0152290D01*
X0201746Y0152281D01*
X0201703Y0152275D01*
X0201659Y0152273D01*
X0201615Y0152275D01*
X0201572Y0152281D01*
X0201530Y0152290D01*
X0201488Y0152303D01*
X0201448Y0152320D01*
X0201409Y0152340D01*
X0201372Y0152363D01*
X0201338Y0152390D01*
X0201305Y0152419D01*
X0201306Y0152420D02*
X0197341Y0156384D01*
X0197341Y0156383D02*
X0197312Y0156416D01*
X0197285Y0156450D01*
X0197262Y0156487D01*
X0197242Y0156526D01*
X0197225Y0156566D01*
X0197212Y0156608D01*
X0197203Y0156650D01*
X0197197Y0156693D01*
X0197195Y0156737D01*
X0197197Y0156781D01*
X0197203Y0156824D01*
X0197212Y0156866D01*
X0197225Y0156908D01*
X0197242Y0156948D01*
X0197262Y0156987D01*
X0197285Y0157024D01*
X0197312Y0157058D01*
X0197341Y0157091D01*
X0198831Y0158580D01*
X0198830Y0158581D02*
X0198863Y0158610D01*
X0198897Y0158637D01*
X0198934Y0158660D01*
X0198973Y0158680D01*
X0199013Y0158697D01*
X0199055Y0158710D01*
X0199097Y0158719D01*
X0199140Y0158725D01*
X0199184Y0158727D01*
X0199228Y0158725D01*
X0199271Y0158719D01*
X0199313Y0158710D01*
X0199355Y0158697D01*
X0199395Y0158680D01*
X0199434Y0158660D01*
X0199471Y0158637D01*
X0199505Y0158610D01*
X0199538Y0158581D01*
X0199841Y0158883D02*
X0199812Y0158916D01*
X0199785Y0158950D01*
X0199762Y0158987D01*
X0199742Y0159026D01*
X0199725Y0159066D01*
X0199712Y0159108D01*
X0199703Y0159150D01*
X0199697Y0159193D01*
X0199695Y0159237D01*
X0199697Y0159281D01*
X0199703Y0159324D01*
X0199712Y0159366D01*
X0199725Y0159408D01*
X0199742Y0159448D01*
X0199762Y0159487D01*
X0199785Y0159524D01*
X0199812Y0159558D01*
X0199841Y0159591D01*
X0201331Y0161080D01*
X0201330Y0161081D02*
X0201363Y0161110D01*
X0201397Y0161137D01*
X0201434Y0161160D01*
X0201473Y0161180D01*
X0201513Y0161197D01*
X0201555Y0161210D01*
X0201597Y0161219D01*
X0201640Y0161225D01*
X0201684Y0161227D01*
X0201728Y0161225D01*
X0201771Y0161219D01*
X0201813Y0161210D01*
X0201855Y0161197D01*
X0201895Y0161180D01*
X0201934Y0161160D01*
X0201971Y0161137D01*
X0202005Y0161110D01*
X0202038Y0161081D01*
X0202038Y0161080D02*
X0206002Y0157116D01*
X0206306Y0157420D02*
X0202341Y0161384D01*
X0202341Y0161383D02*
X0202312Y0161416D01*
X0202285Y0161450D01*
X0202262Y0161487D01*
X0202242Y0161526D01*
X0202225Y0161566D01*
X0202212Y0161608D01*
X0202203Y0161650D01*
X0202197Y0161693D01*
X0202195Y0161737D01*
X0202197Y0161781D01*
X0202203Y0161824D01*
X0202212Y0161866D01*
X0202225Y0161908D01*
X0202242Y0161948D01*
X0202262Y0161987D01*
X0202285Y0162024D01*
X0202312Y0162058D01*
X0202341Y0162091D01*
X0203831Y0163580D01*
X0203830Y0163581D02*
X0203863Y0163610D01*
X0203897Y0163637D01*
X0203934Y0163660D01*
X0203973Y0163680D01*
X0204013Y0163697D01*
X0204055Y0163710D01*
X0204097Y0163719D01*
X0204140Y0163725D01*
X0204184Y0163727D01*
X0204228Y0163725D01*
X0204271Y0163719D01*
X0204313Y0163710D01*
X0204355Y0163697D01*
X0204395Y0163680D01*
X0204434Y0163660D01*
X0204471Y0163637D01*
X0204505Y0163610D01*
X0204538Y0163581D01*
X0204538Y0163580D02*
X0208502Y0159616D01*
X0208503Y0159617D02*
X0208532Y0159584D01*
X0208559Y0159550D01*
X0208582Y0159513D01*
X0208602Y0159474D01*
X0208619Y0159434D01*
X0208632Y0159392D01*
X0208641Y0159350D01*
X0208647Y0159307D01*
X0208649Y0159263D01*
X0208647Y0159219D01*
X0208641Y0159176D01*
X0208632Y0159134D01*
X0208619Y0159092D01*
X0208602Y0159052D01*
X0208582Y0159013D01*
X0208559Y0158976D01*
X0208532Y0158942D01*
X0208503Y0158909D01*
X0208502Y0158909D02*
X0207013Y0157420D01*
X0207013Y0157419D02*
X0206980Y0157390D01*
X0206946Y0157363D01*
X0206909Y0157340D01*
X0206870Y0157320D01*
X0206830Y0157303D01*
X0206788Y0157290D01*
X0206746Y0157281D01*
X0206703Y0157275D01*
X0206659Y0157273D01*
X0206615Y0157275D01*
X0206572Y0157281D01*
X0206530Y0157290D01*
X0206488Y0157303D01*
X0206448Y0157320D01*
X0206409Y0157340D01*
X0206372Y0157363D01*
X0206338Y0157390D01*
X0206305Y0157419D01*
X0206003Y0157117D02*
X0206032Y0157084D01*
X0206059Y0157050D01*
X0206082Y0157013D01*
X0206102Y0156974D01*
X0206119Y0156934D01*
X0206132Y0156892D01*
X0206141Y0156850D01*
X0206147Y0156807D01*
X0206149Y0156763D01*
X0206147Y0156719D01*
X0206141Y0156676D01*
X0206132Y0156634D01*
X0206119Y0156592D01*
X0206102Y0156552D01*
X0206082Y0156513D01*
X0206059Y0156476D01*
X0206032Y0156442D01*
X0206003Y0156409D01*
X0159225Y0168947D02*
X0159225Y0171053D01*
X0159223Y0171097D01*
X0159217Y0171140D01*
X0159208Y0171182D01*
X0159195Y0171224D01*
X0159178Y0171264D01*
X0159158Y0171303D01*
X0159135Y0171340D01*
X0159108Y0171374D01*
X0159079Y0171407D01*
X0159046Y0171436D01*
X0159012Y0171463D01*
X0158975Y0171486D01*
X0158936Y0171506D01*
X0158896Y0171523D01*
X0158854Y0171536D01*
X0158812Y0171545D01*
X0158769Y0171551D01*
X0158725Y0171553D01*
X0153119Y0171553D01*
X0153075Y0171551D01*
X0153032Y0171545D01*
X0152990Y0171536D01*
X0152948Y0171523D01*
X0152908Y0171506D01*
X0152869Y0171486D01*
X0152832Y0171463D01*
X0152798Y0171436D01*
X0152765Y0171407D01*
X0152736Y0171374D01*
X0152709Y0171340D01*
X0152686Y0171303D01*
X0152666Y0171264D01*
X0152649Y0171224D01*
X0152636Y0171182D01*
X0152627Y0171140D01*
X0152621Y0171097D01*
X0152619Y0171053D01*
X0152619Y0168947D01*
X0152621Y0168903D01*
X0152627Y0168860D01*
X0152636Y0168818D01*
X0152649Y0168776D01*
X0152666Y0168736D01*
X0152686Y0168697D01*
X0152709Y0168660D01*
X0152736Y0168626D01*
X0152765Y0168593D01*
X0152798Y0168564D01*
X0152832Y0168537D01*
X0152869Y0168514D01*
X0152908Y0168494D01*
X0152948Y0168477D01*
X0152990Y0168464D01*
X0153032Y0168455D01*
X0153075Y0168449D01*
X0153119Y0168447D01*
X0158725Y0168447D01*
X0158769Y0168449D01*
X0158812Y0168455D01*
X0158854Y0168464D01*
X0158896Y0168477D01*
X0158936Y0168494D01*
X0158975Y0168514D01*
X0159012Y0168537D01*
X0159046Y0168564D01*
X0159079Y0168593D01*
X0159108Y0168626D01*
X0159135Y0168660D01*
X0159158Y0168697D01*
X0159178Y0168736D01*
X0159195Y0168776D01*
X0159208Y0168818D01*
X0159217Y0168860D01*
X0159223Y0168903D01*
X0159225Y0168947D01*
X0158225Y0182947D02*
X0152619Y0182947D01*
X0152575Y0182949D01*
X0152532Y0182955D01*
X0152490Y0182964D01*
X0152448Y0182977D01*
X0152408Y0182994D01*
X0152369Y0183014D01*
X0152332Y0183037D01*
X0152298Y0183064D01*
X0152265Y0183093D01*
X0152236Y0183126D01*
X0152209Y0183160D01*
X0152186Y0183197D01*
X0152166Y0183236D01*
X0152149Y0183276D01*
X0152136Y0183318D01*
X0152127Y0183360D01*
X0152121Y0183403D01*
X0152119Y0183447D01*
X0152119Y0185553D01*
X0152121Y0185597D01*
X0152127Y0185640D01*
X0152136Y0185682D01*
X0152149Y0185724D01*
X0152166Y0185764D01*
X0152186Y0185803D01*
X0152209Y0185840D01*
X0152236Y0185874D01*
X0152265Y0185907D01*
X0152298Y0185936D01*
X0152332Y0185963D01*
X0152369Y0185986D01*
X0152408Y0186006D01*
X0152448Y0186023D01*
X0152490Y0186036D01*
X0152532Y0186045D01*
X0152575Y0186051D01*
X0152619Y0186053D01*
X0158225Y0186053D01*
X0158269Y0186051D01*
X0158312Y0186045D01*
X0158354Y0186036D01*
X0158396Y0186023D01*
X0158436Y0186006D01*
X0158475Y0185986D01*
X0158512Y0185963D01*
X0158546Y0185936D01*
X0158579Y0185907D01*
X0158608Y0185874D01*
X0158635Y0185840D01*
X0158658Y0185803D01*
X0158678Y0185764D01*
X0158695Y0185724D01*
X0158708Y0185682D01*
X0158717Y0185640D01*
X0158723Y0185597D01*
X0158725Y0185553D01*
X0158725Y0183447D01*
X0158723Y0183403D01*
X0158717Y0183360D01*
X0158708Y0183318D01*
X0158695Y0183276D01*
X0158678Y0183236D01*
X0158658Y0183197D01*
X0158635Y0183160D01*
X0158608Y0183126D01*
X0158579Y0183093D01*
X0158546Y0183064D01*
X0158512Y0183037D01*
X0158475Y0183014D01*
X0158436Y0182994D01*
X0158396Y0182977D01*
X0158354Y0182964D01*
X0158312Y0182955D01*
X0158269Y0182949D01*
X0158225Y0182947D01*
X0161341Y0185409D02*
X0162831Y0183920D01*
X0162830Y0183919D02*
X0162863Y0183890D01*
X0162897Y0183863D01*
X0162934Y0183840D01*
X0162973Y0183820D01*
X0163013Y0183803D01*
X0163055Y0183790D01*
X0163097Y0183781D01*
X0163140Y0183775D01*
X0163184Y0183773D01*
X0163228Y0183775D01*
X0163271Y0183781D01*
X0163313Y0183790D01*
X0163355Y0183803D01*
X0163395Y0183820D01*
X0163434Y0183840D01*
X0163471Y0183863D01*
X0163505Y0183890D01*
X0163538Y0183919D01*
X0163538Y0183920D02*
X0167502Y0187884D01*
X0167503Y0187883D02*
X0167532Y0187916D01*
X0167559Y0187950D01*
X0167582Y0187987D01*
X0167602Y0188026D01*
X0167619Y0188066D01*
X0167632Y0188108D01*
X0167641Y0188150D01*
X0167647Y0188193D01*
X0167649Y0188237D01*
X0167647Y0188281D01*
X0167641Y0188324D01*
X0167632Y0188366D01*
X0167619Y0188408D01*
X0167602Y0188448D01*
X0167582Y0188487D01*
X0167559Y0188524D01*
X0167532Y0188558D01*
X0167503Y0188591D01*
X0167502Y0188591D02*
X0166013Y0190080D01*
X0166013Y0190081D02*
X0165980Y0190110D01*
X0165946Y0190137D01*
X0165909Y0190160D01*
X0165870Y0190180D01*
X0165830Y0190197D01*
X0165788Y0190210D01*
X0165746Y0190219D01*
X0165703Y0190225D01*
X0165659Y0190227D01*
X0165615Y0190225D01*
X0165572Y0190219D01*
X0165530Y0190210D01*
X0165488Y0190197D01*
X0165448Y0190180D01*
X0165409Y0190160D01*
X0165372Y0190137D01*
X0165338Y0190110D01*
X0165305Y0190081D01*
X0165306Y0190080D02*
X0161341Y0186116D01*
X0161341Y0186117D02*
X0161312Y0186084D01*
X0161285Y0186050D01*
X0161262Y0186013D01*
X0161242Y0185974D01*
X0161225Y0185934D01*
X0161212Y0185892D01*
X0161203Y0185850D01*
X0161197Y0185807D01*
X0161195Y0185763D01*
X0161197Y0185719D01*
X0161203Y0185676D01*
X0161212Y0185634D01*
X0161225Y0185592D01*
X0161242Y0185552D01*
X0161262Y0185513D01*
X0161285Y0185476D01*
X0161312Y0185442D01*
X0161341Y0185409D01*
X0175341Y0198384D02*
X0179306Y0194420D01*
X0179305Y0194419D02*
X0179338Y0194390D01*
X0179372Y0194363D01*
X0179409Y0194340D01*
X0179448Y0194320D01*
X0179488Y0194303D01*
X0179530Y0194290D01*
X0179572Y0194281D01*
X0179615Y0194275D01*
X0179659Y0194273D01*
X0179703Y0194275D01*
X0179746Y0194281D01*
X0179788Y0194290D01*
X0179830Y0194303D01*
X0179870Y0194320D01*
X0179909Y0194340D01*
X0179946Y0194363D01*
X0179980Y0194390D01*
X0180013Y0194419D01*
X0180013Y0194420D02*
X0181502Y0195909D01*
X0181503Y0195909D02*
X0181532Y0195942D01*
X0181559Y0195976D01*
X0181582Y0196013D01*
X0181602Y0196052D01*
X0181619Y0196092D01*
X0181632Y0196134D01*
X0181641Y0196176D01*
X0181647Y0196219D01*
X0181649Y0196263D01*
X0181647Y0196307D01*
X0181641Y0196350D01*
X0181632Y0196392D01*
X0181619Y0196434D01*
X0181602Y0196474D01*
X0181582Y0196513D01*
X0181559Y0196550D01*
X0181532Y0196584D01*
X0181503Y0196617D01*
X0181502Y0196616D02*
X0177538Y0200580D01*
X0177538Y0200581D02*
X0177505Y0200610D01*
X0177471Y0200637D01*
X0177434Y0200660D01*
X0177395Y0200680D01*
X0177355Y0200697D01*
X0177313Y0200710D01*
X0177271Y0200719D01*
X0177228Y0200725D01*
X0177184Y0200727D01*
X0177140Y0200725D01*
X0177097Y0200719D01*
X0177055Y0200710D01*
X0177013Y0200697D01*
X0176973Y0200680D01*
X0176934Y0200660D01*
X0176897Y0200637D01*
X0176863Y0200610D01*
X0176830Y0200581D01*
X0176831Y0200580D02*
X0175341Y0199091D01*
X0175312Y0199058D01*
X0175285Y0199024D01*
X0175262Y0198987D01*
X0175242Y0198948D01*
X0175225Y0198908D01*
X0175212Y0198866D01*
X0175203Y0198824D01*
X0175197Y0198781D01*
X0175195Y0198737D01*
X0175197Y0198693D01*
X0175203Y0198650D01*
X0175212Y0198608D01*
X0175225Y0198566D01*
X0175242Y0198526D01*
X0175262Y0198487D01*
X0175285Y0198450D01*
X0175312Y0198416D01*
X0175341Y0198383D01*
X0123475Y0172803D02*
X0120369Y0172803D01*
X0120369Y0166197D01*
X0123475Y0166197D01*
X0123475Y0172803D01*
D13*
X0152922Y0168000D03*
M02*
