G75*
%MOIN*%
%OFA0B0*%
%FSLAX25Y25*%
%IPPOS*%
%LPD*%
%AMOC8*
5,1,8,0,0,1.08239X$1,22.5*
%
%ADD10R,0.02369X0.02369*%
%ADD11C,0.12998*%
%ADD12R,0.07800X0.07800*%
%ADD13C,0.07800*%
%ADD14R,0.02369X0.02369*%
%ADD15C,0.03943*%
%ADD16R,0.01600X0.04300*%
%ADD17C,0.06306*%
%ADD18C,0.06400*%
%ADD19C,0.05124*%
%ADD20C,0.00975*%
D10*
G36*
X0180856Y0118108D02*
X0182530Y0119782D01*
X0184204Y0118108D01*
X0182530Y0116434D01*
X0180856Y0118108D01*
G37*
G36*
X0183640Y0120892D02*
X0185314Y0122566D01*
X0186988Y0120892D01*
X0185314Y0119218D01*
X0183640Y0120892D01*
G37*
G36*
X0212356Y0149108D02*
X0214030Y0150782D01*
X0215704Y0149108D01*
X0214030Y0147434D01*
X0212356Y0149108D01*
G37*
G36*
X0215140Y0151892D02*
X0216814Y0153566D01*
X0218488Y0151892D01*
X0216814Y0150218D01*
X0215140Y0151892D01*
G37*
G36*
X0206814Y0160782D02*
X0208488Y0159108D01*
X0206814Y0157434D01*
X0205140Y0159108D01*
X0206814Y0160782D01*
G37*
G36*
X0204030Y0163566D02*
X0205704Y0161892D01*
X0204030Y0160218D01*
X0202356Y0161892D01*
X0204030Y0163566D01*
G37*
G36*
X0201030Y0160566D02*
X0202704Y0158892D01*
X0201030Y0157218D01*
X0199356Y0158892D01*
X0201030Y0160566D01*
G37*
G36*
X0203814Y0157782D02*
X0205488Y0156108D01*
X0203814Y0154434D01*
X0202140Y0156108D01*
X0203814Y0157782D01*
G37*
G36*
X0198030Y0157566D02*
X0199704Y0155892D01*
X0198030Y0154218D01*
X0196356Y0155892D01*
X0198030Y0157566D01*
G37*
G36*
X0200814Y0154782D02*
X0202488Y0153108D01*
X0200814Y0151434D01*
X0199140Y0153108D01*
X0200814Y0154782D01*
G37*
G36*
X0171988Y0171892D02*
X0170314Y0170218D01*
X0168640Y0171892D01*
X0170314Y0173566D01*
X0171988Y0171892D01*
G37*
G36*
X0169204Y0169108D02*
X0167530Y0167434D01*
X0165856Y0169108D01*
X0167530Y0170782D01*
X0169204Y0169108D01*
G37*
D11*
X0102398Y0066476D03*
X0224445Y0066476D03*
X0224445Y0188524D03*
X0102398Y0188524D03*
D12*
X0174422Y0050000D03*
D13*
X0184422Y0050000D03*
X0194422Y0050000D03*
X0204422Y0050000D03*
X0138422Y0135500D03*
X0128422Y0135500D03*
X0118422Y0135500D03*
D14*
X0156953Y0110500D03*
X0160890Y0110500D03*
X0157390Y0164500D03*
X0153453Y0164500D03*
X0154453Y0187500D03*
X0158390Y0187500D03*
D15*
X0237556Y0137386D02*
X0237556Y0137386D01*
X0240312Y0137386D01*
X0240312Y0137386D01*
X0237556Y0137386D01*
X0237556Y0111402D02*
X0237556Y0111402D01*
X0240312Y0111402D01*
X0240312Y0111402D01*
X0237556Y0111402D01*
D16*
X0171099Y0116013D03*
X0168540Y0116013D03*
X0165981Y0116013D03*
X0163422Y0116013D03*
X0160863Y0116013D03*
X0158304Y0116013D03*
X0155745Y0116013D03*
X0155745Y0138987D03*
X0158304Y0138987D03*
X0160863Y0138987D03*
X0163422Y0138987D03*
X0165981Y0138987D03*
X0168540Y0138987D03*
X0171099Y0138987D03*
X0150099Y0164513D03*
X0147540Y0164513D03*
X0144981Y0164513D03*
X0142422Y0164513D03*
X0139863Y0164513D03*
X0137304Y0164513D03*
X0134745Y0164513D03*
X0134745Y0187487D03*
X0137304Y0187487D03*
X0139863Y0187487D03*
X0142422Y0187487D03*
X0144981Y0187487D03*
X0147540Y0187487D03*
X0150099Y0187487D03*
D17*
X0148422Y0205500D03*
X0158422Y0205500D03*
X0168422Y0205500D03*
X0138422Y0205500D03*
X0128422Y0205500D03*
X0118422Y0205500D03*
D18*
X0098922Y0156500D02*
X0098922Y0150500D01*
X0088922Y0150500D02*
X0088922Y0156500D01*
D19*
X0115351Y0103571D03*
X0122422Y0096500D03*
X0129493Y0089429D03*
D20*
X0195300Y0157811D02*
X0197368Y0159879D01*
X0195300Y0157811D02*
X0193232Y0159879D01*
X0195300Y0161947D01*
X0197368Y0159879D01*
X0196274Y0158785D02*
X0194326Y0158785D01*
X0193352Y0159759D02*
X0197248Y0159759D01*
X0196514Y0160733D02*
X0194086Y0160733D01*
X0195060Y0161707D02*
X0195540Y0161707D01*
X0199543Y0162053D02*
X0201611Y0164121D01*
X0199543Y0162053D02*
X0197475Y0164121D01*
X0199543Y0166189D01*
X0201611Y0164121D01*
X0200517Y0163027D02*
X0198569Y0163027D01*
X0197595Y0164001D02*
X0201491Y0164001D01*
X0200757Y0164975D02*
X0198329Y0164975D01*
X0199303Y0165949D02*
X0199783Y0165949D01*
M02*
