G75*
%MOIN*%
%OFA0B0*%
%FSLAX25Y25*%
%IPPOS*%
%LPD*%
%AMOC8*
5,1,8,0,0,1.08239X$1,22.5*
%
%ADD10C,0.00300*%
%ADD11C,0.00500*%
%ADD12C,0.00600*%
%ADD13C,0.00800*%
D10*
X0100619Y0113447D02*
X0100619Y0116553D01*
X0107225Y0116553D01*
X0107225Y0113447D01*
X0100619Y0113447D01*
X0115869Y0117197D02*
X0115869Y0122803D01*
X0115871Y0122847D01*
X0115877Y0122890D01*
X0115886Y0122932D01*
X0115899Y0122974D01*
X0115916Y0123014D01*
X0115936Y0123053D01*
X0115959Y0123090D01*
X0115986Y0123124D01*
X0116015Y0123157D01*
X0116048Y0123186D01*
X0116082Y0123213D01*
X0116119Y0123236D01*
X0116158Y0123256D01*
X0116198Y0123273D01*
X0116240Y0123286D01*
X0116282Y0123295D01*
X0116325Y0123301D01*
X0116369Y0123303D01*
X0118475Y0123303D01*
X0118519Y0123301D01*
X0118562Y0123295D01*
X0118604Y0123286D01*
X0118646Y0123273D01*
X0118686Y0123256D01*
X0118725Y0123236D01*
X0118762Y0123213D01*
X0118796Y0123186D01*
X0118829Y0123157D01*
X0118858Y0123124D01*
X0118885Y0123090D01*
X0118908Y0123053D01*
X0118928Y0123014D01*
X0118945Y0122974D01*
X0118958Y0122932D01*
X0118967Y0122890D01*
X0118973Y0122847D01*
X0118975Y0122803D01*
X0118975Y0117197D01*
X0118973Y0117153D01*
X0118967Y0117110D01*
X0118958Y0117068D01*
X0118945Y0117026D01*
X0118928Y0116986D01*
X0118908Y0116947D01*
X0118885Y0116910D01*
X0118858Y0116876D01*
X0118829Y0116843D01*
X0118796Y0116814D01*
X0118762Y0116787D01*
X0118725Y0116764D01*
X0118686Y0116744D01*
X0118646Y0116727D01*
X0118604Y0116714D01*
X0118562Y0116705D01*
X0118519Y0116699D01*
X0118475Y0116697D01*
X0116369Y0116697D01*
X0116325Y0116699D01*
X0116282Y0116705D01*
X0116240Y0116714D01*
X0116198Y0116727D01*
X0116158Y0116744D01*
X0116119Y0116764D01*
X0116082Y0116787D01*
X0116048Y0116814D01*
X0116015Y0116843D01*
X0115986Y0116876D01*
X0115959Y0116910D01*
X0115936Y0116947D01*
X0115916Y0116986D01*
X0115899Y0117026D01*
X0115886Y0117068D01*
X0115877Y0117110D01*
X0115871Y0117153D01*
X0115869Y0117197D01*
X0107225Y0122447D02*
X0100619Y0122447D01*
X0100619Y0125553D01*
X0107225Y0125553D01*
X0107225Y0122447D01*
X0107225Y0131947D02*
X0100619Y0131947D01*
X0100619Y0135053D01*
X0107225Y0135053D01*
X0107225Y0131947D01*
X0108225Y0136947D02*
X0102619Y0136947D01*
X0102575Y0136949D01*
X0102532Y0136955D01*
X0102490Y0136964D01*
X0102448Y0136977D01*
X0102408Y0136994D01*
X0102369Y0137014D01*
X0102332Y0137037D01*
X0102298Y0137064D01*
X0102265Y0137093D01*
X0102236Y0137126D01*
X0102209Y0137160D01*
X0102186Y0137197D01*
X0102166Y0137236D01*
X0102149Y0137276D01*
X0102136Y0137318D01*
X0102127Y0137360D01*
X0102121Y0137403D01*
X0102119Y0137447D01*
X0102119Y0139553D01*
X0102121Y0139597D01*
X0102127Y0139640D01*
X0102136Y0139682D01*
X0102149Y0139724D01*
X0102166Y0139764D01*
X0102186Y0139803D01*
X0102209Y0139840D01*
X0102236Y0139874D01*
X0102265Y0139907D01*
X0102298Y0139936D01*
X0102332Y0139963D01*
X0102369Y0139986D01*
X0102408Y0140006D01*
X0102448Y0140023D01*
X0102490Y0140036D01*
X0102532Y0140045D01*
X0102575Y0140051D01*
X0102619Y0140053D01*
X0108225Y0140053D01*
X0108269Y0140051D01*
X0108312Y0140045D01*
X0108354Y0140036D01*
X0108396Y0140023D01*
X0108436Y0140006D01*
X0108475Y0139986D01*
X0108512Y0139963D01*
X0108546Y0139936D01*
X0108579Y0139907D01*
X0108608Y0139874D01*
X0108635Y0139840D01*
X0108658Y0139803D01*
X0108678Y0139764D01*
X0108695Y0139724D01*
X0108708Y0139682D01*
X0108717Y0139640D01*
X0108723Y0139597D01*
X0108725Y0139553D01*
X0108725Y0137447D01*
X0108723Y0137403D01*
X0108717Y0137360D01*
X0108708Y0137318D01*
X0108695Y0137276D01*
X0108678Y0137236D01*
X0108658Y0137197D01*
X0108635Y0137160D01*
X0108608Y0137126D01*
X0108579Y0137093D01*
X0108546Y0137064D01*
X0108512Y0137037D01*
X0108475Y0137014D01*
X0108436Y0136994D01*
X0108396Y0136977D01*
X0108354Y0136964D01*
X0108312Y0136955D01*
X0108269Y0136949D01*
X0108225Y0136947D01*
X0108725Y0140447D02*
X0102119Y0140447D01*
X0102119Y0143553D01*
X0108725Y0143553D01*
X0108725Y0140447D01*
X0108725Y0144447D02*
X0108725Y0147553D01*
X0102119Y0147553D01*
X0102119Y0144447D01*
X0108725Y0144447D01*
X0131369Y0141697D02*
X0131369Y0148303D01*
X0134475Y0148303D01*
X0134475Y0141697D01*
X0131369Y0141697D01*
X0147841Y0134091D02*
X0149331Y0135580D01*
X0149330Y0135581D02*
X0149363Y0135610D01*
X0149397Y0135637D01*
X0149434Y0135660D01*
X0149473Y0135680D01*
X0149513Y0135697D01*
X0149555Y0135710D01*
X0149597Y0135719D01*
X0149640Y0135725D01*
X0149684Y0135727D01*
X0149728Y0135725D01*
X0149771Y0135719D01*
X0149813Y0135710D01*
X0149855Y0135697D01*
X0149895Y0135680D01*
X0149934Y0135660D01*
X0149971Y0135637D01*
X0150005Y0135610D01*
X0150038Y0135581D01*
X0150038Y0135580D02*
X0154002Y0131616D01*
X0154003Y0131617D02*
X0154032Y0131584D01*
X0154059Y0131550D01*
X0154082Y0131513D01*
X0154102Y0131474D01*
X0154119Y0131434D01*
X0154132Y0131392D01*
X0154141Y0131350D01*
X0154147Y0131307D01*
X0154149Y0131263D01*
X0154147Y0131219D01*
X0154141Y0131176D01*
X0154132Y0131134D01*
X0154119Y0131092D01*
X0154102Y0131052D01*
X0154082Y0131013D01*
X0154059Y0130976D01*
X0154032Y0130942D01*
X0154003Y0130909D01*
X0154002Y0130909D02*
X0152513Y0129420D01*
X0152513Y0129419D02*
X0152480Y0129390D01*
X0152446Y0129363D01*
X0152409Y0129340D01*
X0152370Y0129320D01*
X0152330Y0129303D01*
X0152288Y0129290D01*
X0152246Y0129281D01*
X0152203Y0129275D01*
X0152159Y0129273D01*
X0152115Y0129275D01*
X0152072Y0129281D01*
X0152030Y0129290D01*
X0151988Y0129303D01*
X0151948Y0129320D01*
X0151909Y0129340D01*
X0151872Y0129363D01*
X0151838Y0129390D01*
X0151805Y0129419D01*
X0151806Y0129420D02*
X0147841Y0133384D01*
X0147841Y0133383D02*
X0147812Y0133416D01*
X0147785Y0133450D01*
X0147762Y0133487D01*
X0147742Y0133526D01*
X0147725Y0133566D01*
X0147712Y0133608D01*
X0147703Y0133650D01*
X0147697Y0133693D01*
X0147695Y0133737D01*
X0147697Y0133781D01*
X0147703Y0133824D01*
X0147712Y0133866D01*
X0147725Y0133908D01*
X0147742Y0133948D01*
X0147762Y0133987D01*
X0147785Y0134024D01*
X0147812Y0134058D01*
X0147841Y0134091D01*
X0139975Y0126803D02*
X0139975Y0121197D01*
X0139973Y0121153D01*
X0139967Y0121110D01*
X0139958Y0121068D01*
X0139945Y0121026D01*
X0139928Y0120986D01*
X0139908Y0120947D01*
X0139885Y0120910D01*
X0139858Y0120876D01*
X0139829Y0120843D01*
X0139796Y0120814D01*
X0139762Y0120787D01*
X0139725Y0120764D01*
X0139686Y0120744D01*
X0139646Y0120727D01*
X0139604Y0120714D01*
X0139562Y0120705D01*
X0139519Y0120699D01*
X0139475Y0120697D01*
X0137369Y0120697D01*
X0137325Y0120699D01*
X0137282Y0120705D01*
X0137240Y0120714D01*
X0137198Y0120727D01*
X0137158Y0120744D01*
X0137119Y0120764D01*
X0137082Y0120787D01*
X0137048Y0120814D01*
X0137015Y0120843D01*
X0136986Y0120876D01*
X0136959Y0120910D01*
X0136936Y0120947D01*
X0136916Y0120986D01*
X0136899Y0121026D01*
X0136886Y0121068D01*
X0136877Y0121110D01*
X0136871Y0121153D01*
X0136869Y0121197D01*
X0136869Y0126803D01*
X0136871Y0126847D01*
X0136877Y0126890D01*
X0136886Y0126932D01*
X0136899Y0126974D01*
X0136916Y0127014D01*
X0136936Y0127053D01*
X0136959Y0127090D01*
X0136986Y0127124D01*
X0137015Y0127157D01*
X0137048Y0127186D01*
X0137082Y0127213D01*
X0137119Y0127236D01*
X0137158Y0127256D01*
X0137198Y0127273D01*
X0137240Y0127286D01*
X0137282Y0127295D01*
X0137325Y0127301D01*
X0137369Y0127303D01*
X0139475Y0127303D01*
X0139519Y0127301D01*
X0139562Y0127295D01*
X0139604Y0127286D01*
X0139646Y0127273D01*
X0139686Y0127256D01*
X0139725Y0127236D01*
X0139762Y0127213D01*
X0139796Y0127186D01*
X0139829Y0127157D01*
X0139858Y0127124D01*
X0139885Y0127090D01*
X0139908Y0127053D01*
X0139928Y0127014D01*
X0139945Y0126974D01*
X0139958Y0126932D01*
X0139967Y0126890D01*
X0139973Y0126847D01*
X0139975Y0126803D01*
X0214841Y0170909D02*
X0216331Y0169420D01*
X0216330Y0169419D02*
X0216363Y0169390D01*
X0216397Y0169363D01*
X0216434Y0169340D01*
X0216473Y0169320D01*
X0216513Y0169303D01*
X0216555Y0169290D01*
X0216597Y0169281D01*
X0216640Y0169275D01*
X0216684Y0169273D01*
X0216728Y0169275D01*
X0216771Y0169281D01*
X0216813Y0169290D01*
X0216855Y0169303D01*
X0216895Y0169320D01*
X0216934Y0169340D01*
X0216971Y0169363D01*
X0217005Y0169390D01*
X0217038Y0169419D01*
X0217038Y0169420D02*
X0221002Y0173384D01*
X0221003Y0173383D02*
X0221032Y0173416D01*
X0221059Y0173450D01*
X0221082Y0173487D01*
X0221102Y0173526D01*
X0221119Y0173566D01*
X0221132Y0173608D01*
X0221141Y0173650D01*
X0221147Y0173693D01*
X0221149Y0173737D01*
X0221147Y0173781D01*
X0221141Y0173824D01*
X0221132Y0173866D01*
X0221119Y0173908D01*
X0221102Y0173948D01*
X0221082Y0173987D01*
X0221059Y0174024D01*
X0221032Y0174058D01*
X0221003Y0174091D01*
X0221002Y0174091D02*
X0219513Y0175580D01*
X0219513Y0175581D02*
X0219480Y0175610D01*
X0219446Y0175637D01*
X0219409Y0175660D01*
X0219370Y0175680D01*
X0219330Y0175697D01*
X0219288Y0175710D01*
X0219246Y0175719D01*
X0219203Y0175725D01*
X0219159Y0175727D01*
X0219115Y0175725D01*
X0219072Y0175719D01*
X0219030Y0175710D01*
X0218988Y0175697D01*
X0218948Y0175680D01*
X0218909Y0175660D01*
X0218872Y0175637D01*
X0218838Y0175610D01*
X0218805Y0175581D01*
X0218806Y0175580D02*
X0214841Y0171616D01*
X0214841Y0171617D02*
X0214812Y0171584D01*
X0214785Y0171550D01*
X0214762Y0171513D01*
X0214742Y0171474D01*
X0214725Y0171434D01*
X0214712Y0171392D01*
X0214703Y0171350D01*
X0214697Y0171307D01*
X0214695Y0171263D01*
X0214697Y0171219D01*
X0214703Y0171176D01*
X0214712Y0171134D01*
X0214725Y0171092D01*
X0214742Y0171052D01*
X0214762Y0171013D01*
X0214785Y0170976D01*
X0214812Y0170942D01*
X0214841Y0170909D01*
X0214013Y0171920D02*
X0215502Y0173409D01*
X0215503Y0173409D02*
X0215532Y0173442D01*
X0215559Y0173476D01*
X0215582Y0173513D01*
X0215602Y0173552D01*
X0215619Y0173592D01*
X0215632Y0173634D01*
X0215641Y0173676D01*
X0215647Y0173719D01*
X0215649Y0173763D01*
X0215647Y0173807D01*
X0215641Y0173850D01*
X0215632Y0173892D01*
X0215619Y0173934D01*
X0215602Y0173974D01*
X0215582Y0174013D01*
X0215559Y0174050D01*
X0215532Y0174084D01*
X0215503Y0174117D01*
X0215502Y0174116D02*
X0211538Y0178080D01*
X0211538Y0178081D02*
X0211505Y0178110D01*
X0211471Y0178137D01*
X0211434Y0178160D01*
X0211395Y0178180D01*
X0211355Y0178197D01*
X0211313Y0178210D01*
X0211271Y0178219D01*
X0211228Y0178225D01*
X0211184Y0178227D01*
X0211140Y0178225D01*
X0211097Y0178219D01*
X0211055Y0178210D01*
X0211013Y0178197D01*
X0210973Y0178180D01*
X0210934Y0178160D01*
X0210897Y0178137D01*
X0210863Y0178110D01*
X0210830Y0178081D01*
X0210831Y0178080D02*
X0209341Y0176591D01*
X0209312Y0176558D01*
X0209285Y0176524D01*
X0209262Y0176487D01*
X0209242Y0176448D01*
X0209225Y0176408D01*
X0209212Y0176366D01*
X0209203Y0176324D01*
X0209197Y0176281D01*
X0209195Y0176237D01*
X0209197Y0176193D01*
X0209203Y0176150D01*
X0209212Y0176108D01*
X0209225Y0176066D01*
X0209242Y0176026D01*
X0209262Y0175987D01*
X0209285Y0175950D01*
X0209312Y0175916D01*
X0209341Y0175883D01*
X0209341Y0175884D02*
X0213306Y0171920D01*
X0213305Y0171919D02*
X0213338Y0171890D01*
X0213372Y0171863D01*
X0213409Y0171840D01*
X0213448Y0171820D01*
X0213488Y0171803D01*
X0213530Y0171790D01*
X0213572Y0171781D01*
X0213615Y0171775D01*
X0213659Y0171773D01*
X0213703Y0171775D01*
X0213746Y0171781D01*
X0213788Y0171790D01*
X0213830Y0171803D01*
X0213870Y0171820D01*
X0213909Y0171840D01*
X0213946Y0171863D01*
X0213980Y0171890D01*
X0214013Y0171919D01*
X0216988Y0167763D02*
X0219184Y0165566D01*
X0223856Y0170237D01*
X0221659Y0172434D01*
X0216988Y0167763D01*
X0221341Y0165116D02*
X0225306Y0169080D01*
X0225305Y0169081D02*
X0225338Y0169110D01*
X0225372Y0169137D01*
X0225409Y0169160D01*
X0225448Y0169180D01*
X0225488Y0169197D01*
X0225530Y0169210D01*
X0225572Y0169219D01*
X0225615Y0169225D01*
X0225659Y0169227D01*
X0225703Y0169225D01*
X0225746Y0169219D01*
X0225788Y0169210D01*
X0225830Y0169197D01*
X0225870Y0169180D01*
X0225909Y0169160D01*
X0225946Y0169137D01*
X0225980Y0169110D01*
X0226013Y0169081D01*
X0226013Y0169080D02*
X0227502Y0167591D01*
X0227503Y0167591D02*
X0227532Y0167558D01*
X0227559Y0167524D01*
X0227582Y0167487D01*
X0227602Y0167448D01*
X0227619Y0167408D01*
X0227632Y0167366D01*
X0227641Y0167324D01*
X0227647Y0167281D01*
X0227649Y0167237D01*
X0227647Y0167193D01*
X0227641Y0167150D01*
X0227632Y0167108D01*
X0227619Y0167066D01*
X0227602Y0167026D01*
X0227582Y0166987D01*
X0227559Y0166950D01*
X0227532Y0166916D01*
X0227503Y0166883D01*
X0227502Y0166884D02*
X0223538Y0162920D01*
X0223538Y0162919D02*
X0223505Y0162890D01*
X0223471Y0162863D01*
X0223434Y0162840D01*
X0223395Y0162820D01*
X0223355Y0162803D01*
X0223313Y0162790D01*
X0223271Y0162781D01*
X0223228Y0162775D01*
X0223184Y0162773D01*
X0223140Y0162775D01*
X0223097Y0162781D01*
X0223055Y0162790D01*
X0223013Y0162803D01*
X0222973Y0162820D01*
X0222934Y0162840D01*
X0222897Y0162863D01*
X0222863Y0162890D01*
X0222830Y0162919D01*
X0222831Y0162920D02*
X0221341Y0164409D01*
X0221312Y0164442D01*
X0221285Y0164476D01*
X0221262Y0164513D01*
X0221242Y0164552D01*
X0221225Y0164592D01*
X0221212Y0164634D01*
X0221203Y0164676D01*
X0221197Y0164719D01*
X0221195Y0164763D01*
X0221197Y0164807D01*
X0221203Y0164850D01*
X0221212Y0164892D01*
X0221225Y0164934D01*
X0221242Y0164974D01*
X0221262Y0165013D01*
X0221285Y0165050D01*
X0221312Y0165084D01*
X0221341Y0165117D01*
X0161502Y0180884D02*
X0157538Y0176920D01*
X0157538Y0176919D02*
X0157505Y0176890D01*
X0157471Y0176863D01*
X0157434Y0176840D01*
X0157395Y0176820D01*
X0157355Y0176803D01*
X0157313Y0176790D01*
X0157271Y0176781D01*
X0157228Y0176775D01*
X0157184Y0176773D01*
X0157140Y0176775D01*
X0157097Y0176781D01*
X0157055Y0176790D01*
X0157013Y0176803D01*
X0156973Y0176820D01*
X0156934Y0176840D01*
X0156897Y0176863D01*
X0156863Y0176890D01*
X0156830Y0176919D01*
X0156831Y0176920D02*
X0155341Y0178409D01*
X0155312Y0178442D01*
X0155285Y0178476D01*
X0155262Y0178513D01*
X0155242Y0178552D01*
X0155225Y0178592D01*
X0155212Y0178634D01*
X0155203Y0178676D01*
X0155197Y0178719D01*
X0155195Y0178763D01*
X0155197Y0178807D01*
X0155203Y0178850D01*
X0155212Y0178892D01*
X0155225Y0178934D01*
X0155242Y0178974D01*
X0155262Y0179013D01*
X0155285Y0179050D01*
X0155312Y0179084D01*
X0155341Y0179117D01*
X0155341Y0179116D02*
X0159306Y0183080D01*
X0159305Y0183081D02*
X0159338Y0183110D01*
X0159372Y0183137D01*
X0159409Y0183160D01*
X0159448Y0183180D01*
X0159488Y0183197D01*
X0159530Y0183210D01*
X0159572Y0183219D01*
X0159615Y0183225D01*
X0159659Y0183227D01*
X0159703Y0183225D01*
X0159746Y0183219D01*
X0159788Y0183210D01*
X0159830Y0183197D01*
X0159870Y0183180D01*
X0159909Y0183160D01*
X0159946Y0183137D01*
X0159980Y0183110D01*
X0160013Y0183081D01*
X0160013Y0183080D02*
X0161502Y0181591D01*
X0161503Y0181591D02*
X0161532Y0181558D01*
X0161559Y0181524D01*
X0161582Y0181487D01*
X0161602Y0181448D01*
X0161619Y0181408D01*
X0161632Y0181366D01*
X0161641Y0181324D01*
X0161647Y0181281D01*
X0161649Y0181237D01*
X0161647Y0181193D01*
X0161641Y0181150D01*
X0161632Y0181108D01*
X0161619Y0181066D01*
X0161602Y0181026D01*
X0161582Y0180987D01*
X0161559Y0180950D01*
X0161532Y0180916D01*
X0161503Y0180883D01*
X0183619Y0199947D02*
X0183619Y0202053D01*
X0183621Y0202097D01*
X0183627Y0202140D01*
X0183636Y0202182D01*
X0183649Y0202224D01*
X0183666Y0202264D01*
X0183686Y0202303D01*
X0183709Y0202340D01*
X0183736Y0202374D01*
X0183765Y0202407D01*
X0183798Y0202436D01*
X0183832Y0202463D01*
X0183869Y0202486D01*
X0183908Y0202506D01*
X0183948Y0202523D01*
X0183990Y0202536D01*
X0184032Y0202545D01*
X0184075Y0202551D01*
X0184119Y0202553D01*
X0189725Y0202553D01*
X0189769Y0202551D01*
X0189812Y0202545D01*
X0189854Y0202536D01*
X0189896Y0202523D01*
X0189936Y0202506D01*
X0189975Y0202486D01*
X0190012Y0202463D01*
X0190046Y0202436D01*
X0190079Y0202407D01*
X0190108Y0202374D01*
X0190135Y0202340D01*
X0190158Y0202303D01*
X0190178Y0202264D01*
X0190195Y0202224D01*
X0190208Y0202182D01*
X0190217Y0202140D01*
X0190223Y0202097D01*
X0190225Y0202053D01*
X0190225Y0199947D01*
X0190223Y0199903D01*
X0190217Y0199860D01*
X0190208Y0199818D01*
X0190195Y0199776D01*
X0190178Y0199736D01*
X0190158Y0199697D01*
X0190135Y0199660D01*
X0190108Y0199626D01*
X0190079Y0199593D01*
X0190046Y0199564D01*
X0190012Y0199537D01*
X0189975Y0199514D01*
X0189936Y0199494D01*
X0189896Y0199477D01*
X0189854Y0199464D01*
X0189812Y0199455D01*
X0189769Y0199449D01*
X0189725Y0199447D01*
X0184119Y0199447D01*
X0184075Y0199449D01*
X0184032Y0199455D01*
X0183990Y0199464D01*
X0183948Y0199477D01*
X0183908Y0199494D01*
X0183869Y0199514D01*
X0183832Y0199537D01*
X0183798Y0199564D01*
X0183765Y0199593D01*
X0183736Y0199626D01*
X0183709Y0199660D01*
X0183686Y0199697D01*
X0183666Y0199736D01*
X0183649Y0199776D01*
X0183636Y0199818D01*
X0183627Y0199860D01*
X0183621Y0199903D01*
X0183619Y0199947D01*
X0211900Y0060022D02*
X0210448Y0058571D01*
X0212383Y0058571D01*
X0211900Y0057120D02*
X0211900Y0060022D01*
D11*
X0120340Y0062400D02*
X0088047Y0094693D01*
X0111710Y0118356D01*
X0144003Y0086063D01*
X0120340Y0062400D01*
X0169422Y0056000D02*
X0169422Y0046000D01*
X0209422Y0046000D01*
X0209422Y0056000D01*
X0169422Y0056000D01*
X0170422Y0070500D02*
X0170422Y0081500D01*
X0175422Y0081500D01*
X0175422Y0070500D01*
X0170422Y0070500D01*
X0203422Y0070500D02*
X0203422Y0081500D01*
X0208422Y0081500D01*
X0208422Y0070500D01*
X0203422Y0070500D01*
X0213922Y0102000D02*
X0213922Y0119000D01*
X0221922Y0119000D01*
X0221922Y0102000D01*
X0213922Y0102000D01*
X0227201Y0109933D02*
X0233304Y0109933D01*
X0227201Y0109933D02*
X0227201Y0111508D01*
X0243146Y0109933D02*
X0246689Y0109933D01*
X0246886Y0109933D02*
X0246886Y0139067D01*
X0249249Y0140445D01*
X0249249Y0108555D01*
X0246886Y0109933D01*
X0244422Y0110000D02*
X0244422Y0139000D01*
X0243146Y0139067D02*
X0246689Y0139067D01*
X0236922Y0145500D02*
X0225922Y0145500D01*
X0225922Y0150500D01*
X0236922Y0150500D01*
X0236922Y0145500D01*
X0233697Y0139067D02*
X0227201Y0139067D01*
X0227201Y0137098D01*
X0236847Y0156232D02*
X0239997Y0156232D01*
X0244721Y0159776D02*
X0244721Y0169224D01*
X0242752Y0166075D02*
X0242752Y0162925D01*
X0242738Y0162802D01*
X0242720Y0162679D01*
X0242698Y0162556D01*
X0242672Y0162435D01*
X0242642Y0162314D01*
X0242609Y0162194D01*
X0242572Y0162076D01*
X0242531Y0161958D01*
X0242486Y0161842D01*
X0242438Y0161728D01*
X0242386Y0161615D01*
X0242331Y0161503D01*
X0242272Y0161394D01*
X0242210Y0161286D01*
X0242144Y0161181D01*
X0242076Y0161077D01*
X0242004Y0160976D01*
X0241928Y0160877D01*
X0241850Y0160780D01*
X0241769Y0160686D01*
X0241685Y0160595D01*
X0241598Y0160506D01*
X0241508Y0160420D01*
X0241416Y0160337D01*
X0241321Y0160256D01*
X0241223Y0160179D01*
X0241123Y0160105D01*
X0241021Y0160034D01*
X0240917Y0159967D01*
X0240811Y0159902D01*
X0240702Y0159841D01*
X0240592Y0159784D01*
X0240480Y0159730D01*
X0240367Y0159679D01*
X0240252Y0159632D01*
X0240135Y0159589D01*
X0240017Y0159549D01*
X0239898Y0159513D01*
X0239778Y0159481D01*
X0239657Y0159453D01*
X0239535Y0159428D01*
X0239413Y0159407D01*
X0239290Y0159391D01*
X0239166Y0159378D01*
X0239042Y0159369D01*
X0238918Y0159363D01*
X0238794Y0159362D01*
X0238669Y0159365D01*
X0238545Y0159371D01*
X0238421Y0159382D01*
X0234091Y0162925D02*
X0234091Y0166075D01*
X0232123Y0169224D02*
X0232123Y0159776D01*
X0234091Y0162925D02*
X0234105Y0162802D01*
X0234123Y0162679D01*
X0234145Y0162556D01*
X0234171Y0162435D01*
X0234201Y0162314D01*
X0234234Y0162194D01*
X0234271Y0162076D01*
X0234312Y0161958D01*
X0234357Y0161842D01*
X0234405Y0161728D01*
X0234457Y0161615D01*
X0234512Y0161503D01*
X0234571Y0161394D01*
X0234633Y0161286D01*
X0234699Y0161181D01*
X0234767Y0161077D01*
X0234839Y0160976D01*
X0234915Y0160877D01*
X0234993Y0160780D01*
X0235074Y0160686D01*
X0235158Y0160595D01*
X0235245Y0160506D01*
X0235335Y0160420D01*
X0235427Y0160337D01*
X0235522Y0160256D01*
X0235620Y0160179D01*
X0235720Y0160105D01*
X0235822Y0160034D01*
X0235926Y0159967D01*
X0236032Y0159902D01*
X0236141Y0159841D01*
X0236251Y0159784D01*
X0236363Y0159730D01*
X0236476Y0159679D01*
X0236591Y0159632D01*
X0236708Y0159589D01*
X0236826Y0159549D01*
X0236945Y0159513D01*
X0237065Y0159481D01*
X0237186Y0159453D01*
X0237308Y0159428D01*
X0237430Y0159407D01*
X0237553Y0159391D01*
X0237677Y0159378D01*
X0237801Y0159369D01*
X0237925Y0159363D01*
X0238049Y0159362D01*
X0238174Y0159365D01*
X0238298Y0159371D01*
X0238422Y0159382D01*
X0242752Y0166075D02*
X0242738Y0166198D01*
X0242720Y0166321D01*
X0242698Y0166444D01*
X0242672Y0166565D01*
X0242642Y0166686D01*
X0242609Y0166806D01*
X0242572Y0166924D01*
X0242531Y0167042D01*
X0242486Y0167158D01*
X0242438Y0167272D01*
X0242386Y0167385D01*
X0242331Y0167497D01*
X0242272Y0167606D01*
X0242210Y0167714D01*
X0242144Y0167819D01*
X0242076Y0167923D01*
X0242004Y0168024D01*
X0241928Y0168123D01*
X0241850Y0168220D01*
X0241769Y0168314D01*
X0241685Y0168405D01*
X0241598Y0168494D01*
X0241508Y0168580D01*
X0241416Y0168663D01*
X0241321Y0168744D01*
X0241223Y0168821D01*
X0241123Y0168895D01*
X0241021Y0168966D01*
X0240917Y0169033D01*
X0240811Y0169098D01*
X0240702Y0169159D01*
X0240592Y0169216D01*
X0240480Y0169270D01*
X0240367Y0169321D01*
X0240252Y0169368D01*
X0240135Y0169411D01*
X0240017Y0169451D01*
X0239898Y0169487D01*
X0239778Y0169519D01*
X0239657Y0169547D01*
X0239535Y0169572D01*
X0239413Y0169593D01*
X0239290Y0169609D01*
X0239166Y0169622D01*
X0239042Y0169631D01*
X0238918Y0169637D01*
X0238794Y0169638D01*
X0238669Y0169635D01*
X0238545Y0169629D01*
X0238421Y0169618D01*
X0238422Y0169618D02*
X0238298Y0169629D01*
X0238174Y0169635D01*
X0238049Y0169638D01*
X0237925Y0169637D01*
X0237801Y0169631D01*
X0237677Y0169622D01*
X0237553Y0169609D01*
X0237430Y0169593D01*
X0237308Y0169572D01*
X0237186Y0169547D01*
X0237065Y0169519D01*
X0236945Y0169487D01*
X0236826Y0169451D01*
X0236708Y0169411D01*
X0236591Y0169368D01*
X0236476Y0169321D01*
X0236363Y0169270D01*
X0236251Y0169216D01*
X0236141Y0169159D01*
X0236032Y0169098D01*
X0235926Y0169033D01*
X0235822Y0168966D01*
X0235720Y0168895D01*
X0235620Y0168821D01*
X0235522Y0168744D01*
X0235427Y0168663D01*
X0235335Y0168580D01*
X0235245Y0168494D01*
X0235158Y0168405D01*
X0235074Y0168314D01*
X0234993Y0168220D01*
X0234915Y0168123D01*
X0234839Y0168024D01*
X0234767Y0167923D01*
X0234699Y0167819D01*
X0234633Y0167714D01*
X0234571Y0167606D01*
X0234512Y0167497D01*
X0234457Y0167385D01*
X0234405Y0167272D01*
X0234357Y0167158D01*
X0234312Y0167042D01*
X0234271Y0166924D01*
X0234234Y0166806D01*
X0234201Y0166686D01*
X0234171Y0166565D01*
X0234145Y0166444D01*
X0234123Y0166321D01*
X0234105Y0166198D01*
X0234091Y0166075D01*
X0236847Y0172768D02*
X0239997Y0172768D01*
X0173343Y0200579D02*
X0113500Y0200579D01*
X0113500Y0210421D01*
X0173343Y0210421D01*
X0173343Y0200579D01*
X0169772Y0199605D02*
X0169772Y0197803D01*
X0167069Y0197803D01*
X0167520Y0196659D02*
X0167069Y0196208D01*
X0167069Y0195307D01*
X0167520Y0194857D01*
X0169321Y0194857D01*
X0169772Y0195307D01*
X0169772Y0196208D01*
X0169321Y0196659D01*
X0169321Y0193712D02*
X0169772Y0193262D01*
X0169772Y0192361D01*
X0169321Y0191910D01*
X0168421Y0192361D02*
X0168421Y0193262D01*
X0168871Y0193712D01*
X0169321Y0193712D01*
X0168421Y0192361D02*
X0167970Y0191910D01*
X0167520Y0191910D01*
X0167069Y0192361D01*
X0167069Y0193262D01*
X0167520Y0193712D01*
X0159772Y0193262D02*
X0159772Y0192361D01*
X0159321Y0191910D01*
X0158421Y0192361D02*
X0158421Y0193262D01*
X0158871Y0193712D01*
X0159321Y0193712D01*
X0159772Y0193262D01*
X0159772Y0194857D02*
X0157069Y0194857D01*
X0157069Y0196208D01*
X0157520Y0196659D01*
X0159321Y0196659D01*
X0159772Y0196208D01*
X0159772Y0194857D01*
X0157520Y0193712D02*
X0157069Y0193262D01*
X0157069Y0192361D01*
X0157520Y0191910D01*
X0157970Y0191910D01*
X0158421Y0192361D01*
X0158421Y0197803D02*
X0158421Y0199605D01*
X0157970Y0199605D02*
X0159772Y0199605D01*
X0159772Y0197803D02*
X0157970Y0197803D01*
X0157069Y0198704D01*
X0157970Y0199605D01*
X0149772Y0199155D02*
X0149772Y0198254D01*
X0149321Y0197803D01*
X0147520Y0199605D01*
X0149321Y0199605D01*
X0149772Y0199155D01*
X0149321Y0197803D02*
X0147520Y0197803D01*
X0147069Y0198254D01*
X0147069Y0199155D01*
X0147520Y0199605D01*
X0147520Y0196659D02*
X0147069Y0196208D01*
X0147069Y0194857D01*
X0149772Y0194857D01*
X0149772Y0196208D01*
X0149321Y0196659D01*
X0147520Y0196659D01*
X0139772Y0196208D02*
X0139772Y0194857D01*
X0137069Y0194857D01*
X0137069Y0196208D01*
X0137520Y0196659D01*
X0139321Y0196659D01*
X0139772Y0196208D01*
X0139772Y0197803D02*
X0139772Y0199605D01*
X0139772Y0198704D02*
X0137069Y0198704D01*
X0137970Y0197803D01*
X0129772Y0197803D02*
X0127970Y0199605D01*
X0127520Y0199605D01*
X0127069Y0199155D01*
X0127069Y0198254D01*
X0127520Y0197803D01*
X0127520Y0196659D02*
X0127069Y0196208D01*
X0127069Y0194857D01*
X0129772Y0194857D01*
X0129772Y0196208D01*
X0129321Y0196659D01*
X0127520Y0196659D01*
X0129772Y0197803D02*
X0129772Y0199605D01*
X0119772Y0199155D02*
X0119772Y0198254D01*
X0119321Y0197803D01*
X0119321Y0196659D02*
X0117520Y0196659D01*
X0117069Y0196208D01*
X0117069Y0194857D01*
X0119772Y0194857D01*
X0119772Y0196208D01*
X0119321Y0196659D01*
X0117520Y0197803D02*
X0117069Y0198254D01*
X0117069Y0199155D01*
X0117520Y0199605D01*
X0117970Y0199605D01*
X0118421Y0199155D01*
X0118871Y0199605D01*
X0119321Y0199605D01*
X0119772Y0199155D01*
X0118421Y0199155D02*
X0118421Y0198704D01*
X0115922Y0200500D02*
X0113422Y0198000D01*
X0110922Y0198000D01*
X0110922Y0200500D01*
X0113422Y0203000D01*
X0115922Y0200500D01*
X0115886Y0200536D02*
X0110957Y0200536D01*
X0110922Y0200037D02*
X0115459Y0200037D01*
X0114960Y0199539D02*
X0110922Y0199539D01*
X0110922Y0199040D02*
X0114462Y0199040D01*
X0113963Y0198541D02*
X0110922Y0198541D01*
X0110922Y0198043D02*
X0113465Y0198043D01*
X0115388Y0201034D02*
X0111456Y0201034D01*
X0111954Y0201533D02*
X0114889Y0201533D01*
X0114391Y0202031D02*
X0112453Y0202031D01*
X0112951Y0202530D02*
X0113892Y0202530D01*
X0103422Y0158500D02*
X0083422Y0158500D01*
X0083422Y0148500D01*
X0103422Y0148500D01*
X0103422Y0158500D01*
X0119422Y0146500D02*
X0119422Y0141500D01*
X0130422Y0141500D01*
X0130422Y0146500D01*
X0119422Y0146500D01*
X0113422Y0140500D02*
X0143422Y0140500D01*
X0143422Y0130500D01*
X0113422Y0130500D01*
X0113422Y0140500D01*
X0096672Y0136000D02*
X0096672Y0131000D01*
X0086172Y0131000D01*
X0086172Y0136000D01*
X0096672Y0136000D01*
X0091922Y0135000D02*
X0091422Y0134250D01*
X0091422Y0132750D01*
X0091922Y0132000D01*
X0091922Y0135000D01*
X0091672Y0134500D02*
X0091672Y0132500D01*
X0091422Y0132750D02*
X0090922Y0133500D01*
X0091422Y0134250D01*
X0086172Y0126500D02*
X0096672Y0126500D01*
X0096672Y0121500D01*
X0086172Y0121500D01*
X0086172Y0126500D01*
X0090922Y0124000D02*
X0091422Y0123250D01*
X0091422Y0124750D01*
X0090922Y0124000D01*
X0091422Y0124750D02*
X0091922Y0125500D01*
X0091922Y0122500D01*
X0091422Y0123250D01*
X0091672Y0123000D02*
X0091672Y0125000D01*
X0096672Y0117500D02*
X0086172Y0117500D01*
X0086172Y0112500D01*
X0096672Y0112500D01*
X0096672Y0117500D01*
X0091922Y0116500D02*
X0091422Y0115750D01*
X0091422Y0114250D01*
X0091922Y0113500D01*
X0091922Y0116500D01*
X0091672Y0116000D02*
X0091672Y0114000D01*
X0091422Y0114250D02*
X0090922Y0115000D01*
X0091422Y0115750D01*
X0129422Y0113500D02*
X0138422Y0113500D01*
X0135422Y0110000D02*
X0132422Y0108000D01*
X0132922Y0112000D01*
X0134922Y0110000D01*
X0132422Y0108500D01*
X0132922Y0111500D01*
X0134422Y0110000D01*
X0132922Y0109000D01*
X0132922Y0109500D01*
X0133422Y0110500D01*
X0133422Y0110000D01*
X0133922Y0110000D02*
X0132922Y0109500D01*
X0132922Y0111000D01*
X0133422Y0110500D01*
X0133922Y0110000D01*
X0135422Y0110000D02*
X0132422Y0112500D01*
X0132422Y0108500D01*
X0132422Y0108000D01*
X0132422Y0107500D01*
X0135422Y0110000D01*
X0138422Y0106500D02*
X0129422Y0106500D01*
X0163422Y0124839D02*
X0163422Y0127500D01*
X0161422Y0127500D02*
X0161424Y0127589D01*
X0161430Y0127678D01*
X0161440Y0127767D01*
X0161454Y0127855D01*
X0161471Y0127942D01*
X0161493Y0128028D01*
X0161519Y0128114D01*
X0161548Y0128198D01*
X0161581Y0128281D01*
X0161617Y0128362D01*
X0161658Y0128442D01*
X0161701Y0128519D01*
X0161748Y0128595D01*
X0161799Y0128668D01*
X0161852Y0128739D01*
X0161909Y0128808D01*
X0161969Y0128874D01*
X0162032Y0128938D01*
X0162097Y0128998D01*
X0162165Y0129056D01*
X0162236Y0129110D01*
X0162309Y0129161D01*
X0162384Y0129209D01*
X0162461Y0129254D01*
X0162540Y0129295D01*
X0162621Y0129332D01*
X0162703Y0129366D01*
X0162787Y0129397D01*
X0162872Y0129423D01*
X0162958Y0129446D01*
X0163045Y0129464D01*
X0163133Y0129479D01*
X0163222Y0129490D01*
X0163311Y0129497D01*
X0163400Y0129500D01*
X0163489Y0129499D01*
X0163578Y0129494D01*
X0163666Y0129485D01*
X0163755Y0129472D01*
X0163842Y0129455D01*
X0163929Y0129435D01*
X0164015Y0129410D01*
X0164099Y0129382D01*
X0164182Y0129350D01*
X0164264Y0129314D01*
X0164344Y0129275D01*
X0164422Y0129232D01*
X0164498Y0129186D01*
X0164572Y0129136D01*
X0164644Y0129083D01*
X0164713Y0129027D01*
X0164780Y0128968D01*
X0164844Y0128906D01*
X0164905Y0128842D01*
X0164964Y0128774D01*
X0165019Y0128704D01*
X0165071Y0128632D01*
X0165120Y0128557D01*
X0165165Y0128481D01*
X0165207Y0128402D01*
X0165245Y0128322D01*
X0165280Y0128240D01*
X0165311Y0128156D01*
X0165339Y0128071D01*
X0165362Y0127985D01*
X0165382Y0127898D01*
X0165398Y0127811D01*
X0165410Y0127722D01*
X0165418Y0127634D01*
X0165422Y0127545D01*
X0165422Y0127455D01*
X0165418Y0127366D01*
X0165410Y0127278D01*
X0165398Y0127189D01*
X0165382Y0127102D01*
X0165362Y0127015D01*
X0165339Y0126929D01*
X0165311Y0126844D01*
X0165280Y0126760D01*
X0165245Y0126678D01*
X0165207Y0126598D01*
X0165165Y0126519D01*
X0165120Y0126443D01*
X0165071Y0126368D01*
X0165019Y0126296D01*
X0164964Y0126226D01*
X0164905Y0126158D01*
X0164844Y0126094D01*
X0164780Y0126032D01*
X0164713Y0125973D01*
X0164644Y0125917D01*
X0164572Y0125864D01*
X0164498Y0125814D01*
X0164422Y0125768D01*
X0164344Y0125725D01*
X0164264Y0125686D01*
X0164182Y0125650D01*
X0164099Y0125618D01*
X0164015Y0125590D01*
X0163929Y0125565D01*
X0163842Y0125545D01*
X0163755Y0125528D01*
X0163666Y0125515D01*
X0163578Y0125506D01*
X0163489Y0125501D01*
X0163400Y0125500D01*
X0163311Y0125503D01*
X0163222Y0125510D01*
X0163133Y0125521D01*
X0163045Y0125536D01*
X0162958Y0125554D01*
X0162872Y0125577D01*
X0162787Y0125603D01*
X0162703Y0125634D01*
X0162621Y0125668D01*
X0162540Y0125705D01*
X0162461Y0125746D01*
X0162384Y0125791D01*
X0162309Y0125839D01*
X0162236Y0125890D01*
X0162165Y0125944D01*
X0162097Y0126002D01*
X0162032Y0126062D01*
X0161969Y0126126D01*
X0161909Y0126192D01*
X0161852Y0126261D01*
X0161799Y0126332D01*
X0161748Y0126405D01*
X0161701Y0126481D01*
X0161658Y0126558D01*
X0161617Y0126638D01*
X0161581Y0126719D01*
X0161548Y0126802D01*
X0161519Y0126886D01*
X0161493Y0126972D01*
X0161471Y0127058D01*
X0161454Y0127145D01*
X0161440Y0127233D01*
X0161430Y0127322D01*
X0161424Y0127411D01*
X0161422Y0127500D01*
X0160760Y0127500D02*
X0163422Y0127500D01*
X0166083Y0127500D01*
X0163422Y0127500D02*
X0163422Y0130161D01*
D12*
X0182922Y0112325D02*
X0143747Y0151500D01*
X0181719Y0189472D01*
X0184124Y0189472D01*
X0222097Y0151500D01*
X0182922Y0112325D01*
X0131612Y0116291D02*
X0131612Y0116773D01*
X0131612Y0116291D02*
X0125231Y0116291D01*
X0125231Y0116773D01*
X0125231Y0119943D02*
X0125231Y0124057D01*
X0125231Y0127227D02*
X0125231Y0127709D01*
X0131612Y0127709D01*
X0131612Y0127227D01*
X0131612Y0124057D02*
X0131612Y0123683D01*
X0131612Y0120317D02*
X0131612Y0119943D01*
X0180722Y0184239D02*
X0180724Y0184332D01*
X0180730Y0184426D01*
X0180740Y0184518D01*
X0180754Y0184611D01*
X0180771Y0184702D01*
X0180793Y0184793D01*
X0180818Y0184883D01*
X0180848Y0184972D01*
X0180881Y0185059D01*
X0180917Y0185145D01*
X0180958Y0185229D01*
X0181001Y0185312D01*
X0181049Y0185392D01*
X0181099Y0185471D01*
X0181153Y0185547D01*
X0181210Y0185621D01*
X0181271Y0185692D01*
X0181334Y0185761D01*
X0181400Y0185827D01*
X0181469Y0185890D01*
X0181540Y0185951D01*
X0181614Y0186008D01*
X0181690Y0186062D01*
X0181769Y0186112D01*
X0181849Y0186160D01*
X0181932Y0186203D01*
X0182016Y0186244D01*
X0182102Y0186280D01*
X0182189Y0186313D01*
X0182278Y0186343D01*
X0182368Y0186368D01*
X0182459Y0186390D01*
X0182550Y0186407D01*
X0182643Y0186421D01*
X0182735Y0186431D01*
X0182829Y0186437D01*
X0182922Y0186439D01*
X0183015Y0186437D01*
X0183109Y0186431D01*
X0183201Y0186421D01*
X0183294Y0186407D01*
X0183385Y0186390D01*
X0183476Y0186368D01*
X0183566Y0186343D01*
X0183655Y0186313D01*
X0183742Y0186280D01*
X0183828Y0186244D01*
X0183912Y0186203D01*
X0183995Y0186160D01*
X0184075Y0186112D01*
X0184154Y0186062D01*
X0184230Y0186008D01*
X0184304Y0185951D01*
X0184375Y0185890D01*
X0184444Y0185827D01*
X0184510Y0185761D01*
X0184573Y0185692D01*
X0184634Y0185621D01*
X0184691Y0185547D01*
X0184745Y0185471D01*
X0184795Y0185392D01*
X0184843Y0185312D01*
X0184886Y0185229D01*
X0184927Y0185145D01*
X0184963Y0185059D01*
X0184996Y0184972D01*
X0185026Y0184883D01*
X0185051Y0184793D01*
X0185073Y0184702D01*
X0185090Y0184611D01*
X0185104Y0184518D01*
X0185114Y0184426D01*
X0185120Y0184332D01*
X0185122Y0184239D01*
X0185120Y0184146D01*
X0185114Y0184052D01*
X0185104Y0183960D01*
X0185090Y0183867D01*
X0185073Y0183776D01*
X0185051Y0183685D01*
X0185026Y0183595D01*
X0184996Y0183506D01*
X0184963Y0183419D01*
X0184927Y0183333D01*
X0184886Y0183249D01*
X0184843Y0183166D01*
X0184795Y0183086D01*
X0184745Y0183007D01*
X0184691Y0182931D01*
X0184634Y0182857D01*
X0184573Y0182786D01*
X0184510Y0182717D01*
X0184444Y0182651D01*
X0184375Y0182588D01*
X0184304Y0182527D01*
X0184230Y0182470D01*
X0184154Y0182416D01*
X0184075Y0182366D01*
X0183995Y0182318D01*
X0183912Y0182275D01*
X0183828Y0182234D01*
X0183742Y0182198D01*
X0183655Y0182165D01*
X0183566Y0182135D01*
X0183476Y0182110D01*
X0183385Y0182088D01*
X0183294Y0182071D01*
X0183201Y0182057D01*
X0183109Y0182047D01*
X0183015Y0182041D01*
X0182922Y0182039D01*
X0182829Y0182041D01*
X0182735Y0182047D01*
X0182643Y0182057D01*
X0182550Y0182071D01*
X0182459Y0182088D01*
X0182368Y0182110D01*
X0182278Y0182135D01*
X0182189Y0182165D01*
X0182102Y0182198D01*
X0182016Y0182234D01*
X0181932Y0182275D01*
X0181849Y0182318D01*
X0181769Y0182366D01*
X0181690Y0182416D01*
X0181614Y0182470D01*
X0181540Y0182527D01*
X0181469Y0182588D01*
X0181400Y0182651D01*
X0181334Y0182717D01*
X0181271Y0182786D01*
X0181210Y0182857D01*
X0181153Y0182931D01*
X0181099Y0183007D01*
X0181049Y0183086D01*
X0181001Y0183166D01*
X0180958Y0183249D01*
X0180917Y0183333D01*
X0180881Y0183419D01*
X0180848Y0183506D01*
X0180818Y0183595D01*
X0180793Y0183685D01*
X0180771Y0183776D01*
X0180754Y0183867D01*
X0180740Y0183960D01*
X0180730Y0184052D01*
X0180724Y0184146D01*
X0180722Y0184239D01*
X0193922Y0197000D02*
X0204922Y0197000D01*
X0204982Y0197002D01*
X0205043Y0197007D01*
X0205102Y0197016D01*
X0205161Y0197029D01*
X0205220Y0197045D01*
X0205277Y0197065D01*
X0205332Y0197088D01*
X0205387Y0197115D01*
X0205439Y0197144D01*
X0205490Y0197177D01*
X0205539Y0197213D01*
X0205585Y0197251D01*
X0205629Y0197293D01*
X0205671Y0197337D01*
X0205709Y0197383D01*
X0205745Y0197432D01*
X0205778Y0197483D01*
X0205807Y0197535D01*
X0205834Y0197590D01*
X0205857Y0197645D01*
X0205877Y0197702D01*
X0205893Y0197761D01*
X0205906Y0197820D01*
X0205915Y0197879D01*
X0205920Y0197940D01*
X0205922Y0198000D01*
X0205922Y0204000D01*
X0205920Y0204060D01*
X0205915Y0204121D01*
X0205906Y0204180D01*
X0205893Y0204239D01*
X0205877Y0204298D01*
X0205857Y0204355D01*
X0205834Y0204410D01*
X0205807Y0204465D01*
X0205778Y0204517D01*
X0205745Y0204568D01*
X0205709Y0204617D01*
X0205671Y0204663D01*
X0205629Y0204707D01*
X0205585Y0204749D01*
X0205539Y0204787D01*
X0205490Y0204823D01*
X0205439Y0204856D01*
X0205387Y0204885D01*
X0205332Y0204912D01*
X0205277Y0204935D01*
X0205220Y0204955D01*
X0205161Y0204971D01*
X0205102Y0204984D01*
X0205043Y0204993D01*
X0204982Y0204998D01*
X0204922Y0205000D01*
X0193922Y0205000D01*
X0193862Y0204998D01*
X0193801Y0204993D01*
X0193742Y0204984D01*
X0193683Y0204971D01*
X0193624Y0204955D01*
X0193567Y0204935D01*
X0193512Y0204912D01*
X0193457Y0204885D01*
X0193405Y0204856D01*
X0193354Y0204823D01*
X0193305Y0204787D01*
X0193259Y0204749D01*
X0193215Y0204707D01*
X0193173Y0204663D01*
X0193135Y0204617D01*
X0193099Y0204568D01*
X0193066Y0204517D01*
X0193037Y0204465D01*
X0193010Y0204410D01*
X0192987Y0204355D01*
X0192967Y0204298D01*
X0192951Y0204239D01*
X0192938Y0204180D01*
X0192929Y0204121D01*
X0192924Y0204060D01*
X0192922Y0204000D01*
X0192922Y0198000D01*
X0192924Y0197940D01*
X0192929Y0197879D01*
X0192938Y0197820D01*
X0192951Y0197761D01*
X0192967Y0197702D01*
X0192987Y0197645D01*
X0193010Y0197590D01*
X0193037Y0197535D01*
X0193066Y0197483D01*
X0193099Y0197432D01*
X0193135Y0197383D01*
X0193173Y0197337D01*
X0193215Y0197293D01*
X0193259Y0197251D01*
X0193305Y0197213D01*
X0193354Y0197177D01*
X0193405Y0197144D01*
X0193457Y0197115D01*
X0193512Y0197088D01*
X0193567Y0197065D01*
X0193624Y0197045D01*
X0193683Y0197029D01*
X0193742Y0197016D01*
X0193801Y0197007D01*
X0193862Y0197002D01*
X0193922Y0197000D01*
D13*
X0168922Y0096000D02*
X0160922Y0096000D01*
X0168922Y0096000D02*
X0168922Y0074000D01*
X0165922Y0071000D01*
X0160922Y0071000D01*
X0151922Y0071000D02*
X0146922Y0071000D01*
X0143922Y0074000D01*
X0143922Y0096000D01*
X0151922Y0096000D01*
X0152022Y0094300D02*
X0151760Y0094189D01*
X0151500Y0094072D01*
X0151244Y0093949D01*
X0150990Y0093820D01*
X0150740Y0093684D01*
X0150493Y0093542D01*
X0150250Y0093395D01*
X0150010Y0093241D01*
X0149774Y0093082D01*
X0149542Y0092916D01*
X0149314Y0092746D01*
X0149091Y0092569D01*
X0148872Y0092388D01*
X0148657Y0092201D01*
X0148447Y0092009D01*
X0148242Y0091812D01*
X0148041Y0091609D01*
X0147846Y0091402D01*
X0147655Y0091191D01*
X0147470Y0090974D01*
X0147290Y0090754D01*
X0147116Y0090529D01*
X0146947Y0090299D01*
X0146784Y0090066D01*
X0146627Y0089829D01*
X0146475Y0089588D01*
X0146330Y0089343D01*
X0146190Y0089095D01*
X0146056Y0088844D01*
X0145929Y0088589D01*
X0145808Y0088332D01*
X0145693Y0088071D01*
X0145585Y0087808D01*
X0145483Y0087542D01*
X0145388Y0087274D01*
X0145299Y0087004D01*
X0145217Y0086731D01*
X0145141Y0086456D01*
X0145072Y0086180D01*
X0145010Y0085902D01*
X0144955Y0085623D01*
X0144906Y0085343D01*
X0144865Y0085061D01*
X0144830Y0084778D01*
X0144803Y0084495D01*
X0144782Y0084211D01*
X0144768Y0083927D01*
X0144761Y0083642D01*
X0144761Y0083358D01*
X0144768Y0083073D01*
X0144782Y0082789D01*
X0144803Y0082505D01*
X0144830Y0082222D01*
X0144865Y0081939D01*
X0144906Y0081657D01*
X0144955Y0081377D01*
X0145010Y0081098D01*
X0145072Y0080820D01*
X0145141Y0080544D01*
X0145217Y0080269D01*
X0145299Y0079996D01*
X0145388Y0079726D01*
X0145483Y0079458D01*
X0145585Y0079192D01*
X0145693Y0078929D01*
X0145808Y0078668D01*
X0145929Y0078411D01*
X0146056Y0078156D01*
X0146190Y0077905D01*
X0146330Y0077657D01*
X0146475Y0077412D01*
X0146627Y0077171D01*
X0146784Y0076934D01*
X0146947Y0076701D01*
X0147116Y0076471D01*
X0147290Y0076246D01*
X0147470Y0076026D01*
X0147655Y0075809D01*
X0147846Y0075598D01*
X0148041Y0075391D01*
X0148242Y0075188D01*
X0148447Y0074991D01*
X0148657Y0074799D01*
X0148872Y0074612D01*
X0149091Y0074431D01*
X0149314Y0074254D01*
X0149542Y0074084D01*
X0149774Y0073918D01*
X0150010Y0073759D01*
X0150250Y0073605D01*
X0150493Y0073458D01*
X0150740Y0073316D01*
X0150990Y0073180D01*
X0151244Y0073051D01*
X0151500Y0072928D01*
X0151760Y0072811D01*
X0152022Y0072700D01*
X0160822Y0072700D02*
X0161084Y0072811D01*
X0161344Y0072928D01*
X0161600Y0073051D01*
X0161854Y0073180D01*
X0162104Y0073316D01*
X0162351Y0073458D01*
X0162594Y0073605D01*
X0162834Y0073759D01*
X0163070Y0073918D01*
X0163302Y0074084D01*
X0163530Y0074254D01*
X0163753Y0074431D01*
X0163972Y0074612D01*
X0164187Y0074799D01*
X0164397Y0074991D01*
X0164602Y0075188D01*
X0164803Y0075391D01*
X0164998Y0075598D01*
X0165189Y0075809D01*
X0165374Y0076026D01*
X0165554Y0076246D01*
X0165728Y0076471D01*
X0165897Y0076701D01*
X0166060Y0076934D01*
X0166217Y0077171D01*
X0166369Y0077412D01*
X0166514Y0077657D01*
X0166654Y0077905D01*
X0166788Y0078156D01*
X0166915Y0078411D01*
X0167036Y0078668D01*
X0167151Y0078929D01*
X0167259Y0079192D01*
X0167361Y0079458D01*
X0167456Y0079726D01*
X0167545Y0079996D01*
X0167627Y0080269D01*
X0167703Y0080544D01*
X0167772Y0080820D01*
X0167834Y0081098D01*
X0167889Y0081377D01*
X0167938Y0081657D01*
X0167979Y0081939D01*
X0168014Y0082222D01*
X0168041Y0082505D01*
X0168062Y0082789D01*
X0168076Y0083073D01*
X0168083Y0083358D01*
X0168083Y0083642D01*
X0168076Y0083927D01*
X0168062Y0084211D01*
X0168041Y0084495D01*
X0168014Y0084778D01*
X0167979Y0085061D01*
X0167938Y0085343D01*
X0167889Y0085623D01*
X0167834Y0085902D01*
X0167772Y0086180D01*
X0167703Y0086456D01*
X0167627Y0086731D01*
X0167545Y0087004D01*
X0167456Y0087274D01*
X0167361Y0087542D01*
X0167259Y0087808D01*
X0167151Y0088071D01*
X0167036Y0088332D01*
X0166915Y0088589D01*
X0166788Y0088844D01*
X0166654Y0089095D01*
X0166514Y0089343D01*
X0166369Y0089588D01*
X0166217Y0089829D01*
X0166060Y0090066D01*
X0165897Y0090299D01*
X0165728Y0090529D01*
X0165554Y0090754D01*
X0165374Y0090974D01*
X0165189Y0091191D01*
X0164998Y0091402D01*
X0164803Y0091609D01*
X0164602Y0091812D01*
X0164397Y0092009D01*
X0164187Y0092201D01*
X0163972Y0092388D01*
X0163753Y0092569D01*
X0163530Y0092746D01*
X0163302Y0092916D01*
X0163070Y0093082D01*
X0162834Y0093241D01*
X0162594Y0093395D01*
X0162351Y0093542D01*
X0162104Y0093684D01*
X0161854Y0093820D01*
X0161600Y0093949D01*
X0161344Y0094072D01*
X0161084Y0094189D01*
X0160822Y0094300D01*
X0177217Y0095449D02*
X0177217Y0075764D01*
X0178004Y0075764D01*
X0200445Y0075764D02*
X0201233Y0075764D01*
X0201233Y0084031D01*
X0201146Y0084033D01*
X0201059Y0084039D01*
X0200972Y0084048D01*
X0200886Y0084062D01*
X0200801Y0084079D01*
X0200716Y0084100D01*
X0200633Y0084125D01*
X0200550Y0084153D01*
X0200469Y0084185D01*
X0200390Y0084221D01*
X0200312Y0084260D01*
X0200236Y0084302D01*
X0200162Y0084348D01*
X0200090Y0084397D01*
X0200020Y0084449D01*
X0199953Y0084504D01*
X0199888Y0084562D01*
X0199825Y0084623D01*
X0199766Y0084687D01*
X0199709Y0084753D01*
X0199656Y0084822D01*
X0199605Y0084893D01*
X0199558Y0084966D01*
X0199513Y0085041D01*
X0199473Y0085118D01*
X0199435Y0085196D01*
X0199402Y0085277D01*
X0199371Y0085358D01*
X0199345Y0085441D01*
X0199322Y0085526D01*
X0199303Y0085611D01*
X0199288Y0085696D01*
X0199276Y0085783D01*
X0199268Y0085869D01*
X0199264Y0085956D01*
X0199264Y0086044D01*
X0199268Y0086131D01*
X0199276Y0086217D01*
X0199288Y0086304D01*
X0199303Y0086389D01*
X0199322Y0086474D01*
X0199345Y0086559D01*
X0199371Y0086642D01*
X0199402Y0086723D01*
X0199435Y0086804D01*
X0199473Y0086882D01*
X0199513Y0086959D01*
X0199558Y0087034D01*
X0199605Y0087107D01*
X0199656Y0087178D01*
X0199709Y0087247D01*
X0199766Y0087313D01*
X0199825Y0087377D01*
X0199888Y0087438D01*
X0199953Y0087496D01*
X0200020Y0087551D01*
X0200090Y0087603D01*
X0200162Y0087652D01*
X0200236Y0087698D01*
X0200312Y0087740D01*
X0200390Y0087779D01*
X0200469Y0087815D01*
X0200550Y0087847D01*
X0200633Y0087875D01*
X0200716Y0087900D01*
X0200801Y0087921D01*
X0200886Y0087938D01*
X0200972Y0087952D01*
X0201059Y0087961D01*
X0201146Y0087967D01*
X0201233Y0087969D01*
X0201233Y0095449D01*
X0200445Y0095449D01*
X0178004Y0095449D02*
X0177217Y0095449D01*
M02*
