G75*
%MOIN*%
%OFA0B0*%
%FSLAX25Y25*%
%IPPOS*%
%LPD*%
%AMOC8*
5,1,8,0,0,1.08239X$1,22.5*
%
%ADD10C,0.00300*%
%ADD11C,0.01600*%
%ADD12C,0.00400*%
%ADD13C,0.02200*%
%ADD14C,0.00500*%
%ADD15C,0.00800*%
%ADD16C,0.00600*%
D10*
X0210448Y0058571D02*
X0212383Y0058571D01*
X0211900Y0057120D02*
X0211900Y0060022D01*
X0210448Y0058571D01*
D11*
X0117042Y0120000D02*
X0116802Y0120000D01*
X0139802Y0124000D02*
X0140042Y0124000D01*
X0150337Y0131915D02*
X0150507Y0132085D01*
X0105422Y0138380D02*
X0105422Y0138620D01*
X0211837Y0174415D02*
X0212007Y0174585D01*
X0217837Y0172585D02*
X0218007Y0172415D01*
X0224337Y0166085D02*
X0224507Y0165915D01*
X0190542Y0199000D02*
X0190302Y0199000D01*
D12*
X0169717Y0095295D02*
X0160662Y0095295D01*
X0153182Y0095295D02*
X0144126Y0095295D01*
X0144126Y0076398D01*
X0150819Y0069705D01*
X0153182Y0069705D01*
X0160662Y0069705D02*
X0163024Y0069705D01*
X0169717Y0076398D01*
X0169717Y0095295D01*
X0153182Y0094115D02*
X0152899Y0094020D01*
X0152618Y0093918D01*
X0152341Y0093809D01*
X0152065Y0093694D01*
X0151793Y0093572D01*
X0151524Y0093443D01*
X0151258Y0093308D01*
X0150996Y0093166D01*
X0150737Y0093018D01*
X0150481Y0092864D01*
X0150230Y0092703D01*
X0149982Y0092536D01*
X0149739Y0092364D01*
X0149500Y0092185D01*
X0149265Y0092001D01*
X0149035Y0091811D01*
X0148810Y0091615D01*
X0148590Y0091414D01*
X0148374Y0091208D01*
X0148164Y0090996D01*
X0147959Y0090780D01*
X0147759Y0090558D01*
X0147565Y0090331D01*
X0147376Y0090100D01*
X0147193Y0089865D01*
X0147016Y0089625D01*
X0146845Y0089380D01*
X0146680Y0089132D01*
X0146521Y0088879D01*
X0146368Y0088623D01*
X0146221Y0088363D01*
X0146081Y0088100D01*
X0145947Y0087833D01*
X0145820Y0087563D01*
X0145700Y0087290D01*
X0145586Y0087015D01*
X0145479Y0086736D01*
X0145379Y0086455D01*
X0145286Y0086172D01*
X0145199Y0085886D01*
X0145120Y0085598D01*
X0145048Y0085309D01*
X0144983Y0085018D01*
X0144925Y0084725D01*
X0144874Y0084431D01*
X0144830Y0084136D01*
X0144794Y0083840D01*
X0144765Y0083543D01*
X0144743Y0083245D01*
X0144728Y0082947D01*
X0144721Y0082649D01*
X0144721Y0082351D01*
X0144728Y0082053D01*
X0144743Y0081755D01*
X0144765Y0081457D01*
X0144794Y0081160D01*
X0144830Y0080864D01*
X0144874Y0080569D01*
X0144925Y0080275D01*
X0144983Y0079982D01*
X0145048Y0079691D01*
X0145120Y0079402D01*
X0145199Y0079114D01*
X0145286Y0078828D01*
X0145379Y0078545D01*
X0145479Y0078264D01*
X0145586Y0077985D01*
X0145700Y0077710D01*
X0145820Y0077437D01*
X0145947Y0077167D01*
X0146081Y0076900D01*
X0146221Y0076637D01*
X0146368Y0076377D01*
X0146521Y0076121D01*
X0146680Y0075868D01*
X0146845Y0075620D01*
X0147016Y0075375D01*
X0147193Y0075135D01*
X0147376Y0074900D01*
X0147565Y0074669D01*
X0147759Y0074442D01*
X0147959Y0074220D01*
X0148164Y0074004D01*
X0148374Y0073792D01*
X0148590Y0073586D01*
X0148810Y0073385D01*
X0149035Y0073189D01*
X0149265Y0072999D01*
X0149500Y0072815D01*
X0149739Y0072636D01*
X0149982Y0072464D01*
X0150230Y0072297D01*
X0150481Y0072136D01*
X0150737Y0071982D01*
X0150996Y0071834D01*
X0151258Y0071692D01*
X0151524Y0071557D01*
X0151793Y0071428D01*
X0152065Y0071306D01*
X0152341Y0071191D01*
X0152618Y0071082D01*
X0152899Y0070980D01*
X0153182Y0070885D01*
X0160662Y0070885D02*
X0160945Y0070980D01*
X0161226Y0071082D01*
X0161503Y0071191D01*
X0161779Y0071306D01*
X0162051Y0071428D01*
X0162320Y0071557D01*
X0162586Y0071692D01*
X0162848Y0071834D01*
X0163107Y0071982D01*
X0163363Y0072136D01*
X0163614Y0072297D01*
X0163862Y0072464D01*
X0164105Y0072636D01*
X0164344Y0072815D01*
X0164579Y0072999D01*
X0164809Y0073189D01*
X0165034Y0073385D01*
X0165254Y0073586D01*
X0165470Y0073792D01*
X0165680Y0074004D01*
X0165885Y0074220D01*
X0166085Y0074442D01*
X0166279Y0074669D01*
X0166468Y0074900D01*
X0166651Y0075135D01*
X0166828Y0075375D01*
X0166999Y0075620D01*
X0167164Y0075868D01*
X0167323Y0076121D01*
X0167476Y0076377D01*
X0167623Y0076637D01*
X0167763Y0076900D01*
X0167897Y0077167D01*
X0168024Y0077437D01*
X0168144Y0077710D01*
X0168258Y0077985D01*
X0168365Y0078264D01*
X0168465Y0078545D01*
X0168558Y0078828D01*
X0168645Y0079114D01*
X0168724Y0079402D01*
X0168796Y0079691D01*
X0168861Y0079982D01*
X0168919Y0080275D01*
X0168970Y0080569D01*
X0169014Y0080864D01*
X0169050Y0081160D01*
X0169079Y0081457D01*
X0169101Y0081755D01*
X0169116Y0082053D01*
X0169123Y0082351D01*
X0169123Y0082649D01*
X0169116Y0082947D01*
X0169101Y0083245D01*
X0169079Y0083543D01*
X0169050Y0083840D01*
X0169014Y0084136D01*
X0168970Y0084431D01*
X0168919Y0084725D01*
X0168861Y0085018D01*
X0168796Y0085309D01*
X0168724Y0085598D01*
X0168645Y0085886D01*
X0168558Y0086172D01*
X0168465Y0086455D01*
X0168365Y0086736D01*
X0168258Y0087015D01*
X0168144Y0087290D01*
X0168024Y0087563D01*
X0167897Y0087833D01*
X0167763Y0088100D01*
X0167623Y0088363D01*
X0167476Y0088623D01*
X0167323Y0088879D01*
X0167164Y0089132D01*
X0166999Y0089380D01*
X0166828Y0089625D01*
X0166651Y0089865D01*
X0166468Y0090100D01*
X0166279Y0090331D01*
X0166085Y0090558D01*
X0165885Y0090780D01*
X0165680Y0090996D01*
X0165470Y0091208D01*
X0165254Y0091414D01*
X0165034Y0091615D01*
X0164809Y0091811D01*
X0164579Y0092001D01*
X0164344Y0092185D01*
X0164105Y0092364D01*
X0163862Y0092536D01*
X0163614Y0092703D01*
X0163363Y0092864D01*
X0163107Y0093018D01*
X0162848Y0093166D01*
X0162586Y0093308D01*
X0162320Y0093443D01*
X0162051Y0093572D01*
X0161779Y0093694D01*
X0161503Y0093809D01*
X0161226Y0093918D01*
X0160945Y0094020D01*
X0160662Y0094115D01*
D13*
X0172802Y0076000D02*
X0173042Y0076000D01*
X0205802Y0076000D02*
X0206042Y0076000D01*
X0163507Y0185415D02*
X0163337Y0185585D01*
X0180337Y0196915D02*
X0180507Y0197085D01*
D14*
X0088047Y0094693D02*
X0120340Y0062400D01*
X0144003Y0086063D01*
X0111710Y0118356D01*
X0088047Y0094693D01*
X0086672Y0112625D02*
X0086672Y0116375D01*
X0086672Y0122125D02*
X0086672Y0125875D01*
X0086672Y0131625D02*
X0086672Y0135375D01*
X0119760Y0128299D02*
X0126060Y0128299D01*
X0126060Y0115701D01*
X0130784Y0115701D01*
X0130784Y0118850D01*
X0126060Y0118850D01*
X0126060Y0115701D01*
X0119760Y0115701D01*
X0119760Y0128299D01*
X0126060Y0128299D02*
X0130784Y0128299D01*
X0130784Y0115701D01*
X0126060Y0115701D01*
X0126060Y0115789D02*
X0130784Y0115789D01*
X0130784Y0115701D02*
X0137083Y0115701D01*
X0137083Y0128299D01*
X0130784Y0128299D01*
X0130784Y0118780D02*
X0126060Y0118780D01*
X0126060Y0118281D02*
X0130784Y0118281D01*
X0130784Y0117783D02*
X0126060Y0117783D01*
X0126060Y0117284D02*
X0130784Y0117284D01*
X0130784Y0116786D02*
X0126060Y0116786D01*
X0126060Y0116287D02*
X0130784Y0116287D01*
X0129922Y0113500D02*
X0138922Y0113500D01*
X0139242Y0116515D02*
X0139052Y0116594D01*
X0138889Y0116719D01*
X0138763Y0116882D01*
X0138685Y0117072D01*
X0138658Y0117276D01*
X0138685Y0117479D01*
X0138763Y0117669D01*
X0138889Y0117832D01*
X0139052Y0117958D01*
X0139242Y0118036D01*
X0139445Y0118063D01*
X0139649Y0118036D01*
X0139839Y0117958D01*
X0140002Y0117832D01*
X0140127Y0117669D01*
X0140206Y0117479D01*
X0140233Y0117276D01*
X0140206Y0117072D01*
X0140127Y0116882D01*
X0140002Y0116719D01*
X0139839Y0116594D01*
X0139649Y0116515D01*
X0139445Y0116488D01*
X0139242Y0116515D01*
X0138837Y0116786D02*
X0140053Y0116786D01*
X0140232Y0117284D02*
X0138659Y0117284D01*
X0138850Y0117783D02*
X0140040Y0117783D01*
X0133422Y0112000D02*
X0135422Y0110000D01*
X0132922Y0108500D01*
X0133422Y0111500D01*
X0134922Y0110000D01*
X0133422Y0109000D01*
X0133422Y0109500D01*
X0133922Y0110500D01*
X0133922Y0110000D01*
X0134422Y0110000D02*
X0133422Y0109500D01*
X0133422Y0111000D01*
X0133922Y0110500D01*
X0134422Y0110000D01*
X0135922Y0110000D02*
X0132922Y0108000D01*
X0133422Y0112000D01*
X0132922Y0112500D02*
X0135922Y0110000D01*
X0132922Y0107500D01*
X0132922Y0108000D01*
X0132922Y0108500D01*
X0132922Y0112500D01*
X0129922Y0106500D02*
X0138922Y0106500D01*
X0163422Y0124839D02*
X0163422Y0127500D01*
X0161422Y0127500D02*
X0161424Y0127589D01*
X0161430Y0127678D01*
X0161440Y0127767D01*
X0161454Y0127855D01*
X0161471Y0127942D01*
X0161493Y0128028D01*
X0161519Y0128114D01*
X0161548Y0128198D01*
X0161581Y0128281D01*
X0161617Y0128362D01*
X0161658Y0128442D01*
X0161701Y0128519D01*
X0161748Y0128595D01*
X0161799Y0128668D01*
X0161852Y0128739D01*
X0161909Y0128808D01*
X0161969Y0128874D01*
X0162032Y0128938D01*
X0162097Y0128998D01*
X0162165Y0129056D01*
X0162236Y0129110D01*
X0162309Y0129161D01*
X0162384Y0129209D01*
X0162461Y0129254D01*
X0162540Y0129295D01*
X0162621Y0129332D01*
X0162703Y0129366D01*
X0162787Y0129397D01*
X0162872Y0129423D01*
X0162958Y0129446D01*
X0163045Y0129464D01*
X0163133Y0129479D01*
X0163222Y0129490D01*
X0163311Y0129497D01*
X0163400Y0129500D01*
X0163489Y0129499D01*
X0163578Y0129494D01*
X0163666Y0129485D01*
X0163755Y0129472D01*
X0163842Y0129455D01*
X0163929Y0129435D01*
X0164015Y0129410D01*
X0164099Y0129382D01*
X0164182Y0129350D01*
X0164264Y0129314D01*
X0164344Y0129275D01*
X0164422Y0129232D01*
X0164498Y0129186D01*
X0164572Y0129136D01*
X0164644Y0129083D01*
X0164713Y0129027D01*
X0164780Y0128968D01*
X0164844Y0128906D01*
X0164905Y0128842D01*
X0164964Y0128774D01*
X0165019Y0128704D01*
X0165071Y0128632D01*
X0165120Y0128557D01*
X0165165Y0128481D01*
X0165207Y0128402D01*
X0165245Y0128322D01*
X0165280Y0128240D01*
X0165311Y0128156D01*
X0165339Y0128071D01*
X0165362Y0127985D01*
X0165382Y0127898D01*
X0165398Y0127811D01*
X0165410Y0127722D01*
X0165418Y0127634D01*
X0165422Y0127545D01*
X0165422Y0127455D01*
X0165418Y0127366D01*
X0165410Y0127278D01*
X0165398Y0127189D01*
X0165382Y0127102D01*
X0165362Y0127015D01*
X0165339Y0126929D01*
X0165311Y0126844D01*
X0165280Y0126760D01*
X0165245Y0126678D01*
X0165207Y0126598D01*
X0165165Y0126519D01*
X0165120Y0126443D01*
X0165071Y0126368D01*
X0165019Y0126296D01*
X0164964Y0126226D01*
X0164905Y0126158D01*
X0164844Y0126094D01*
X0164780Y0126032D01*
X0164713Y0125973D01*
X0164644Y0125917D01*
X0164572Y0125864D01*
X0164498Y0125814D01*
X0164422Y0125768D01*
X0164344Y0125725D01*
X0164264Y0125686D01*
X0164182Y0125650D01*
X0164099Y0125618D01*
X0164015Y0125590D01*
X0163929Y0125565D01*
X0163842Y0125545D01*
X0163755Y0125528D01*
X0163666Y0125515D01*
X0163578Y0125506D01*
X0163489Y0125501D01*
X0163400Y0125500D01*
X0163311Y0125503D01*
X0163222Y0125510D01*
X0163133Y0125521D01*
X0163045Y0125536D01*
X0162958Y0125554D01*
X0162872Y0125577D01*
X0162787Y0125603D01*
X0162703Y0125634D01*
X0162621Y0125668D01*
X0162540Y0125705D01*
X0162461Y0125746D01*
X0162384Y0125791D01*
X0162309Y0125839D01*
X0162236Y0125890D01*
X0162165Y0125944D01*
X0162097Y0126002D01*
X0162032Y0126062D01*
X0161969Y0126126D01*
X0161909Y0126192D01*
X0161852Y0126261D01*
X0161799Y0126332D01*
X0161748Y0126405D01*
X0161701Y0126481D01*
X0161658Y0126558D01*
X0161617Y0126638D01*
X0161581Y0126719D01*
X0161548Y0126802D01*
X0161519Y0126886D01*
X0161493Y0126972D01*
X0161471Y0127058D01*
X0161454Y0127145D01*
X0161440Y0127233D01*
X0161430Y0127322D01*
X0161424Y0127411D01*
X0161422Y0127500D01*
X0160760Y0127500D02*
X0163422Y0127500D01*
X0166083Y0127500D01*
X0163422Y0127500D02*
X0163422Y0130161D01*
X0224367Y0140457D02*
X0224367Y0108331D01*
X0228304Y0104394D01*
X0244662Y0104394D01*
X0244662Y0144394D01*
X0228304Y0144394D01*
X0224367Y0140457D01*
X0225922Y0146000D02*
X0225922Y0151000D01*
X0236922Y0151000D01*
X0236922Y0146000D01*
X0225922Y0146000D01*
X0231423Y0151176D02*
X0244021Y0151176D01*
X0244021Y0173224D01*
X0231423Y0173224D01*
X0231423Y0151176D01*
X0173649Y0192386D02*
X0172535Y0191273D01*
X0169772Y0192361D02*
X0169321Y0191910D01*
X0169772Y0192361D02*
X0169772Y0193262D01*
X0169321Y0193712D01*
X0168871Y0193712D01*
X0168421Y0193262D01*
X0168421Y0192361D01*
X0167970Y0191910D01*
X0167520Y0191910D01*
X0167069Y0192361D01*
X0167069Y0193262D01*
X0167520Y0193712D01*
X0167069Y0194857D02*
X0167069Y0196208D01*
X0167520Y0196659D01*
X0169321Y0196659D01*
X0169772Y0196208D01*
X0169772Y0194857D01*
X0167069Y0194857D01*
X0169195Y0194614D02*
X0170308Y0195727D01*
X0169195Y0194614D01*
X0169772Y0197803D02*
X0167970Y0197803D01*
X0167069Y0198704D01*
X0167970Y0199605D01*
X0169772Y0199605D01*
X0168421Y0199605D02*
X0168421Y0197803D01*
X0173343Y0200579D02*
X0113500Y0200579D01*
X0113500Y0210421D01*
X0173343Y0210421D01*
X0173343Y0200579D01*
X0159772Y0199605D02*
X0159772Y0197803D01*
X0157069Y0197803D01*
X0157520Y0196659D02*
X0157069Y0196208D01*
X0157069Y0195307D01*
X0157520Y0194857D01*
X0159321Y0194857D01*
X0159772Y0195307D01*
X0159772Y0196208D01*
X0159321Y0196659D01*
X0159321Y0193712D02*
X0158871Y0193712D01*
X0158421Y0193262D01*
X0158421Y0192361D01*
X0157970Y0191910D01*
X0157520Y0191910D01*
X0157069Y0192361D01*
X0157069Y0193262D01*
X0157520Y0193712D01*
X0159321Y0193712D02*
X0159772Y0193262D01*
X0159772Y0192361D01*
X0159321Y0191910D01*
X0149772Y0194857D02*
X0149772Y0196208D01*
X0149321Y0196659D01*
X0147520Y0196659D01*
X0147069Y0196208D01*
X0147069Y0194857D01*
X0149772Y0194857D01*
X0149321Y0193712D02*
X0147520Y0191910D01*
X0148421Y0191910D02*
X0148421Y0193712D01*
X0147520Y0193712D02*
X0149321Y0191910D01*
X0149321Y0192811D02*
X0147520Y0192811D01*
X0147520Y0197803D02*
X0147069Y0198254D01*
X0147069Y0199155D01*
X0147520Y0199605D01*
X0149321Y0197803D01*
X0149772Y0198254D01*
X0149772Y0199155D01*
X0149321Y0199605D01*
X0147520Y0199605D01*
X0147520Y0197803D02*
X0149321Y0197803D01*
X0139772Y0197803D02*
X0139772Y0199605D01*
X0139772Y0198704D02*
X0137069Y0198704D01*
X0137970Y0197803D01*
X0137520Y0196659D02*
X0139321Y0196659D01*
X0139772Y0196208D01*
X0139772Y0194857D01*
X0137069Y0194857D01*
X0137069Y0196208D01*
X0137520Y0196659D01*
X0137520Y0193712D02*
X0139321Y0191910D01*
X0138421Y0191910D02*
X0138421Y0193712D01*
X0139321Y0193712D02*
X0137520Y0191910D01*
X0137520Y0192811D02*
X0139321Y0192811D01*
X0129772Y0194857D02*
X0129772Y0196208D01*
X0129321Y0196659D01*
X0127520Y0196659D01*
X0127069Y0196208D01*
X0127069Y0194857D01*
X0129772Y0194857D01*
X0129321Y0193712D02*
X0127520Y0191910D01*
X0128421Y0191910D02*
X0128421Y0193712D01*
X0127520Y0193712D02*
X0129321Y0191910D01*
X0129321Y0192811D02*
X0127520Y0192811D01*
X0127520Y0197803D02*
X0127069Y0198254D01*
X0127069Y0199155D01*
X0127520Y0199605D01*
X0127970Y0199605D01*
X0129772Y0197803D01*
X0129772Y0199605D01*
X0119772Y0199155D02*
X0119772Y0198254D01*
X0119321Y0197803D01*
X0119321Y0196659D02*
X0117520Y0196659D01*
X0117069Y0196208D01*
X0117069Y0194857D01*
X0119772Y0194857D01*
X0119772Y0196208D01*
X0119321Y0196659D01*
X0117520Y0197803D02*
X0117069Y0198254D01*
X0117069Y0199155D01*
X0117520Y0199605D01*
X0117970Y0199605D01*
X0118421Y0199155D01*
X0118871Y0199605D01*
X0119321Y0199605D01*
X0119772Y0199155D01*
X0118421Y0199155D02*
X0118421Y0198704D01*
X0115922Y0200500D02*
X0113422Y0198000D01*
X0110922Y0198000D01*
X0110922Y0200500D01*
X0113422Y0203000D01*
X0115922Y0200500D01*
X0115886Y0200536D02*
X0110957Y0200536D01*
X0110922Y0200037D02*
X0115459Y0200037D01*
X0114960Y0199539D02*
X0110922Y0199539D01*
X0110922Y0199040D02*
X0114462Y0199040D01*
X0113963Y0198541D02*
X0110922Y0198541D01*
X0110922Y0198043D02*
X0113465Y0198043D01*
X0117520Y0193712D02*
X0119321Y0191910D01*
X0118421Y0191910D02*
X0118421Y0193712D01*
X0119321Y0193712D02*
X0117520Y0191910D01*
X0117520Y0192811D02*
X0119321Y0192811D01*
X0115388Y0201034D02*
X0111456Y0201034D01*
X0111954Y0201533D02*
X0114889Y0201533D01*
X0114391Y0202031D02*
X0112453Y0202031D01*
X0112951Y0202530D02*
X0113892Y0202530D01*
D15*
X0115922Y0140500D02*
X0113422Y0138000D01*
X0113422Y0133000D01*
X0115922Y0130500D01*
X0120922Y0130500D01*
X0123422Y0133000D01*
X0125922Y0130500D01*
X0130922Y0130500D01*
X0133422Y0133000D01*
X0135922Y0130500D01*
X0140922Y0130500D01*
X0143422Y0133000D01*
X0143422Y0138000D01*
X0140922Y0140500D01*
X0135922Y0140500D01*
X0133422Y0138000D01*
X0130922Y0140500D01*
X0125922Y0140500D01*
X0123422Y0138000D01*
X0120922Y0140500D01*
X0115922Y0140500D01*
X0177217Y0095449D02*
X0177217Y0075764D01*
X0178004Y0075764D01*
X0200445Y0075764D02*
X0201233Y0075764D01*
X0201233Y0084031D01*
X0201146Y0084033D01*
X0201059Y0084039D01*
X0200972Y0084048D01*
X0200886Y0084062D01*
X0200801Y0084079D01*
X0200716Y0084100D01*
X0200633Y0084125D01*
X0200550Y0084153D01*
X0200469Y0084185D01*
X0200390Y0084221D01*
X0200312Y0084260D01*
X0200236Y0084302D01*
X0200162Y0084348D01*
X0200090Y0084397D01*
X0200020Y0084449D01*
X0199953Y0084504D01*
X0199888Y0084562D01*
X0199825Y0084623D01*
X0199766Y0084687D01*
X0199709Y0084753D01*
X0199656Y0084822D01*
X0199605Y0084893D01*
X0199558Y0084966D01*
X0199513Y0085041D01*
X0199473Y0085118D01*
X0199435Y0085196D01*
X0199402Y0085277D01*
X0199371Y0085358D01*
X0199345Y0085441D01*
X0199322Y0085526D01*
X0199303Y0085611D01*
X0199288Y0085696D01*
X0199276Y0085783D01*
X0199268Y0085869D01*
X0199264Y0085956D01*
X0199264Y0086044D01*
X0199268Y0086131D01*
X0199276Y0086217D01*
X0199288Y0086304D01*
X0199303Y0086389D01*
X0199322Y0086474D01*
X0199345Y0086559D01*
X0199371Y0086642D01*
X0199402Y0086723D01*
X0199435Y0086804D01*
X0199473Y0086882D01*
X0199513Y0086959D01*
X0199558Y0087034D01*
X0199605Y0087107D01*
X0199656Y0087178D01*
X0199709Y0087247D01*
X0199766Y0087313D01*
X0199825Y0087377D01*
X0199888Y0087438D01*
X0199953Y0087496D01*
X0200020Y0087551D01*
X0200090Y0087603D01*
X0200162Y0087652D01*
X0200236Y0087698D01*
X0200312Y0087740D01*
X0200390Y0087779D01*
X0200469Y0087815D01*
X0200550Y0087847D01*
X0200633Y0087875D01*
X0200716Y0087900D01*
X0200801Y0087921D01*
X0200886Y0087938D01*
X0200972Y0087952D01*
X0201059Y0087961D01*
X0201146Y0087967D01*
X0201233Y0087969D01*
X0201233Y0095449D01*
X0200445Y0095449D01*
X0178004Y0095449D02*
X0177217Y0095449D01*
X0176922Y0055000D02*
X0171922Y0055000D01*
X0169422Y0052500D01*
X0169422Y0047500D01*
X0171922Y0045000D01*
X0176922Y0045000D01*
X0179422Y0047500D01*
X0181922Y0045000D01*
X0186922Y0045000D01*
X0189422Y0047500D01*
X0191922Y0045000D01*
X0196922Y0045000D01*
X0199422Y0047500D01*
X0201922Y0045000D01*
X0206922Y0045000D01*
X0209422Y0047500D01*
X0209422Y0052500D01*
X0206922Y0055000D01*
X0201922Y0055000D01*
X0199422Y0052500D01*
X0196922Y0055000D01*
X0191922Y0055000D01*
X0189422Y0052500D01*
X0186922Y0055000D01*
X0181922Y0055000D01*
X0179422Y0052500D01*
X0176922Y0055000D01*
D16*
X0182922Y0112325D02*
X0143747Y0151500D01*
X0181719Y0189472D01*
X0184124Y0189472D01*
X0222097Y0151500D01*
X0182922Y0112325D01*
X0103922Y0151000D02*
X0103922Y0156000D01*
X0101422Y0158500D01*
X0096422Y0158500D01*
X0093922Y0156000D01*
X0093922Y0151000D01*
X0096422Y0148500D01*
X0101422Y0148500D01*
X0103922Y0151000D01*
X0093922Y0151000D02*
X0091422Y0148500D01*
X0086422Y0148500D01*
X0083922Y0151000D01*
X0083922Y0156000D01*
X0086422Y0158500D01*
X0091422Y0158500D01*
X0093922Y0156000D01*
X0180722Y0184239D02*
X0180724Y0184332D01*
X0180730Y0184426D01*
X0180740Y0184518D01*
X0180754Y0184611D01*
X0180771Y0184702D01*
X0180793Y0184793D01*
X0180818Y0184883D01*
X0180848Y0184972D01*
X0180881Y0185059D01*
X0180917Y0185145D01*
X0180958Y0185229D01*
X0181001Y0185312D01*
X0181049Y0185392D01*
X0181099Y0185471D01*
X0181153Y0185547D01*
X0181210Y0185621D01*
X0181271Y0185692D01*
X0181334Y0185761D01*
X0181400Y0185827D01*
X0181469Y0185890D01*
X0181540Y0185951D01*
X0181614Y0186008D01*
X0181690Y0186062D01*
X0181769Y0186112D01*
X0181849Y0186160D01*
X0181932Y0186203D01*
X0182016Y0186244D01*
X0182102Y0186280D01*
X0182189Y0186313D01*
X0182278Y0186343D01*
X0182368Y0186368D01*
X0182459Y0186390D01*
X0182550Y0186407D01*
X0182643Y0186421D01*
X0182735Y0186431D01*
X0182829Y0186437D01*
X0182922Y0186439D01*
X0183015Y0186437D01*
X0183109Y0186431D01*
X0183201Y0186421D01*
X0183294Y0186407D01*
X0183385Y0186390D01*
X0183476Y0186368D01*
X0183566Y0186343D01*
X0183655Y0186313D01*
X0183742Y0186280D01*
X0183828Y0186244D01*
X0183912Y0186203D01*
X0183995Y0186160D01*
X0184075Y0186112D01*
X0184154Y0186062D01*
X0184230Y0186008D01*
X0184304Y0185951D01*
X0184375Y0185890D01*
X0184444Y0185827D01*
X0184510Y0185761D01*
X0184573Y0185692D01*
X0184634Y0185621D01*
X0184691Y0185547D01*
X0184745Y0185471D01*
X0184795Y0185392D01*
X0184843Y0185312D01*
X0184886Y0185229D01*
X0184927Y0185145D01*
X0184963Y0185059D01*
X0184996Y0184972D01*
X0185026Y0184883D01*
X0185051Y0184793D01*
X0185073Y0184702D01*
X0185090Y0184611D01*
X0185104Y0184518D01*
X0185114Y0184426D01*
X0185120Y0184332D01*
X0185122Y0184239D01*
X0185120Y0184146D01*
X0185114Y0184052D01*
X0185104Y0183960D01*
X0185090Y0183867D01*
X0185073Y0183776D01*
X0185051Y0183685D01*
X0185026Y0183595D01*
X0184996Y0183506D01*
X0184963Y0183419D01*
X0184927Y0183333D01*
X0184886Y0183249D01*
X0184843Y0183166D01*
X0184795Y0183086D01*
X0184745Y0183007D01*
X0184691Y0182931D01*
X0184634Y0182857D01*
X0184573Y0182786D01*
X0184510Y0182717D01*
X0184444Y0182651D01*
X0184375Y0182588D01*
X0184304Y0182527D01*
X0184230Y0182470D01*
X0184154Y0182416D01*
X0184075Y0182366D01*
X0183995Y0182318D01*
X0183912Y0182275D01*
X0183828Y0182234D01*
X0183742Y0182198D01*
X0183655Y0182165D01*
X0183566Y0182135D01*
X0183476Y0182110D01*
X0183385Y0182088D01*
X0183294Y0182071D01*
X0183201Y0182057D01*
X0183109Y0182047D01*
X0183015Y0182041D01*
X0182922Y0182039D01*
X0182829Y0182041D01*
X0182735Y0182047D01*
X0182643Y0182057D01*
X0182550Y0182071D01*
X0182459Y0182088D01*
X0182368Y0182110D01*
X0182278Y0182135D01*
X0182189Y0182165D01*
X0182102Y0182198D01*
X0182016Y0182234D01*
X0181932Y0182275D01*
X0181849Y0182318D01*
X0181769Y0182366D01*
X0181690Y0182416D01*
X0181614Y0182470D01*
X0181540Y0182527D01*
X0181469Y0182588D01*
X0181400Y0182651D01*
X0181334Y0182717D01*
X0181271Y0182786D01*
X0181210Y0182857D01*
X0181153Y0182931D01*
X0181099Y0183007D01*
X0181049Y0183086D01*
X0181001Y0183166D01*
X0180958Y0183249D01*
X0180917Y0183333D01*
X0180881Y0183419D01*
X0180848Y0183506D01*
X0180818Y0183595D01*
X0180793Y0183685D01*
X0180771Y0183776D01*
X0180754Y0183867D01*
X0180740Y0183960D01*
X0180730Y0184052D01*
X0180724Y0184146D01*
X0180722Y0184239D01*
X0193922Y0197000D02*
X0204922Y0197000D01*
X0204982Y0197002D01*
X0205043Y0197007D01*
X0205102Y0197016D01*
X0205161Y0197029D01*
X0205220Y0197045D01*
X0205277Y0197065D01*
X0205332Y0197088D01*
X0205387Y0197115D01*
X0205439Y0197144D01*
X0205490Y0197177D01*
X0205539Y0197213D01*
X0205585Y0197251D01*
X0205629Y0197293D01*
X0205671Y0197337D01*
X0205709Y0197383D01*
X0205745Y0197432D01*
X0205778Y0197483D01*
X0205807Y0197535D01*
X0205834Y0197590D01*
X0205857Y0197645D01*
X0205877Y0197702D01*
X0205893Y0197761D01*
X0205906Y0197820D01*
X0205915Y0197879D01*
X0205920Y0197940D01*
X0205922Y0198000D01*
X0205922Y0204000D01*
X0205920Y0204060D01*
X0205915Y0204121D01*
X0205906Y0204180D01*
X0205893Y0204239D01*
X0205877Y0204298D01*
X0205857Y0204355D01*
X0205834Y0204410D01*
X0205807Y0204465D01*
X0205778Y0204517D01*
X0205745Y0204568D01*
X0205709Y0204617D01*
X0205671Y0204663D01*
X0205629Y0204707D01*
X0205585Y0204749D01*
X0205539Y0204787D01*
X0205490Y0204823D01*
X0205439Y0204856D01*
X0205387Y0204885D01*
X0205332Y0204912D01*
X0205277Y0204935D01*
X0205220Y0204955D01*
X0205161Y0204971D01*
X0205102Y0204984D01*
X0205043Y0204993D01*
X0204982Y0204998D01*
X0204922Y0205000D01*
X0193922Y0205000D01*
X0193862Y0204998D01*
X0193801Y0204993D01*
X0193742Y0204984D01*
X0193683Y0204971D01*
X0193624Y0204955D01*
X0193567Y0204935D01*
X0193512Y0204912D01*
X0193457Y0204885D01*
X0193405Y0204856D01*
X0193354Y0204823D01*
X0193305Y0204787D01*
X0193259Y0204749D01*
X0193215Y0204707D01*
X0193173Y0204663D01*
X0193135Y0204617D01*
X0193099Y0204568D01*
X0193066Y0204517D01*
X0193037Y0204465D01*
X0193010Y0204410D01*
X0192987Y0204355D01*
X0192967Y0204298D01*
X0192951Y0204239D01*
X0192938Y0204180D01*
X0192929Y0204121D01*
X0192924Y0204060D01*
X0192922Y0204000D01*
X0192922Y0198000D01*
X0192924Y0197940D01*
X0192929Y0197879D01*
X0192938Y0197820D01*
X0192951Y0197761D01*
X0192967Y0197702D01*
X0192987Y0197645D01*
X0193010Y0197590D01*
X0193037Y0197535D01*
X0193066Y0197483D01*
X0193099Y0197432D01*
X0193135Y0197383D01*
X0193173Y0197337D01*
X0193215Y0197293D01*
X0193259Y0197251D01*
X0193305Y0197213D01*
X0193354Y0197177D01*
X0193405Y0197144D01*
X0193457Y0197115D01*
X0193512Y0197088D01*
X0193567Y0197065D01*
X0193624Y0197045D01*
X0193683Y0197029D01*
X0193742Y0197016D01*
X0193801Y0197007D01*
X0193862Y0197002D01*
X0193922Y0197000D01*
M02*
