%
M48
M72
T01C0.01200
T02C0.01378
T03C0.02000
T04C0.03150
T05C0.03500
T06C0.03937
T07C0.12598
%
T01
X204422Y66500
T02
X214422Y63972
X201422Y73000
X193422Y81500
X189422Y81500
X185422Y81500
X185422Y85500
X189422Y86000
X193422Y85500
X193422Y89500
X189422Y89500
X185422Y89500
X176922Y97000
X180922Y102393
X201922Y102500
X201422Y97000
X214422Y91500
X177422Y73000
X174422Y66500
X156422Y59000
X148922Y65500
X148922Y85000
X150422Y91000
X147422Y99000
X160922Y106000
X156922Y120000
X184922Y115500
X186922Y119000
X189922Y125000
X197244Y131500
X200422Y132500
X207422Y138000
X203922Y140340
X216020Y146897
X218922Y150000
X208922Y161500
X205920Y164502
X202917Y167504
X224922Y173500
X227922Y169500
X238422Y148000
X212611Y126000
X197922Y117000
X177422Y139000
X175922Y143577
X172922Y146422
X169922Y148611
X160922Y145000
X155422Y145500
X153922Y154500
X164922Y154211
X153422Y173500
X150099Y179677
X170922Y189500
X175422Y192019
X182984Y199000
X176746Y182175
X176922Y176000
X180422Y174500
X117828Y153593
X128422Y125000
T03
X238422Y138772
X238422Y110228
T04
X227674Y114953
X227674Y134047
X129493Y89429
X122422Y96500
X115351Y103571
T05
X118422Y135500
X128422Y135500
X138422Y135500
X98422Y153500
X88422Y153500
X174422Y51000
X184422Y51000
X194422Y51000
X204422Y51000
T06
X168422Y205500
X158422Y205500
X148422Y205500
X138422Y205500
X128422Y205500
X118422Y205500
T07
X102398Y66476
X224445Y66476
X224445Y188524
X102398Y188524
M30
