G75*
%MOIN*%
%OFA0B0*%
%FSLAX25Y25*%
%IPPOS*%
%LPD*%
%AMOC8*
5,1,8,0,0,1.08239X$1,22.5*
%
%ADD10C,0.02000*%
%ADD11C,0.00500*%
%ADD12C,0.00200*%
D10*
X0236965Y0110228D02*
X0239965Y0110228D01*
X0239965Y0138772D02*
X0236965Y0138772D01*
D11*
X0244922Y0139000D02*
X0245422Y0139500D01*
X0244922Y0139000D02*
X0245422Y0138500D01*
X0244922Y0139000D02*
X0246922Y0139000D01*
X0246922Y0110500D01*
X0244922Y0110500D01*
X0245422Y0111000D01*
X0244922Y0110500D02*
X0245422Y0110000D01*
D12*
X0248388Y0110834D02*
X0248388Y0111534D01*
X0248855Y0111301D02*
X0248855Y0110834D01*
X0248621Y0110600D01*
X0248388Y0110834D01*
X0248855Y0111301D02*
X0249088Y0111534D01*
X0249322Y0111301D01*
X0249322Y0110600D01*
X0249322Y0112073D02*
X0249322Y0112540D01*
X0249322Y0112307D02*
X0247921Y0112307D01*
X0247921Y0112073D01*
X0248621Y0113055D02*
X0249088Y0113055D01*
X0249322Y0113289D01*
X0249322Y0113756D01*
X0249088Y0113990D01*
X0248621Y0113990D01*
X0248388Y0113756D01*
X0248388Y0113289D01*
X0248621Y0113055D01*
X0248388Y0114529D02*
X0248388Y0114996D01*
X0248154Y0114762D02*
X0249088Y0114762D01*
X0249322Y0114996D01*
X0249088Y0116984D02*
X0248621Y0116984D01*
X0248388Y0117218D01*
X0248388Y0117918D01*
X0247921Y0117918D02*
X0249322Y0117918D01*
X0249322Y0117218D01*
X0249088Y0116984D01*
X0248855Y0118457D02*
X0248388Y0118924D01*
X0248388Y0119158D01*
X0248388Y0119685D02*
X0248388Y0119919D01*
X0249322Y0119919D01*
X0249322Y0120152D02*
X0249322Y0119685D01*
X0249322Y0120667D02*
X0249322Y0121134D01*
X0249322Y0120901D02*
X0247921Y0120901D01*
X0247921Y0120667D01*
X0247921Y0119919D02*
X0247687Y0119919D01*
X0248388Y0118457D02*
X0249322Y0118457D01*
X0249322Y0121649D02*
X0249322Y0122116D01*
X0249322Y0121883D02*
X0247921Y0121883D01*
X0247921Y0121649D01*
X0248621Y0122632D02*
X0248388Y0122865D01*
X0248388Y0123566D01*
X0248855Y0123332D02*
X0249088Y0123566D01*
X0249322Y0123332D01*
X0249322Y0122632D01*
X0248855Y0122865D02*
X0248621Y0122632D01*
X0248855Y0122865D02*
X0248855Y0123332D01*
X0249088Y0125578D02*
X0249322Y0125812D01*
X0249088Y0126045D01*
X0249322Y0126279D01*
X0249088Y0126512D01*
X0248388Y0126512D01*
X0248388Y0127051D02*
X0248388Y0127285D01*
X0249322Y0127285D01*
X0249322Y0127518D02*
X0249322Y0127051D01*
X0249088Y0128267D02*
X0249322Y0128501D01*
X0249088Y0128267D02*
X0248154Y0128267D01*
X0248388Y0128034D02*
X0248388Y0128501D01*
X0248621Y0129016D02*
X0248388Y0129249D01*
X0248388Y0129716D01*
X0248621Y0129950D01*
X0249322Y0129950D01*
X0249322Y0129016D02*
X0247921Y0129016D01*
X0247921Y0127285D02*
X0247687Y0127285D01*
X0248388Y0125578D02*
X0249088Y0125578D01*
X0249088Y0131962D02*
X0249322Y0132196D01*
X0249322Y0132896D01*
X0249088Y0133435D02*
X0249322Y0133669D01*
X0249322Y0134136D01*
X0249088Y0134370D01*
X0248621Y0134370D01*
X0248388Y0134136D01*
X0248388Y0133669D01*
X0248621Y0133435D01*
X0249088Y0133435D01*
X0248388Y0132896D02*
X0248388Y0132196D01*
X0248621Y0131962D01*
X0249088Y0131962D01*
X0249322Y0134909D02*
X0249322Y0135609D01*
X0249088Y0135843D01*
X0248621Y0135843D01*
X0248388Y0135609D01*
X0248388Y0134909D01*
X0249789Y0134909D01*
X0249789Y0136382D02*
X0248388Y0136382D01*
X0248388Y0137083D01*
X0248621Y0137316D01*
X0249088Y0137316D01*
X0249322Y0137083D01*
X0249322Y0136382D01*
X0249088Y0137855D02*
X0248621Y0137855D01*
X0248388Y0138089D01*
X0248388Y0138556D01*
X0248621Y0138789D01*
X0248855Y0138789D01*
X0248855Y0137855D01*
X0249088Y0137855D02*
X0249322Y0138089D01*
X0249322Y0138556D01*
X0249322Y0139328D02*
X0248388Y0139328D01*
X0248855Y0139328D02*
X0248388Y0139796D01*
X0248388Y0140029D01*
M02*
