G75*
%MOIN*%
%OFA0B0*%
%FSLAX25Y25*%
%IPPOS*%
%LPD*%
%AMOC8*
5,1,8,0,0,1.08239X$1,22.5*
%
%ADD10C,0.12998*%
%ADD11C,0.06306*%
%ADD12C,0.05124*%
%ADD13R,0.05321X0.04337*%
%ADD14R,0.01600X0.04300*%
%ADD15C,0.01184*%
%ADD16C,0.01100*%
%ADD17C,0.04400*%
%ADD18R,0.06900X0.06900*%
%ADD19C,0.06900*%
%ADD20R,0.01778X0.06306*%
D10*
X0102398Y0066476D03*
X0224445Y0066476D03*
X0224445Y0188524D03*
X0102398Y0188524D03*
D11*
X0118422Y0205500D03*
X0128422Y0205500D03*
X0138422Y0205500D03*
X0148422Y0205500D03*
X0158422Y0205500D03*
X0168422Y0205500D03*
D12*
X0227674Y0134047D03*
X0227674Y0114953D03*
X0129493Y0089429D03*
X0122422Y0096500D03*
X0115351Y0103571D03*
D13*
G36*
X0168681Y0188499D02*
X0164921Y0192259D01*
X0167987Y0195325D01*
X0171747Y0191565D01*
X0168681Y0188499D01*
G37*
G36*
X0172857Y0192675D02*
X0169097Y0196435D01*
X0172163Y0199501D01*
X0175923Y0195741D01*
X0172857Y0192675D01*
G37*
D14*
X0171099Y0138987D03*
X0168540Y0138987D03*
X0165981Y0138987D03*
X0163422Y0138987D03*
X0160863Y0138987D03*
X0158304Y0138987D03*
X0155745Y0138987D03*
X0155745Y0116013D03*
X0158304Y0116013D03*
X0160863Y0116013D03*
X0163422Y0116013D03*
X0165981Y0116013D03*
X0168540Y0116013D03*
X0171099Y0116013D03*
D15*
X0161835Y0110908D02*
X0160651Y0110908D01*
X0160651Y0112092D01*
X0161835Y0112092D01*
X0161835Y0110908D01*
X0161835Y0112091D02*
X0160651Y0112091D01*
X0158193Y0110908D02*
X0157009Y0110908D01*
X0157009Y0112092D01*
X0158193Y0112092D01*
X0158193Y0110908D01*
X0158193Y0112091D02*
X0157009Y0112091D01*
X0183134Y0117375D02*
X0183971Y0118212D01*
X0183134Y0117375D02*
X0182297Y0118212D01*
X0183134Y0119049D01*
X0183971Y0118212D01*
X0183625Y0118558D02*
X0182643Y0118558D01*
X0185709Y0119951D02*
X0186546Y0120788D01*
X0185709Y0119951D02*
X0184872Y0120788D01*
X0185709Y0121625D01*
X0186546Y0120788D01*
X0186200Y0121134D02*
X0185218Y0121134D01*
X0214634Y0148375D02*
X0215471Y0149212D01*
X0214634Y0148375D02*
X0213797Y0149212D01*
X0214634Y0150049D01*
X0215471Y0149212D01*
X0215125Y0149558D02*
X0214143Y0149558D01*
X0217209Y0150951D02*
X0218046Y0151788D01*
X0217209Y0150951D02*
X0216372Y0151788D01*
X0217209Y0152625D01*
X0218046Y0151788D01*
X0217700Y0152134D02*
X0216718Y0152134D01*
X0206709Y0158375D02*
X0205872Y0159212D01*
X0206709Y0160049D01*
X0207546Y0159212D01*
X0206709Y0158375D01*
X0207200Y0159558D02*
X0206218Y0159558D01*
X0204134Y0160951D02*
X0203297Y0161788D01*
X0204134Y0162625D01*
X0204971Y0161788D01*
X0204134Y0160951D01*
X0204625Y0162134D02*
X0203643Y0162134D01*
X0200797Y0159288D02*
X0201634Y0158451D01*
X0200797Y0159288D02*
X0201634Y0160125D01*
X0202471Y0159288D01*
X0201634Y0158451D01*
X0202125Y0159634D02*
X0201143Y0159634D01*
X0198297Y0156788D02*
X0199134Y0155951D01*
X0198297Y0156788D02*
X0199134Y0157625D01*
X0199971Y0156788D01*
X0199134Y0155951D01*
X0199625Y0157134D02*
X0198643Y0157134D01*
X0200872Y0154212D02*
X0201709Y0153375D01*
X0200872Y0154212D02*
X0201709Y0155049D01*
X0202546Y0154212D01*
X0201709Y0153375D01*
X0202200Y0154558D02*
X0201218Y0154558D01*
X0203372Y0156712D02*
X0204209Y0155875D01*
X0203372Y0156712D02*
X0204209Y0157549D01*
X0205046Y0156712D01*
X0204209Y0155875D01*
X0204700Y0157058D02*
X0203718Y0157058D01*
X0158335Y0170592D02*
X0157151Y0170592D01*
X0158335Y0170592D02*
X0158335Y0169408D01*
X0157151Y0169408D01*
X0157151Y0170592D01*
X0157151Y0170591D02*
X0158335Y0170591D01*
X0154693Y0170592D02*
X0153509Y0170592D01*
X0154693Y0170592D02*
X0154693Y0169408D01*
X0153509Y0169408D01*
X0153509Y0170592D01*
X0153509Y0170591D02*
X0154693Y0170591D01*
X0154193Y0185092D02*
X0153009Y0185092D01*
X0154193Y0185092D02*
X0154193Y0183908D01*
X0153009Y0183908D01*
X0153009Y0185092D01*
X0153009Y0185091D02*
X0154193Y0185091D01*
X0156651Y0185092D02*
X0157835Y0185092D01*
X0157835Y0183908D01*
X0156651Y0183908D01*
X0156651Y0185092D01*
X0156651Y0185091D02*
X0157835Y0185091D01*
X0163134Y0184875D02*
X0163971Y0185712D01*
X0163134Y0184875D02*
X0162297Y0185712D01*
X0163134Y0186549D01*
X0163971Y0185712D01*
X0163625Y0186058D02*
X0162643Y0186058D01*
X0165709Y0187451D02*
X0166546Y0188288D01*
X0165709Y0187451D02*
X0164872Y0188288D01*
X0165709Y0189125D01*
X0166546Y0188288D01*
X0166200Y0188634D02*
X0165218Y0188634D01*
X0179709Y0197049D02*
X0180546Y0196212D01*
X0179709Y0195375D01*
X0178872Y0196212D01*
X0179709Y0197049D01*
X0180200Y0196558D02*
X0179218Y0196558D01*
X0177971Y0198788D02*
X0177134Y0199625D01*
X0177971Y0198788D02*
X0177134Y0197951D01*
X0176297Y0198788D01*
X0177134Y0199625D01*
X0177625Y0199134D02*
X0176643Y0199134D01*
X0122514Y0171913D02*
X0122514Y0170729D01*
X0121330Y0170729D01*
X0121330Y0171913D01*
X0122514Y0171913D01*
X0122514Y0171912D02*
X0121330Y0171912D01*
X0122514Y0168271D02*
X0122514Y0167087D01*
X0121330Y0167087D01*
X0121330Y0168271D01*
X0122514Y0168271D01*
X0122514Y0168270D02*
X0121330Y0168270D01*
D16*
X0194154Y0156985D02*
X0196487Y0159318D01*
X0194154Y0156985D02*
X0190407Y0160732D01*
X0192740Y0163065D01*
X0196487Y0159318D01*
X0195253Y0158084D02*
X0193055Y0158084D01*
X0191956Y0159183D02*
X0196352Y0159183D01*
X0195523Y0160282D02*
X0190857Y0160282D01*
X0191056Y0161381D02*
X0194424Y0161381D01*
X0193325Y0162480D02*
X0192155Y0162480D01*
X0199104Y0161935D02*
X0201437Y0164268D01*
X0199104Y0161935D02*
X0195357Y0165682D01*
X0197690Y0168015D01*
X0201437Y0164268D01*
X0200203Y0163034D02*
X0198005Y0163034D01*
X0196906Y0164133D02*
X0201302Y0164133D01*
X0200473Y0165232D02*
X0195807Y0165232D01*
X0196006Y0166331D02*
X0199374Y0166331D01*
X0198275Y0167430D02*
X0197105Y0167430D01*
D17*
X0236422Y0138772D02*
X0240422Y0138772D01*
X0240422Y0110228D02*
X0236422Y0110228D01*
D18*
X0204422Y0051000D03*
X0118422Y0135500D03*
X0088422Y0153500D03*
D19*
X0098422Y0153500D03*
X0128422Y0135500D03*
X0138422Y0135500D03*
X0174422Y0051000D03*
X0184422Y0051000D03*
X0194422Y0051000D03*
D20*
X0149437Y0165933D03*
X0146878Y0165933D03*
X0144319Y0165933D03*
X0141760Y0165933D03*
X0139201Y0165933D03*
X0136642Y0165933D03*
X0134083Y0165933D03*
X0131524Y0165933D03*
X0128965Y0165933D03*
X0126406Y0165933D03*
X0126465Y0190067D03*
X0129024Y0190067D03*
X0131583Y0190067D03*
X0134142Y0190067D03*
X0136642Y0190067D03*
X0139201Y0190067D03*
X0141760Y0190067D03*
X0144319Y0190067D03*
X0146878Y0190067D03*
X0149437Y0190067D03*
M02*
