G75*
%MOIN*%
%OFA0B0*%
%FSLAX25Y25*%
%IPPOS*%
%LPD*%
%AMOC8*
5,1,8,0,0,1.08239X$1,22.5*
%
%ADD10R,0.01969X0.01969*%
%ADD11R,0.07400X0.07400*%
%ADD12C,0.07400*%
%ADD13R,0.01969X0.01969*%
%ADD14C,0.03543*%
%ADD15R,0.01200X0.03900*%
%ADD16C,0.05906*%
%ADD17C,0.06000*%
%ADD18C,0.04724*%
%ADD19C,0.00875*%
%ADD20C,0.01600*%
%ADD21C,0.02578*%
%ADD22C,0.00600*%
%ADD23R,0.02578X0.02578*%
%ADD24C,0.02400*%
D10*
G36*
X0181139Y0118108D02*
X0182530Y0119499D01*
X0183921Y0118108D01*
X0182530Y0116717D01*
X0181139Y0118108D01*
G37*
G36*
X0183923Y0120892D02*
X0185314Y0122283D01*
X0186705Y0120892D01*
X0185314Y0119501D01*
X0183923Y0120892D01*
G37*
G36*
X0212639Y0149108D02*
X0214030Y0150499D01*
X0215421Y0149108D01*
X0214030Y0147717D01*
X0212639Y0149108D01*
G37*
G36*
X0215423Y0151892D02*
X0216814Y0153283D01*
X0218205Y0151892D01*
X0216814Y0150501D01*
X0215423Y0151892D01*
G37*
G36*
X0206814Y0160499D02*
X0208205Y0159108D01*
X0206814Y0157717D01*
X0205423Y0159108D01*
X0206814Y0160499D01*
G37*
G36*
X0204030Y0163283D02*
X0205421Y0161892D01*
X0204030Y0160501D01*
X0202639Y0161892D01*
X0204030Y0163283D01*
G37*
G36*
X0201030Y0160283D02*
X0202421Y0158892D01*
X0201030Y0157501D01*
X0199639Y0158892D01*
X0201030Y0160283D01*
G37*
G36*
X0203814Y0157499D02*
X0205205Y0156108D01*
X0203814Y0154717D01*
X0202423Y0156108D01*
X0203814Y0157499D01*
G37*
G36*
X0198030Y0157283D02*
X0199421Y0155892D01*
X0198030Y0154501D01*
X0196639Y0155892D01*
X0198030Y0157283D01*
G37*
G36*
X0200814Y0154499D02*
X0202205Y0153108D01*
X0200814Y0151717D01*
X0199423Y0153108D01*
X0200814Y0154499D01*
G37*
G36*
X0171705Y0171892D02*
X0170314Y0170501D01*
X0168923Y0171892D01*
X0170314Y0173283D01*
X0171705Y0171892D01*
G37*
G36*
X0168921Y0169108D02*
X0167530Y0167717D01*
X0166139Y0169108D01*
X0167530Y0170499D01*
X0168921Y0169108D01*
G37*
D11*
X0174422Y0050000D03*
D12*
X0184422Y0050000D03*
X0194422Y0050000D03*
X0204422Y0050000D03*
X0138422Y0135500D03*
X0128422Y0135500D03*
X0118422Y0135500D03*
D13*
X0156953Y0110500D03*
X0160890Y0110500D03*
X0157390Y0164500D03*
X0153453Y0164500D03*
X0154453Y0187500D03*
X0158390Y0187500D03*
D14*
X0237556Y0137386D02*
X0237556Y0137386D01*
X0240312Y0137386D01*
X0240312Y0137386D01*
X0237556Y0137386D01*
X0237556Y0111402D02*
X0237556Y0111402D01*
X0240312Y0111402D01*
X0240312Y0111402D01*
X0237556Y0111402D01*
D15*
X0171099Y0116013D03*
X0168540Y0116013D03*
X0165981Y0116013D03*
X0163422Y0116013D03*
X0160863Y0116013D03*
X0158304Y0116013D03*
X0155745Y0116013D03*
X0155745Y0138987D03*
X0158304Y0138987D03*
X0160863Y0138987D03*
X0163422Y0138987D03*
X0165981Y0138987D03*
X0168540Y0138987D03*
X0171099Y0138987D03*
X0150099Y0164513D03*
X0147540Y0164513D03*
X0144981Y0164513D03*
X0142422Y0164513D03*
X0139863Y0164513D03*
X0137304Y0164513D03*
X0134745Y0164513D03*
X0134745Y0187487D03*
X0137304Y0187487D03*
X0139863Y0187487D03*
X0142422Y0187487D03*
X0144981Y0187487D03*
X0147540Y0187487D03*
X0150099Y0187487D03*
D16*
X0148422Y0205500D03*
X0158422Y0205500D03*
X0168422Y0205500D03*
X0138422Y0205500D03*
X0128422Y0205500D03*
X0118422Y0205500D03*
D17*
X0098922Y0156500D02*
X0098922Y0150500D01*
X0088922Y0150500D02*
X0088922Y0156500D01*
D18*
X0115351Y0103571D03*
X0122422Y0096500D03*
X0129493Y0089429D03*
D19*
X0195300Y0158023D02*
X0197156Y0159879D01*
X0195300Y0158023D02*
X0193444Y0159879D01*
X0195300Y0161735D01*
X0197156Y0159879D01*
X0196174Y0158897D02*
X0194426Y0158897D01*
X0193552Y0159771D02*
X0197048Y0159771D01*
X0196390Y0160645D02*
X0194210Y0160645D01*
X0195084Y0161519D02*
X0195516Y0161519D01*
X0199543Y0162265D02*
X0201399Y0164121D01*
X0199543Y0162265D02*
X0197687Y0164121D01*
X0199543Y0165977D01*
X0201399Y0164121D01*
X0200417Y0163139D02*
X0198669Y0163139D01*
X0197795Y0164013D02*
X0201291Y0164013D01*
X0200633Y0164887D02*
X0198453Y0164887D01*
X0199327Y0165761D02*
X0199759Y0165761D01*
D20*
X0138422Y0135500D02*
X0138422Y0112000D01*
X0151672Y0098750D01*
X0177422Y0073000D01*
X0201422Y0073000D01*
X0204422Y0066500D02*
X0204422Y0050000D01*
X0174422Y0050000D02*
X0174422Y0066500D01*
X0150422Y0091000D02*
X0128422Y0113000D01*
X0128422Y0135500D01*
X0147422Y0099000D02*
X0151422Y0099000D01*
X0176922Y0097000D02*
X0201422Y0097000D01*
D21*
X0201422Y0097000D03*
X0201922Y0102500D03*
X0193422Y0089500D03*
X0189422Y0089500D03*
X0185422Y0089500D03*
X0185422Y0085500D03*
X0189422Y0086000D03*
X0193422Y0085500D03*
X0193422Y0081500D03*
X0189422Y0081500D03*
X0185422Y0081500D03*
X0177422Y0073000D03*
X0174422Y0066500D03*
X0156422Y0059000D03*
X0148922Y0065500D03*
X0148922Y0085000D03*
X0150422Y0091000D03*
X0147422Y0099000D03*
X0176922Y0097000D03*
X0184922Y0115500D03*
X0186922Y0119000D03*
X0189922Y0125000D03*
X0197244Y0131500D03*
X0200422Y0132500D03*
X0207422Y0138000D03*
X0203922Y0140340D03*
X0212611Y0126000D03*
X0197922Y0117000D03*
X0156922Y0120000D03*
X0172922Y0146422D03*
X0169922Y0148611D03*
X0164922Y0154211D03*
X0162422Y0162189D03*
X0164922Y0169500D03*
X0153422Y0173500D03*
X0150099Y0179677D03*
X0131422Y0186500D03*
X0182874Y0180952D03*
X0187552Y0179500D03*
X0224922Y0173500D03*
X0154422Y0154211D03*
X0117828Y0153593D03*
X0201422Y0073000D03*
D22*
X0135922Y0060561D02*
X0109091Y0060561D01*
X0109690Y0059963D02*
X0135922Y0059963D01*
X0135922Y0059364D02*
X0110288Y0059364D01*
X0110887Y0058766D02*
X0135922Y0058766D01*
X0135922Y0058167D02*
X0111485Y0058167D01*
X0112084Y0057569D02*
X0135922Y0057569D01*
X0135922Y0056970D02*
X0112682Y0056970D01*
X0113281Y0056372D02*
X0135922Y0056372D01*
X0135922Y0055773D02*
X0113879Y0055773D01*
X0114478Y0055175D02*
X0135922Y0055175D01*
X0135922Y0054576D02*
X0115076Y0054576D01*
X0115675Y0053978D02*
X0135922Y0053978D01*
X0135922Y0053379D02*
X0116273Y0053379D01*
X0116872Y0052781D02*
X0135922Y0052781D01*
X0135922Y0052182D02*
X0117470Y0052182D01*
X0118069Y0051584D02*
X0135922Y0051584D01*
X0135922Y0050985D02*
X0118667Y0050985D01*
X0119266Y0050387D02*
X0135922Y0050387D01*
X0135922Y0049788D02*
X0119864Y0049788D01*
X0120463Y0049190D02*
X0135922Y0049190D01*
X0135922Y0048591D02*
X0121061Y0048591D01*
X0121660Y0047993D02*
X0135922Y0047993D01*
X0135922Y0047394D02*
X0122258Y0047394D01*
X0122857Y0046796D02*
X0135922Y0046796D01*
X0135922Y0046300D02*
X0123352Y0046300D01*
X0108160Y0061492D01*
X0108840Y0062172D01*
X0109997Y0064965D01*
X0109997Y0067988D01*
X0108840Y0070781D01*
X0106703Y0072919D01*
X0103910Y0074076D01*
X0100887Y0074076D01*
X0098094Y0072919D01*
X0097414Y0072239D01*
X0082222Y0087431D01*
X0082222Y0167569D01*
X0093527Y0178875D01*
X0094357Y0178045D01*
X0097344Y0176321D01*
X0100674Y0175428D01*
X0104122Y0175428D01*
X0107453Y0176321D01*
X0110439Y0178045D01*
X0112877Y0180483D01*
X0114601Y0183469D01*
X0115493Y0186800D01*
X0115493Y0190248D01*
X0114601Y0193578D01*
X0112877Y0196564D01*
X0112047Y0197394D01*
X0116697Y0202044D01*
X0117222Y0201827D01*
X0117222Y0198003D01*
X0117925Y0197300D01*
X0122222Y0193003D01*
X0122925Y0192300D01*
X0135925Y0192300D01*
X0137887Y0190337D01*
X0136331Y0190337D01*
X0136024Y0190031D01*
X0135717Y0190337D01*
X0133772Y0190337D01*
X0133245Y0189810D01*
X0133245Y0188687D01*
X0132931Y0188687D01*
X0132919Y0188700D01*
X0131925Y0188700D01*
X0131914Y0188689D01*
X0130515Y0188689D01*
X0129233Y0187407D01*
X0129233Y0185593D01*
X0130515Y0184311D01*
X0132328Y0184311D01*
X0133245Y0185227D01*
X0133245Y0185165D01*
X0133772Y0184637D01*
X0135717Y0184637D01*
X0136024Y0184944D01*
X0136331Y0184637D01*
X0138276Y0184637D01*
X0138583Y0184944D01*
X0138890Y0184637D01*
X0140835Y0184637D01*
X0141142Y0184944D01*
X0141449Y0184637D01*
X0143395Y0184637D01*
X0143701Y0184944D01*
X0144008Y0184637D01*
X0145954Y0184637D01*
X0146260Y0184944D01*
X0146567Y0184637D01*
X0148513Y0184637D01*
X0148819Y0184944D01*
X0148899Y0184865D01*
X0148899Y0181573D01*
X0147910Y0180584D01*
X0147910Y0178770D01*
X0149192Y0177488D01*
X0151006Y0177488D01*
X0152288Y0178770D01*
X0152288Y0180584D01*
X0151299Y0181573D01*
X0151299Y0184865D01*
X0151599Y0185165D01*
X0151599Y0186300D01*
X0152569Y0186300D01*
X0152569Y0186143D01*
X0153096Y0185616D01*
X0155810Y0185616D01*
X0156200Y0186005D01*
X0156366Y0185718D01*
X0156608Y0185475D01*
X0156904Y0185304D01*
X0157235Y0185216D01*
X0158198Y0185216D01*
X0158198Y0187308D01*
X0158582Y0187308D01*
X0158582Y0185216D01*
X0159546Y0185216D01*
X0159876Y0185304D01*
X0160173Y0185475D01*
X0160415Y0185718D01*
X0160586Y0186014D01*
X0160674Y0186345D01*
X0160674Y0187308D01*
X0158582Y0187308D01*
X0158582Y0187692D01*
X0158198Y0187692D01*
X0158198Y0189784D01*
X0157235Y0189784D01*
X0156904Y0189696D01*
X0156608Y0189524D01*
X0156366Y0189282D01*
X0156200Y0188995D01*
X0155810Y0189384D01*
X0153096Y0189384D01*
X0152569Y0188857D01*
X0152569Y0188700D01*
X0151599Y0188700D01*
X0151599Y0189810D01*
X0151072Y0190337D01*
X0149126Y0190337D01*
X0148819Y0190031D01*
X0148622Y0190228D01*
X0148622Y0194503D01*
X0148919Y0194800D01*
X0149622Y0195503D01*
X0149622Y0201827D01*
X0150604Y0202234D01*
X0151688Y0203318D01*
X0152274Y0204734D01*
X0152274Y0206266D01*
X0151688Y0207682D01*
X0150670Y0208700D01*
X0156173Y0208700D01*
X0155156Y0207682D01*
X0154569Y0206266D01*
X0154569Y0204734D01*
X0155156Y0203318D01*
X0156239Y0202234D01*
X0157222Y0201827D01*
X0157222Y0199003D01*
X0159222Y0197003D01*
X0159925Y0196300D01*
X0165829Y0196300D01*
X0177765Y0184364D01*
X0175085Y0184364D01*
X0174557Y0183837D01*
X0174557Y0180514D01*
X0175085Y0179986D01*
X0177238Y0179986D01*
X0180222Y0177003D01*
X0180222Y0161200D01*
X0164528Y0161200D01*
X0164611Y0161282D01*
X0164611Y0163096D01*
X0163328Y0164378D01*
X0161515Y0164378D01*
X0160526Y0163389D01*
X0159674Y0163389D01*
X0159674Y0164308D01*
X0157582Y0164308D01*
X0157582Y0164692D01*
X0157198Y0164692D01*
X0157198Y0166784D01*
X0156235Y0166784D01*
X0155904Y0166696D01*
X0155608Y0166524D01*
X0155366Y0166282D01*
X0155200Y0165995D01*
X0154810Y0166384D01*
X0152096Y0166384D01*
X0151599Y0165887D01*
X0151599Y0166835D01*
X0151299Y0167135D01*
X0151299Y0169680D01*
X0152930Y0171311D01*
X0154328Y0171311D01*
X0155611Y0172593D01*
X0155611Y0174407D01*
X0154328Y0175689D01*
X0152515Y0175689D01*
X0151233Y0174407D01*
X0151233Y0173008D01*
X0148899Y0170674D01*
X0148899Y0167135D01*
X0148819Y0167056D01*
X0148513Y0167363D01*
X0146567Y0167363D01*
X0146260Y0167056D01*
X0145954Y0167363D01*
X0144008Y0167363D01*
X0143701Y0167056D01*
X0143395Y0167363D01*
X0141449Y0167363D01*
X0141142Y0167056D01*
X0140835Y0167363D01*
X0138890Y0167363D01*
X0138583Y0167056D01*
X0138276Y0167363D01*
X0136331Y0167363D01*
X0136307Y0167339D01*
X0136143Y0167503D01*
X0135846Y0167674D01*
X0135516Y0167763D01*
X0134745Y0167763D01*
X0134745Y0164513D01*
X0134745Y0164513D01*
X0134745Y0167763D01*
X0133973Y0167763D01*
X0133643Y0167674D01*
X0133346Y0167503D01*
X0133104Y0167261D01*
X0132933Y0166964D01*
X0132845Y0166634D01*
X0132845Y0164513D01*
X0134744Y0164513D01*
X0134744Y0164513D01*
X0132845Y0164513D01*
X0132845Y0162391D01*
X0132933Y0162061D01*
X0133104Y0161764D01*
X0133346Y0161522D01*
X0133643Y0161351D01*
X0133973Y0161263D01*
X0134745Y0161263D01*
X0135516Y0161263D01*
X0135846Y0161351D01*
X0136143Y0161522D01*
X0136307Y0161687D01*
X0136331Y0161663D01*
X0138276Y0161663D01*
X0138583Y0161969D01*
X0138890Y0161663D01*
X0139062Y0161663D01*
X0144822Y0155903D01*
X0145525Y0155200D01*
X0152315Y0155200D01*
X0152233Y0155118D01*
X0152233Y0153304D01*
X0153515Y0152022D01*
X0155328Y0152022D01*
X0156317Y0153011D01*
X0163026Y0153011D01*
X0164015Y0152022D01*
X0165828Y0152022D01*
X0167111Y0153304D01*
X0167111Y0155118D01*
X0167028Y0155200D01*
X0178933Y0155200D01*
X0196044Y0138090D01*
X0196044Y0133396D01*
X0195055Y0132407D01*
X0195055Y0130593D01*
X0196337Y0129311D01*
X0198150Y0129311D01*
X0199333Y0130493D01*
X0199515Y0130311D01*
X0201328Y0130311D01*
X0202611Y0131593D01*
X0202611Y0133407D01*
X0201622Y0134396D01*
X0201622Y0136951D01*
X0205375Y0136951D01*
X0206515Y0135811D01*
X0208328Y0135811D01*
X0209611Y0137093D01*
X0209611Y0138907D01*
X0208328Y0140189D01*
X0206515Y0140189D01*
X0206111Y0139785D01*
X0206111Y0141247D01*
X0205558Y0141800D01*
X0206925Y0141800D01*
X0211411Y0137314D01*
X0211411Y0127896D01*
X0210422Y0126907D01*
X0210422Y0125093D01*
X0211704Y0123811D01*
X0213517Y0123811D01*
X0214800Y0125093D01*
X0214800Y0126907D01*
X0213811Y0127896D01*
X0213811Y0138308D01*
X0207919Y0144200D01*
X0200116Y0144200D01*
X0182622Y0161694D01*
X0182622Y0177997D01*
X0181919Y0178700D01*
X0178935Y0181683D01*
X0178935Y0183194D01*
X0180685Y0181444D01*
X0180685Y0180045D01*
X0181967Y0178763D01*
X0183781Y0178763D01*
X0185063Y0180045D01*
X0185063Y0180292D01*
X0185363Y0179992D01*
X0185363Y0178593D01*
X0186645Y0177311D01*
X0188459Y0177311D01*
X0189741Y0178593D01*
X0189741Y0180407D01*
X0188459Y0181689D01*
X0187060Y0181689D01*
X0169622Y0199127D01*
X0169622Y0201827D01*
X0170604Y0202234D01*
X0171688Y0203318D01*
X0172274Y0204734D01*
X0172274Y0206266D01*
X0171688Y0207682D01*
X0170670Y0208700D01*
X0203491Y0208700D01*
X0214797Y0197394D01*
X0213967Y0196564D01*
X0212243Y0193578D01*
X0211350Y0190248D01*
X0211350Y0186800D01*
X0212243Y0183469D01*
X0213967Y0180483D01*
X0216405Y0178045D01*
X0219391Y0176321D01*
X0222721Y0175428D01*
X0223754Y0175428D01*
X0222733Y0174407D01*
X0222733Y0172593D01*
X0224015Y0171311D01*
X0225828Y0171311D01*
X0226817Y0172300D01*
X0228425Y0172300D01*
X0229222Y0171503D01*
X0229222Y0165781D01*
X0217406Y0153965D01*
X0217186Y0154184D01*
X0216441Y0154184D01*
X0214522Y0152265D01*
X0214522Y0151714D01*
X0214201Y0151800D01*
X0213859Y0151800D01*
X0213528Y0151711D01*
X0213232Y0151540D01*
X0212550Y0150859D01*
X0214030Y0149380D01*
X0213758Y0149108D01*
X0214030Y0148836D01*
X0214302Y0149108D01*
X0215781Y0147629D01*
X0216462Y0148310D01*
X0216633Y0148606D01*
X0216722Y0148937D01*
X0216722Y0149279D01*
X0216636Y0149600D01*
X0216733Y0149600D01*
X0216733Y0148338D01*
X0217260Y0147811D01*
X0220584Y0147811D01*
X0221111Y0148338D01*
X0221111Y0151662D01*
X0220584Y0152189D01*
X0219106Y0152189D01*
X0219106Y0152265D01*
X0219103Y0152268D01*
X0231622Y0164787D01*
X0231622Y0172497D01*
X0230919Y0173200D01*
X0230919Y0173200D01*
X0230122Y0173997D01*
X0229419Y0174700D01*
X0226817Y0174700D01*
X0226089Y0175428D01*
X0226169Y0175428D01*
X0229500Y0176321D01*
X0232486Y0178045D01*
X0233316Y0178875D01*
X0244622Y0167569D01*
X0244622Y0101500D01*
X0204017Y0101500D01*
X0204111Y0101593D01*
X0204111Y0103407D01*
X0202828Y0104689D01*
X0201015Y0104689D01*
X0200026Y0103700D01*
X0183111Y0103700D01*
X0183111Y0104055D01*
X0182584Y0104582D01*
X0179260Y0104582D01*
X0178733Y0104055D01*
X0178733Y0101500D01*
X0151326Y0101500D01*
X0140122Y0112704D01*
X0140122Y0131225D01*
X0141027Y0131600D01*
X0142321Y0132894D01*
X0143022Y0134585D01*
X0143022Y0136415D01*
X0142321Y0138106D01*
X0141027Y0139400D01*
X0139337Y0140100D01*
X0137507Y0140100D01*
X0135816Y0139400D01*
X0134522Y0138106D01*
X0133822Y0136415D01*
X0133822Y0134585D01*
X0134522Y0132894D01*
X0135816Y0131600D01*
X0136722Y0131225D01*
X0136722Y0111296D01*
X0146518Y0101500D01*
X0135922Y0101500D01*
X0135922Y0046300D01*
X0142422Y0046300D02*
X0142422Y0100000D01*
X0145326Y0100000D01*
X0145233Y0099907D01*
X0145233Y0098093D01*
X0146515Y0096811D01*
X0148328Y0096811D01*
X0148817Y0097300D01*
X0150718Y0097300D01*
X0175233Y0072785D01*
X0175233Y0072093D01*
X0176515Y0070811D01*
X0178328Y0070811D01*
X0178817Y0071300D01*
X0200026Y0071300D01*
X0200515Y0070811D01*
X0202328Y0070811D01*
X0203611Y0072093D01*
X0203611Y0073907D01*
X0202328Y0075189D01*
X0200515Y0075189D01*
X0200026Y0074700D01*
X0178817Y0074700D01*
X0178328Y0075189D01*
X0177637Y0075189D01*
X0153122Y0099704D01*
X0152826Y0100000D01*
X0244622Y0100000D01*
X0244622Y0087431D01*
X0233316Y0076125D01*
X0232486Y0076955D01*
X0229500Y0078679D01*
X0226169Y0079572D01*
X0222721Y0079572D01*
X0219391Y0078679D01*
X0216405Y0076955D01*
X0213967Y0074517D01*
X0212243Y0071531D01*
X0211350Y0068200D01*
X0211350Y0064752D01*
X0212243Y0061422D01*
X0213967Y0058436D01*
X0214797Y0057606D01*
X0208754Y0051562D01*
X0208321Y0052606D01*
X0207027Y0053900D01*
X0206122Y0054275D01*
X0206122Y0065230D01*
X0206522Y0065630D01*
X0206522Y0067370D01*
X0205292Y0068600D01*
X0203552Y0068600D01*
X0202322Y0067370D01*
X0202322Y0065630D01*
X0202722Y0065230D01*
X0202722Y0054275D01*
X0201816Y0053900D01*
X0200522Y0052606D01*
X0199822Y0050915D01*
X0199822Y0049085D01*
X0200522Y0047394D01*
X0198321Y0047394D01*
X0199022Y0049085D01*
X0199022Y0050915D01*
X0198321Y0052606D01*
X0197027Y0053900D01*
X0195337Y0054600D01*
X0193507Y0054600D01*
X0191816Y0053900D01*
X0190522Y0052606D01*
X0189822Y0050915D01*
X0189822Y0049085D01*
X0190522Y0047394D01*
X0188321Y0047394D01*
X0189022Y0049085D01*
X0189022Y0050915D01*
X0188321Y0052606D01*
X0187027Y0053900D01*
X0185337Y0054600D01*
X0183507Y0054600D01*
X0181816Y0053900D01*
X0180522Y0052606D01*
X0179822Y0050915D01*
X0179822Y0049085D01*
X0180522Y0047394D01*
X0179022Y0047394D01*
X0179022Y0046796D02*
X0181121Y0046796D01*
X0181616Y0046300D02*
X0179022Y0046300D01*
X0179022Y0054073D01*
X0178495Y0054600D01*
X0176122Y0054600D01*
X0176122Y0065104D01*
X0176611Y0065593D01*
X0176611Y0067407D01*
X0175328Y0068689D01*
X0173515Y0068689D01*
X0172233Y0067407D01*
X0172233Y0065593D01*
X0172722Y0065104D01*
X0172722Y0054600D01*
X0170349Y0054600D01*
X0169822Y0054073D01*
X0169822Y0046300D01*
X0142422Y0046300D01*
X0142422Y0046796D02*
X0169822Y0046796D01*
X0169822Y0047394D02*
X0142422Y0047394D01*
X0142422Y0047993D02*
X0169822Y0047993D01*
X0169822Y0048591D02*
X0142422Y0048591D01*
X0142422Y0049190D02*
X0169822Y0049190D01*
X0169822Y0049788D02*
X0142422Y0049788D01*
X0142422Y0050387D02*
X0169822Y0050387D01*
X0169822Y0050985D02*
X0142422Y0050985D01*
X0142422Y0051584D02*
X0169822Y0051584D01*
X0169822Y0052182D02*
X0142422Y0052182D01*
X0142422Y0052781D02*
X0169822Y0052781D01*
X0169822Y0053379D02*
X0142422Y0053379D01*
X0142422Y0053978D02*
X0169822Y0053978D01*
X0170325Y0054576D02*
X0142422Y0054576D01*
X0142422Y0055175D02*
X0172722Y0055175D01*
X0172722Y0055773D02*
X0142422Y0055773D01*
X0142422Y0056372D02*
X0172722Y0056372D01*
X0172722Y0056970D02*
X0142422Y0056970D01*
X0142422Y0057569D02*
X0172722Y0057569D01*
X0172722Y0058167D02*
X0142422Y0058167D01*
X0142422Y0058766D02*
X0172722Y0058766D01*
X0172722Y0059364D02*
X0142422Y0059364D01*
X0142422Y0059963D02*
X0172722Y0059963D01*
X0172722Y0060561D02*
X0142422Y0060561D01*
X0142422Y0061160D02*
X0172722Y0061160D01*
X0172722Y0061758D02*
X0142422Y0061758D01*
X0142422Y0062357D02*
X0172722Y0062357D01*
X0172722Y0062955D02*
X0142422Y0062955D01*
X0142422Y0063554D02*
X0172722Y0063554D01*
X0172722Y0064152D02*
X0142422Y0064152D01*
X0142422Y0064751D02*
X0172722Y0064751D01*
X0172477Y0065349D02*
X0142422Y0065349D01*
X0142422Y0065948D02*
X0172233Y0065948D01*
X0172233Y0066546D02*
X0142422Y0066546D01*
X0142422Y0067145D02*
X0172233Y0067145D01*
X0172570Y0067743D02*
X0142422Y0067743D01*
X0142422Y0068342D02*
X0173168Y0068342D01*
X0175675Y0068342D02*
X0203294Y0068342D01*
X0202695Y0067743D02*
X0176274Y0067743D01*
X0176611Y0067145D02*
X0202322Y0067145D01*
X0202322Y0066546D02*
X0176611Y0066546D01*
X0176611Y0065948D02*
X0202322Y0065948D01*
X0202602Y0065349D02*
X0176367Y0065349D01*
X0176122Y0064751D02*
X0202722Y0064751D01*
X0202722Y0064152D02*
X0176122Y0064152D01*
X0176122Y0063554D02*
X0202722Y0063554D01*
X0202722Y0062955D02*
X0176122Y0062955D01*
X0176122Y0062357D02*
X0202722Y0062357D01*
X0202722Y0061758D02*
X0176122Y0061758D01*
X0176122Y0061160D02*
X0202722Y0061160D01*
X0202722Y0060561D02*
X0176122Y0060561D01*
X0176122Y0059963D02*
X0202722Y0059963D01*
X0202722Y0059364D02*
X0176122Y0059364D01*
X0176122Y0058766D02*
X0202722Y0058766D01*
X0202722Y0058167D02*
X0176122Y0058167D01*
X0176122Y0057569D02*
X0202722Y0057569D01*
X0202722Y0056970D02*
X0176122Y0056970D01*
X0176122Y0056372D02*
X0202722Y0056372D01*
X0202722Y0055773D02*
X0176122Y0055773D01*
X0176122Y0055175D02*
X0202722Y0055175D01*
X0202722Y0054576D02*
X0195394Y0054576D01*
X0196839Y0053978D02*
X0202004Y0053978D01*
X0201296Y0053379D02*
X0197548Y0053379D01*
X0198146Y0052781D02*
X0200697Y0052781D01*
X0200347Y0052182D02*
X0198497Y0052182D01*
X0198745Y0051584D02*
X0200099Y0051584D01*
X0199851Y0050985D02*
X0198993Y0050985D01*
X0199022Y0050387D02*
X0199822Y0050387D01*
X0199822Y0049788D02*
X0199022Y0049788D01*
X0199022Y0049190D02*
X0199822Y0049190D01*
X0200026Y0048591D02*
X0198817Y0048591D01*
X0198569Y0047993D02*
X0200274Y0047993D01*
X0200522Y0047394D02*
X0201616Y0046300D01*
X0197227Y0046300D01*
X0198321Y0047394D01*
X0197723Y0046796D02*
X0201121Y0046796D01*
X0208745Y0051584D02*
X0208775Y0051584D01*
X0208497Y0052182D02*
X0209373Y0052182D01*
X0209972Y0052781D02*
X0208146Y0052781D01*
X0207548Y0053379D02*
X0210570Y0053379D01*
X0211169Y0053978D02*
X0206839Y0053978D01*
X0206122Y0054576D02*
X0211767Y0054576D01*
X0212366Y0055175D02*
X0206122Y0055175D01*
X0206122Y0055773D02*
X0212964Y0055773D01*
X0213563Y0056372D02*
X0206122Y0056372D01*
X0206122Y0056970D02*
X0214161Y0056970D01*
X0214760Y0057569D02*
X0206122Y0057569D01*
X0206122Y0058167D02*
X0214235Y0058167D01*
X0213776Y0058766D02*
X0206122Y0058766D01*
X0206122Y0059364D02*
X0213430Y0059364D01*
X0213085Y0059963D02*
X0206122Y0059963D01*
X0206122Y0060561D02*
X0212739Y0060561D01*
X0212394Y0061160D02*
X0206122Y0061160D01*
X0206122Y0061758D02*
X0212152Y0061758D01*
X0211992Y0062357D02*
X0206122Y0062357D01*
X0206122Y0062955D02*
X0211832Y0062955D01*
X0211671Y0063554D02*
X0206122Y0063554D01*
X0206122Y0064152D02*
X0211511Y0064152D01*
X0211350Y0064751D02*
X0206122Y0064751D01*
X0206241Y0065349D02*
X0211350Y0065349D01*
X0211350Y0065948D02*
X0206522Y0065948D01*
X0206522Y0066546D02*
X0211350Y0066546D01*
X0211350Y0067145D02*
X0206522Y0067145D01*
X0206148Y0067743D02*
X0211350Y0067743D01*
X0211388Y0068342D02*
X0205550Y0068342D01*
X0202852Y0071334D02*
X0212190Y0071334D01*
X0212030Y0070736D02*
X0142422Y0070736D01*
X0142422Y0071334D02*
X0175992Y0071334D01*
X0175393Y0071933D02*
X0142422Y0071933D01*
X0142422Y0072532D02*
X0175233Y0072532D01*
X0174888Y0073130D02*
X0142422Y0073130D01*
X0142422Y0073729D02*
X0174289Y0073729D01*
X0173691Y0074327D02*
X0142422Y0074327D01*
X0142422Y0074926D02*
X0173092Y0074926D01*
X0172493Y0075524D02*
X0142422Y0075524D01*
X0142422Y0076123D02*
X0171895Y0076123D01*
X0171296Y0076721D02*
X0142422Y0076721D01*
X0142422Y0077320D02*
X0170698Y0077320D01*
X0170099Y0077918D02*
X0142422Y0077918D01*
X0142422Y0078517D02*
X0169501Y0078517D01*
X0168902Y0079115D02*
X0142422Y0079115D01*
X0142422Y0079714D02*
X0168304Y0079714D01*
X0167705Y0080312D02*
X0142422Y0080312D01*
X0142422Y0080911D02*
X0167107Y0080911D01*
X0166508Y0081509D02*
X0142422Y0081509D01*
X0142422Y0082108D02*
X0165910Y0082108D01*
X0165311Y0082706D02*
X0142422Y0082706D01*
X0142422Y0083305D02*
X0164713Y0083305D01*
X0164114Y0083903D02*
X0142422Y0083903D01*
X0142422Y0084502D02*
X0163516Y0084502D01*
X0162917Y0085100D02*
X0142422Y0085100D01*
X0142422Y0085699D02*
X0162319Y0085699D01*
X0161720Y0086297D02*
X0142422Y0086297D01*
X0142422Y0086896D02*
X0161122Y0086896D01*
X0160523Y0087494D02*
X0142422Y0087494D01*
X0142422Y0088093D02*
X0159925Y0088093D01*
X0159326Y0088691D02*
X0142422Y0088691D01*
X0142422Y0089290D02*
X0158728Y0089290D01*
X0158129Y0089888D02*
X0142422Y0089888D01*
X0142422Y0090487D02*
X0157531Y0090487D01*
X0156932Y0091085D02*
X0142422Y0091085D01*
X0142422Y0091684D02*
X0156334Y0091684D01*
X0155735Y0092282D02*
X0142422Y0092282D01*
X0142422Y0092881D02*
X0155137Y0092881D01*
X0154538Y0093479D02*
X0142422Y0093479D01*
X0142422Y0094078D02*
X0153940Y0094078D01*
X0153341Y0094676D02*
X0142422Y0094676D01*
X0142422Y0095275D02*
X0152743Y0095275D01*
X0152144Y0095873D02*
X0142422Y0095873D01*
X0142422Y0096472D02*
X0151546Y0096472D01*
X0150947Y0097070D02*
X0148588Y0097070D01*
X0146256Y0097070D02*
X0142422Y0097070D01*
X0142422Y0097669D02*
X0145657Y0097669D01*
X0145233Y0098268D02*
X0142422Y0098268D01*
X0142422Y0098866D02*
X0145233Y0098866D01*
X0145233Y0099465D02*
X0142422Y0099465D01*
X0145560Y0102457D02*
X0118420Y0102457D01*
X0118613Y0102922D02*
X0118116Y0101723D01*
X0117199Y0100805D01*
X0116000Y0100309D01*
X0114702Y0100309D01*
X0113503Y0100805D01*
X0112585Y0101723D01*
X0112088Y0102922D01*
X0112088Y0104220D01*
X0112585Y0105419D01*
X0113503Y0106337D01*
X0114151Y0106605D01*
X0114151Y0132926D01*
X0114404Y0133179D01*
X0113822Y0134585D01*
X0113822Y0136415D01*
X0114522Y0138106D01*
X0115816Y0139400D01*
X0116628Y0139736D01*
X0116628Y0151698D01*
X0115639Y0152687D01*
X0115639Y0154500D01*
X0116922Y0155782D01*
X0118735Y0155782D01*
X0120017Y0154500D01*
X0120017Y0152687D01*
X0119028Y0151698D01*
X0119028Y0140100D01*
X0119337Y0140100D01*
X0121027Y0139400D01*
X0122321Y0138106D01*
X0123022Y0136415D01*
X0123022Y0134585D01*
X0122321Y0132894D01*
X0121027Y0131600D01*
X0119337Y0130900D01*
X0117507Y0130900D01*
X0116551Y0131296D01*
X0116551Y0106605D01*
X0117199Y0106337D01*
X0118116Y0105419D01*
X0118613Y0104220D01*
X0118613Y0102922D01*
X0118613Y0103056D02*
X0144962Y0103056D01*
X0144363Y0103654D02*
X0118613Y0103654D01*
X0118599Y0104253D02*
X0143765Y0104253D01*
X0143166Y0104851D02*
X0118351Y0104851D01*
X0118086Y0105450D02*
X0142568Y0105450D01*
X0141969Y0106048D02*
X0117487Y0106048D01*
X0116551Y0106647D02*
X0141371Y0106647D01*
X0140772Y0107245D02*
X0116551Y0107245D01*
X0116551Y0107844D02*
X0140174Y0107844D01*
X0139575Y0108442D02*
X0116551Y0108442D01*
X0116551Y0109041D02*
X0138977Y0109041D01*
X0138378Y0109639D02*
X0116551Y0109639D01*
X0116551Y0110238D02*
X0137780Y0110238D01*
X0137181Y0110836D02*
X0116551Y0110836D01*
X0116551Y0111435D02*
X0136722Y0111435D01*
X0136722Y0112033D02*
X0116551Y0112033D01*
X0116551Y0112632D02*
X0136722Y0112632D01*
X0136722Y0113230D02*
X0116551Y0113230D01*
X0116551Y0113829D02*
X0136722Y0113829D01*
X0136722Y0114427D02*
X0116551Y0114427D01*
X0116551Y0115026D02*
X0136722Y0115026D01*
X0136722Y0115624D02*
X0116551Y0115624D01*
X0116551Y0116223D02*
X0136722Y0116223D01*
X0136722Y0116821D02*
X0116551Y0116821D01*
X0116551Y0117420D02*
X0136722Y0117420D01*
X0136722Y0118018D02*
X0116551Y0118018D01*
X0116551Y0118617D02*
X0136722Y0118617D01*
X0136722Y0119215D02*
X0116551Y0119215D01*
X0116551Y0119814D02*
X0136722Y0119814D01*
X0136722Y0120412D02*
X0116551Y0120412D01*
X0116551Y0121011D02*
X0136722Y0121011D01*
X0136722Y0121609D02*
X0116551Y0121609D01*
X0116551Y0122208D02*
X0136722Y0122208D01*
X0136722Y0122806D02*
X0116551Y0122806D01*
X0116551Y0123405D02*
X0136722Y0123405D01*
X0136722Y0124003D02*
X0116551Y0124003D01*
X0116551Y0124602D02*
X0136722Y0124602D01*
X0136722Y0125201D02*
X0116551Y0125201D01*
X0116551Y0125799D02*
X0136722Y0125799D01*
X0136722Y0126398D02*
X0116551Y0126398D01*
X0116551Y0126996D02*
X0136722Y0126996D01*
X0136722Y0127595D02*
X0116551Y0127595D01*
X0116551Y0128193D02*
X0136722Y0128193D01*
X0136722Y0128792D02*
X0116551Y0128792D01*
X0116551Y0129390D02*
X0136722Y0129390D01*
X0136722Y0129989D02*
X0116551Y0129989D01*
X0116551Y0130587D02*
X0127478Y0130587D01*
X0127251Y0130623D02*
X0128028Y0130500D01*
X0128122Y0130500D01*
X0128122Y0135200D01*
X0128722Y0135200D01*
X0128722Y0135800D01*
X0133422Y0135800D01*
X0133422Y0135894D01*
X0133299Y0136671D01*
X0133055Y0137419D01*
X0132698Y0138121D01*
X0132236Y0138757D01*
X0131679Y0139314D01*
X0131042Y0139776D01*
X0130341Y0140134D01*
X0129593Y0140377D01*
X0128815Y0140500D01*
X0128722Y0140500D01*
X0128722Y0135800D01*
X0128122Y0135800D01*
X0128122Y0140500D01*
X0128028Y0140500D01*
X0127251Y0140377D01*
X0126502Y0140134D01*
X0125801Y0139776D01*
X0125164Y0139314D01*
X0124608Y0138757D01*
X0124145Y0138121D01*
X0123788Y0137419D01*
X0123545Y0136671D01*
X0123422Y0135894D01*
X0123422Y0135800D01*
X0128122Y0135800D01*
X0128122Y0135200D01*
X0123422Y0135200D01*
X0123422Y0135106D01*
X0123545Y0134329D01*
X0123788Y0133581D01*
X0124145Y0132879D01*
X0124608Y0132243D01*
X0125164Y0131686D01*
X0125801Y0131224D01*
X0126502Y0130866D01*
X0127251Y0130623D01*
X0128122Y0130587D02*
X0128722Y0130587D01*
X0128722Y0130500D02*
X0128815Y0130500D01*
X0129593Y0130623D01*
X0130341Y0130866D01*
X0131042Y0131224D01*
X0131679Y0131686D01*
X0132236Y0132243D01*
X0132698Y0132879D01*
X0133055Y0133581D01*
X0133299Y0134329D01*
X0133422Y0135106D01*
X0133422Y0135200D01*
X0128722Y0135200D01*
X0128722Y0130500D01*
X0129365Y0130587D02*
X0136722Y0130587D01*
X0136722Y0131186D02*
X0130968Y0131186D01*
X0131777Y0131784D02*
X0135632Y0131784D01*
X0135034Y0132383D02*
X0132337Y0132383D01*
X0132750Y0132981D02*
X0134486Y0132981D01*
X0134238Y0133580D02*
X0133055Y0133580D01*
X0133250Y0134178D02*
X0133990Y0134178D01*
X0133822Y0134777D02*
X0133369Y0134777D01*
X0133822Y0135375D02*
X0128722Y0135375D01*
X0128722Y0134777D02*
X0128122Y0134777D01*
X0128122Y0135375D02*
X0123022Y0135375D01*
X0123022Y0134777D02*
X0123474Y0134777D01*
X0123594Y0134178D02*
X0122853Y0134178D01*
X0122605Y0133580D02*
X0123789Y0133580D01*
X0124094Y0132981D02*
X0122357Y0132981D01*
X0121810Y0132383D02*
X0124506Y0132383D01*
X0125067Y0131784D02*
X0121211Y0131784D01*
X0120026Y0131186D02*
X0125876Y0131186D01*
X0128122Y0131186D02*
X0128722Y0131186D01*
X0128722Y0131784D02*
X0128122Y0131784D01*
X0128122Y0132383D02*
X0128722Y0132383D01*
X0128722Y0132981D02*
X0128122Y0132981D01*
X0128122Y0133580D02*
X0128722Y0133580D01*
X0128722Y0134178D02*
X0128122Y0134178D01*
X0128122Y0135974D02*
X0128722Y0135974D01*
X0128722Y0136572D02*
X0128122Y0136572D01*
X0128122Y0137171D02*
X0128722Y0137171D01*
X0128722Y0137769D02*
X0128122Y0137769D01*
X0128122Y0138368D02*
X0128722Y0138368D01*
X0128722Y0138966D02*
X0128122Y0138966D01*
X0128122Y0139565D02*
X0128722Y0139565D01*
X0128722Y0140163D02*
X0128122Y0140163D01*
X0126594Y0140163D02*
X0119028Y0140163D01*
X0119028Y0140762D02*
X0154222Y0140762D01*
X0154222Y0141360D02*
X0119028Y0141360D01*
X0119028Y0141959D02*
X0154222Y0141959D01*
X0154222Y0142557D02*
X0119028Y0142557D01*
X0119028Y0143156D02*
X0154222Y0143156D01*
X0154222Y0143311D02*
X0154222Y0138813D01*
X0154245Y0138790D01*
X0154245Y0136665D01*
X0154772Y0136137D01*
X0156717Y0136137D01*
X0157024Y0136444D01*
X0157331Y0136137D01*
X0159276Y0136137D01*
X0159583Y0136444D01*
X0159890Y0136137D01*
X0161835Y0136137D01*
X0162142Y0136444D01*
X0162449Y0136137D01*
X0164395Y0136137D01*
X0164418Y0136161D01*
X0164583Y0135997D01*
X0164879Y0135826D01*
X0165210Y0135737D01*
X0165981Y0135737D01*
X0166752Y0135737D01*
X0167083Y0135826D01*
X0167379Y0135997D01*
X0167543Y0136161D01*
X0167567Y0136137D01*
X0169513Y0136137D01*
X0169819Y0136444D01*
X0170126Y0136137D01*
X0172072Y0136137D01*
X0172599Y0136665D01*
X0172599Y0137800D01*
X0175233Y0137800D01*
X0175233Y0137338D01*
X0175760Y0136811D01*
X0179084Y0136811D01*
X0179611Y0137338D01*
X0179611Y0140662D01*
X0179084Y0141189D01*
X0175760Y0141189D01*
X0175233Y0140662D01*
X0175233Y0140200D01*
X0172599Y0140200D01*
X0172599Y0141310D01*
X0172072Y0141837D01*
X0170126Y0141837D01*
X0169819Y0141531D01*
X0169740Y0141610D01*
X0169740Y0141621D01*
X0170496Y0142377D01*
X0173733Y0142377D01*
X0173733Y0141915D01*
X0174260Y0141388D01*
X0177584Y0141388D01*
X0178111Y0141915D01*
X0178111Y0145239D01*
X0177584Y0145766D01*
X0175111Y0145766D01*
X0175111Y0147329D01*
X0173828Y0148611D01*
X0172111Y0148611D01*
X0172111Y0149518D01*
X0170828Y0150800D01*
X0169015Y0150800D01*
X0168026Y0149811D01*
X0160185Y0149811D01*
X0157807Y0147433D01*
X0157573Y0147199D01*
X0157084Y0147689D01*
X0153760Y0147689D01*
X0153233Y0147162D01*
X0153233Y0143838D01*
X0153760Y0143311D01*
X0154222Y0143311D01*
X0153317Y0143754D02*
X0119028Y0143754D01*
X0119028Y0144353D02*
X0153233Y0144353D01*
X0153233Y0144951D02*
X0119028Y0144951D01*
X0119028Y0145550D02*
X0153233Y0145550D01*
X0153233Y0146148D02*
X0119028Y0146148D01*
X0119028Y0146747D02*
X0153233Y0146747D01*
X0153416Y0147345D02*
X0119028Y0147345D01*
X0119028Y0147944D02*
X0158318Y0147944D01*
X0158916Y0148542D02*
X0119028Y0148542D01*
X0119028Y0149141D02*
X0159515Y0149141D01*
X0160113Y0149739D02*
X0119028Y0149739D01*
X0119028Y0150338D02*
X0168553Y0150338D01*
X0169922Y0148611D02*
X0160682Y0148611D01*
X0158304Y0146233D01*
X0158304Y0138987D01*
X0160863Y0138987D02*
X0160922Y0139046D01*
X0160922Y0140000D01*
X0160922Y0145000D01*
X0163422Y0144500D02*
X0163422Y0138987D01*
X0165981Y0138987D02*
X0165981Y0138987D01*
X0165981Y0135737D01*
X0165981Y0138987D01*
X0165981Y0125559D01*
X0158304Y0117882D01*
X0158304Y0116013D01*
X0158304Y0118286D01*
X0158304Y0118286D01*
X0158304Y0116013D01*
X0158304Y0116013D01*
X0158304Y0111850D01*
X0156953Y0110500D01*
X0156761Y0110692D02*
X0156761Y0110308D01*
X0154669Y0110308D01*
X0154669Y0109345D01*
X0154758Y0109014D01*
X0154929Y0108718D01*
X0155171Y0108475D01*
X0155467Y0108304D01*
X0155798Y0108216D01*
X0156761Y0108216D01*
X0156761Y0110308D01*
X0157145Y0110308D01*
X0157145Y0108216D01*
X0158109Y0108216D01*
X0158439Y0108304D01*
X0158736Y0108475D01*
X0158978Y0108718D01*
X0159144Y0109005D01*
X0159533Y0108616D01*
X0159663Y0108616D01*
X0159663Y0108189D01*
X0159260Y0108189D01*
X0158733Y0107662D01*
X0158733Y0104338D01*
X0159260Y0103811D01*
X0162584Y0103811D01*
X0163111Y0104338D01*
X0163111Y0107662D01*
X0162584Y0108189D01*
X0162063Y0108189D01*
X0162063Y0108616D01*
X0162247Y0108616D01*
X0162774Y0109143D01*
X0162774Y0111857D01*
X0162247Y0112384D01*
X0162090Y0112384D01*
X0162090Y0113417D01*
X0162142Y0113469D01*
X0162449Y0113163D01*
X0164395Y0113163D01*
X0164701Y0113469D01*
X0165008Y0113163D01*
X0166954Y0113163D01*
X0167260Y0113469D01*
X0167567Y0113163D01*
X0169513Y0113163D01*
X0169819Y0113469D01*
X0170126Y0113163D01*
X0172072Y0113163D01*
X0172599Y0113690D01*
X0172599Y0118335D01*
X0172072Y0118863D01*
X0170126Y0118863D01*
X0169819Y0118556D01*
X0169513Y0118863D01*
X0167567Y0118863D01*
X0167260Y0118556D01*
X0166954Y0118863D01*
X0165008Y0118863D01*
X0164701Y0118556D01*
X0164395Y0118863D01*
X0162449Y0118863D01*
X0162142Y0118556D01*
X0161835Y0118863D01*
X0159890Y0118863D01*
X0159866Y0118839D01*
X0159702Y0119003D01*
X0159405Y0119174D01*
X0159111Y0119253D01*
X0159111Y0120907D01*
X0157828Y0122189D01*
X0156015Y0122189D01*
X0154733Y0120907D01*
X0154733Y0119508D01*
X0154545Y0119320D01*
X0154545Y0118635D01*
X0154245Y0118335D01*
X0154245Y0113690D01*
X0154772Y0113163D01*
X0156717Y0113163D01*
X0156741Y0113187D01*
X0156905Y0113022D01*
X0157202Y0112851D01*
X0157452Y0112784D01*
X0157145Y0112784D01*
X0157145Y0110692D01*
X0156761Y0110692D01*
X0154669Y0110692D01*
X0154669Y0111655D01*
X0154758Y0111986D01*
X0154929Y0112282D01*
X0155171Y0112524D01*
X0155467Y0112696D01*
X0155798Y0112784D01*
X0156761Y0112784D01*
X0156761Y0110692D01*
X0156761Y0110836D02*
X0157145Y0110836D01*
X0157145Y0110238D02*
X0156761Y0110238D01*
X0156761Y0109639D02*
X0157145Y0109639D01*
X0157145Y0109041D02*
X0156761Y0109041D01*
X0156761Y0108442D02*
X0157145Y0108442D01*
X0158678Y0108442D02*
X0159663Y0108442D01*
X0158915Y0107844D02*
X0144982Y0107844D01*
X0144384Y0108442D02*
X0155228Y0108442D01*
X0154750Y0109041D02*
X0143785Y0109041D01*
X0143187Y0109639D02*
X0154669Y0109639D01*
X0154669Y0110238D02*
X0142588Y0110238D01*
X0141990Y0110836D02*
X0154669Y0110836D01*
X0154669Y0111435D02*
X0141391Y0111435D01*
X0140793Y0112033D02*
X0154785Y0112033D01*
X0155357Y0112632D02*
X0140194Y0112632D01*
X0140122Y0113230D02*
X0154704Y0113230D01*
X0154245Y0113829D02*
X0140122Y0113829D01*
X0140122Y0114427D02*
X0154245Y0114427D01*
X0154245Y0115026D02*
X0140122Y0115026D01*
X0140122Y0115624D02*
X0154245Y0115624D01*
X0154245Y0116223D02*
X0140122Y0116223D01*
X0140122Y0116821D02*
X0154245Y0116821D01*
X0154245Y0117420D02*
X0140122Y0117420D01*
X0140122Y0118018D02*
X0154245Y0118018D01*
X0154526Y0118617D02*
X0140122Y0118617D01*
X0140122Y0119215D02*
X0154545Y0119215D01*
X0154733Y0119814D02*
X0140122Y0119814D01*
X0140122Y0120412D02*
X0154733Y0120412D01*
X0154837Y0121011D02*
X0140122Y0121011D01*
X0140122Y0121609D02*
X0155436Y0121609D01*
X0156922Y0120000D02*
X0155745Y0118823D01*
X0155745Y0116013D01*
X0158304Y0116012D02*
X0158304Y0116012D01*
X0158304Y0112763D01*
X0159075Y0112763D01*
X0159405Y0112851D01*
X0159690Y0113016D01*
X0159690Y0112384D01*
X0159533Y0112384D01*
X0159144Y0111995D01*
X0158978Y0112282D01*
X0158736Y0112524D01*
X0158439Y0112696D01*
X0158189Y0112763D01*
X0158304Y0112763D01*
X0158304Y0116012D01*
X0158304Y0116223D02*
X0158304Y0116223D01*
X0158304Y0116821D02*
X0158304Y0116821D01*
X0158304Y0117420D02*
X0158304Y0117420D01*
X0158304Y0118018D02*
X0158304Y0118018D01*
X0159251Y0119215D02*
X0180407Y0119215D01*
X0180098Y0118906D02*
X0179926Y0118610D01*
X0179838Y0118279D01*
X0179838Y0117937D01*
X0179926Y0117606D01*
X0180098Y0117310D01*
X0180779Y0116629D01*
X0182258Y0118108D01*
X0182530Y0117836D01*
X0182802Y0118108D01*
X0184281Y0116629D01*
X0184962Y0117310D01*
X0185133Y0117606D01*
X0185151Y0117675D01*
X0186015Y0116811D01*
X0187828Y0116811D01*
X0189111Y0118093D01*
X0189111Y0119907D01*
X0187828Y0121189D01*
X0187606Y0121189D01*
X0187606Y0121265D01*
X0185686Y0123184D01*
X0184941Y0123184D01*
X0183022Y0121265D01*
X0183022Y0120714D01*
X0182701Y0120800D01*
X0182359Y0120800D01*
X0182028Y0120711D01*
X0181732Y0120540D01*
X0181050Y0119859D01*
X0182530Y0118380D01*
X0182258Y0118108D01*
X0180779Y0119587D01*
X0180098Y0118906D01*
X0179931Y0118617D02*
X0172317Y0118617D01*
X0172599Y0118018D02*
X0179838Y0118018D01*
X0180034Y0117420D02*
X0172599Y0117420D01*
X0172599Y0116821D02*
X0180586Y0116821D01*
X0180971Y0116821D02*
X0181515Y0116821D01*
X0181570Y0117420D02*
X0182113Y0117420D01*
X0182530Y0117836D02*
X0181050Y0116357D01*
X0181732Y0115676D01*
X0182028Y0115505D01*
X0182359Y0115416D01*
X0182701Y0115416D01*
X0183032Y0115505D01*
X0183328Y0115676D01*
X0184009Y0116357D01*
X0182530Y0117836D01*
X0182530Y0117892D02*
X0182530Y0118108D01*
X0182712Y0118018D02*
X0182891Y0118018D01*
X0182530Y0117892D02*
X0184922Y0115500D01*
X0183875Y0116223D02*
X0195733Y0116223D01*
X0195733Y0116093D02*
X0197015Y0114811D01*
X0198828Y0114811D01*
X0200111Y0116093D01*
X0200111Y0117907D01*
X0198828Y0119189D01*
X0197430Y0119189D01*
X0192111Y0124508D01*
X0192111Y0125907D01*
X0190828Y0127189D01*
X0189015Y0127189D01*
X0187733Y0125907D01*
X0187733Y0124093D01*
X0189015Y0122811D01*
X0190414Y0122811D01*
X0195733Y0117492D01*
X0195733Y0116093D01*
X0196202Y0115624D02*
X0183239Y0115624D01*
X0183545Y0116821D02*
X0184088Y0116821D01*
X0184474Y0116821D02*
X0186005Y0116821D01*
X0185406Y0117420D02*
X0185026Y0117420D01*
X0183490Y0117420D02*
X0182946Y0117420D01*
X0182348Y0118018D02*
X0182168Y0118018D01*
X0182293Y0118617D02*
X0181749Y0118617D01*
X0181694Y0119215D02*
X0181151Y0119215D01*
X0181096Y0119814D02*
X0159111Y0119814D01*
X0159111Y0120412D02*
X0181604Y0120412D01*
X0183022Y0121011D02*
X0159006Y0121011D01*
X0158408Y0121609D02*
X0183366Y0121609D01*
X0183965Y0122208D02*
X0140122Y0122208D01*
X0140122Y0122806D02*
X0184563Y0122806D01*
X0186064Y0122806D02*
X0190418Y0122806D01*
X0191017Y0122208D02*
X0186662Y0122208D01*
X0187261Y0121609D02*
X0191615Y0121609D01*
X0192214Y0121011D02*
X0188006Y0121011D01*
X0188605Y0120412D02*
X0192812Y0120412D01*
X0193411Y0119814D02*
X0189111Y0119814D01*
X0189111Y0119215D02*
X0194009Y0119215D01*
X0194608Y0118617D02*
X0189111Y0118617D01*
X0189036Y0118018D02*
X0195206Y0118018D01*
X0195733Y0117420D02*
X0188437Y0117420D01*
X0187839Y0116821D02*
X0195733Y0116821D01*
X0196800Y0115026D02*
X0172599Y0115026D01*
X0172599Y0115624D02*
X0181821Y0115624D01*
X0181185Y0116223D02*
X0172599Y0116223D01*
X0172599Y0114427D02*
X0244622Y0114427D01*
X0244622Y0113829D02*
X0241433Y0113829D01*
X0241825Y0113666D02*
X0240843Y0114073D01*
X0237024Y0114073D01*
X0236042Y0113666D01*
X0235291Y0112915D01*
X0234884Y0111933D01*
X0234884Y0110870D01*
X0235291Y0109888D01*
X0236042Y0109137D01*
X0237024Y0108730D01*
X0240843Y0108730D01*
X0241825Y0109137D01*
X0242576Y0109888D01*
X0242983Y0110870D01*
X0242983Y0111933D01*
X0242576Y0112915D01*
X0241825Y0113666D01*
X0242261Y0113230D02*
X0244622Y0113230D01*
X0244622Y0112632D02*
X0242694Y0112632D01*
X0242942Y0112033D02*
X0244622Y0112033D01*
X0244622Y0111435D02*
X0242983Y0111435D01*
X0242969Y0110836D02*
X0244622Y0110836D01*
X0244622Y0110238D02*
X0242721Y0110238D01*
X0242327Y0109639D02*
X0244622Y0109639D01*
X0244622Y0109041D02*
X0241593Y0109041D01*
X0244622Y0108442D02*
X0162063Y0108442D01*
X0162672Y0109041D02*
X0236274Y0109041D01*
X0235540Y0109639D02*
X0162774Y0109639D01*
X0162774Y0110238D02*
X0235146Y0110238D01*
X0234898Y0110836D02*
X0162774Y0110836D01*
X0162774Y0111435D02*
X0234884Y0111435D01*
X0234925Y0112033D02*
X0162598Y0112033D01*
X0162090Y0112632D02*
X0235173Y0112632D01*
X0235606Y0113230D02*
X0172139Y0113230D01*
X0172599Y0113829D02*
X0236434Y0113829D01*
X0244622Y0115026D02*
X0199043Y0115026D01*
X0199642Y0115624D02*
X0244622Y0115624D01*
X0244622Y0116223D02*
X0200111Y0116223D01*
X0200111Y0116821D02*
X0244622Y0116821D01*
X0244622Y0117420D02*
X0200111Y0117420D01*
X0199999Y0118018D02*
X0244622Y0118018D01*
X0244622Y0118617D02*
X0199401Y0118617D01*
X0197403Y0119215D02*
X0244622Y0119215D01*
X0244622Y0119814D02*
X0196805Y0119814D01*
X0196206Y0120412D02*
X0244622Y0120412D01*
X0244622Y0121011D02*
X0195608Y0121011D01*
X0195009Y0121609D02*
X0244622Y0121609D01*
X0244622Y0122208D02*
X0194411Y0122208D01*
X0193812Y0122806D02*
X0244622Y0122806D01*
X0244622Y0123405D02*
X0193214Y0123405D01*
X0192615Y0124003D02*
X0211512Y0124003D01*
X0210913Y0124602D02*
X0192111Y0124602D01*
X0192111Y0125201D02*
X0210422Y0125201D01*
X0210422Y0125799D02*
X0192111Y0125799D01*
X0191620Y0126398D02*
X0210422Y0126398D01*
X0210511Y0126996D02*
X0191021Y0126996D01*
X0188822Y0126996D02*
X0140122Y0126996D01*
X0140122Y0126398D02*
X0188224Y0126398D01*
X0187733Y0125799D02*
X0140122Y0125799D01*
X0140122Y0125201D02*
X0187733Y0125201D01*
X0187733Y0124602D02*
X0140122Y0124602D01*
X0140122Y0124003D02*
X0187823Y0124003D01*
X0188421Y0123405D02*
X0140122Y0123405D01*
X0140122Y0127595D02*
X0211110Y0127595D01*
X0211411Y0128193D02*
X0140122Y0128193D01*
X0140122Y0128792D02*
X0211411Y0128792D01*
X0211411Y0129390D02*
X0198230Y0129390D01*
X0198828Y0129989D02*
X0211411Y0129989D01*
X0211411Y0130587D02*
X0201605Y0130587D01*
X0202203Y0131186D02*
X0211411Y0131186D01*
X0211411Y0131784D02*
X0202611Y0131784D01*
X0202611Y0132383D02*
X0211411Y0132383D01*
X0211411Y0132981D02*
X0202611Y0132981D01*
X0202438Y0133580D02*
X0211411Y0133580D01*
X0211411Y0134178D02*
X0201839Y0134178D01*
X0201622Y0134777D02*
X0211411Y0134777D01*
X0211411Y0135375D02*
X0201622Y0135375D01*
X0201622Y0135974D02*
X0206352Y0135974D01*
X0205754Y0136572D02*
X0201622Y0136572D01*
X0200422Y0137106D02*
X0179928Y0157600D01*
X0146822Y0157600D01*
X0142422Y0162000D01*
X0142422Y0164513D01*
X0144981Y0164513D02*
X0144981Y0162059D01*
X0144922Y0162000D01*
X0148122Y0158800D01*
X0180425Y0158800D01*
X0196573Y0142651D01*
X0196725Y0142500D01*
X0201073Y0138151D01*
X0207270Y0138151D01*
X0207422Y0138000D01*
X0208953Y0139565D02*
X0209160Y0139565D01*
X0209551Y0138966D02*
X0209758Y0138966D01*
X0209611Y0138368D02*
X0210357Y0138368D01*
X0210955Y0137769D02*
X0209611Y0137769D01*
X0209611Y0137171D02*
X0211411Y0137171D01*
X0211411Y0136572D02*
X0209090Y0136572D01*
X0208491Y0135974D02*
X0211411Y0135974D01*
X0212611Y0137811D02*
X0207422Y0143000D01*
X0199619Y0143000D01*
X0181422Y0161197D01*
X0181422Y0177500D01*
X0176746Y0182175D01*
X0174557Y0182059D02*
X0151299Y0182059D01*
X0151299Y0182658D02*
X0174557Y0182658D01*
X0174557Y0183256D02*
X0151299Y0183256D01*
X0151299Y0183855D02*
X0174575Y0183855D01*
X0174557Y0181461D02*
X0151411Y0181461D01*
X0152010Y0180862D02*
X0174557Y0180862D01*
X0174807Y0180264D02*
X0152288Y0180264D01*
X0152288Y0179665D02*
X0177560Y0179665D01*
X0178158Y0179067D02*
X0152288Y0179067D01*
X0151985Y0178468D02*
X0178757Y0178468D01*
X0179355Y0177870D02*
X0151387Y0177870D01*
X0150099Y0179677D02*
X0150099Y0187487D01*
X0150112Y0187500D01*
X0154453Y0187500D01*
X0152569Y0186249D02*
X0151599Y0186249D01*
X0151599Y0185650D02*
X0153062Y0185650D01*
X0151486Y0185052D02*
X0177077Y0185052D01*
X0176479Y0185650D02*
X0160347Y0185650D01*
X0160649Y0186249D02*
X0175880Y0186249D01*
X0175282Y0186847D02*
X0160674Y0186847D01*
X0160674Y0187692D02*
X0160674Y0188655D01*
X0160586Y0188986D01*
X0160415Y0189282D01*
X0160173Y0189524D01*
X0159876Y0189696D01*
X0159546Y0189784D01*
X0158582Y0189784D01*
X0158582Y0187692D01*
X0160674Y0187692D01*
X0160674Y0188044D02*
X0174085Y0188044D01*
X0174683Y0187446D02*
X0158582Y0187446D01*
X0158622Y0187500D02*
X0158390Y0187500D01*
X0158390Y0187969D01*
X0158198Y0188044D02*
X0158582Y0188044D01*
X0158582Y0188643D02*
X0158198Y0188643D01*
X0158198Y0189241D02*
X0158582Y0189241D01*
X0160439Y0189241D02*
X0172888Y0189241D01*
X0173486Y0188643D02*
X0160674Y0188643D01*
X0158582Y0186847D02*
X0158198Y0186847D01*
X0158198Y0186249D02*
X0158582Y0186249D01*
X0158582Y0185650D02*
X0158198Y0185650D01*
X0156433Y0185650D02*
X0155845Y0185650D01*
X0151299Y0184453D02*
X0177676Y0184453D01*
X0178935Y0182658D02*
X0179471Y0182658D01*
X0178935Y0182059D02*
X0180070Y0182059D01*
X0180668Y0181461D02*
X0179158Y0181461D01*
X0179757Y0180862D02*
X0180685Y0180862D01*
X0180685Y0180264D02*
X0180355Y0180264D01*
X0180954Y0179665D02*
X0181065Y0179665D01*
X0181552Y0179067D02*
X0181664Y0179067D01*
X0182151Y0178468D02*
X0185488Y0178468D01*
X0185363Y0179067D02*
X0184084Y0179067D01*
X0184682Y0179665D02*
X0185363Y0179665D01*
X0185091Y0180264D02*
X0185063Y0180264D01*
X0182874Y0180952D02*
X0166326Y0197500D01*
X0160422Y0197500D01*
X0158422Y0199500D01*
X0158422Y0205500D01*
X0154569Y0205401D02*
X0152274Y0205401D01*
X0152274Y0204803D02*
X0154569Y0204803D01*
X0154788Y0204204D02*
X0152055Y0204204D01*
X0151807Y0203605D02*
X0155036Y0203605D01*
X0155466Y0203007D02*
X0151377Y0203007D01*
X0150779Y0202408D02*
X0156065Y0202408D01*
X0157222Y0201810D02*
X0149622Y0201810D01*
X0149622Y0201211D02*
X0157222Y0201211D01*
X0157222Y0200613D02*
X0149622Y0200613D01*
X0149622Y0200014D02*
X0157222Y0200014D01*
X0157222Y0199416D02*
X0149622Y0199416D01*
X0149622Y0198817D02*
X0157407Y0198817D01*
X0158006Y0198219D02*
X0149622Y0198219D01*
X0149622Y0197620D02*
X0158604Y0197620D01*
X0159203Y0197022D02*
X0149622Y0197022D01*
X0149622Y0196423D02*
X0159801Y0196423D01*
X0166304Y0195825D02*
X0149622Y0195825D01*
X0149345Y0195226D02*
X0166903Y0195226D01*
X0167501Y0194628D02*
X0148747Y0194628D01*
X0148622Y0194029D02*
X0168100Y0194029D01*
X0168698Y0193431D02*
X0148622Y0193431D01*
X0148622Y0192832D02*
X0169297Y0192832D01*
X0169895Y0192234D02*
X0148622Y0192234D01*
X0148622Y0191635D02*
X0170494Y0191635D01*
X0171092Y0191037D02*
X0148622Y0191037D01*
X0148622Y0190438D02*
X0171691Y0190438D01*
X0172289Y0189840D02*
X0151569Y0189840D01*
X0151599Y0189241D02*
X0152953Y0189241D01*
X0155953Y0189241D02*
X0156342Y0189241D01*
X0148899Y0184453D02*
X0132471Y0184453D01*
X0133069Y0185052D02*
X0133358Y0185052D01*
X0131422Y0186500D02*
X0132422Y0187500D01*
X0132434Y0187487D01*
X0134745Y0187487D01*
X0133245Y0189241D02*
X0115493Y0189241D01*
X0115493Y0188643D02*
X0130469Y0188643D01*
X0129870Y0188044D02*
X0115493Y0188044D01*
X0115493Y0187446D02*
X0129272Y0187446D01*
X0129233Y0186847D02*
X0115493Y0186847D01*
X0115346Y0186249D02*
X0129233Y0186249D01*
X0129233Y0185650D02*
X0115185Y0185650D01*
X0115025Y0185052D02*
X0129774Y0185052D01*
X0130373Y0184453D02*
X0114865Y0184453D01*
X0114704Y0183855D02*
X0148899Y0183855D01*
X0148899Y0183256D02*
X0114478Y0183256D01*
X0114132Y0182658D02*
X0148899Y0182658D01*
X0148899Y0182059D02*
X0113787Y0182059D01*
X0113441Y0181461D02*
X0148787Y0181461D01*
X0148188Y0180862D02*
X0113096Y0180862D01*
X0112658Y0180264D02*
X0147910Y0180264D01*
X0147910Y0179665D02*
X0112059Y0179665D01*
X0111461Y0179067D02*
X0147910Y0179067D01*
X0148212Y0178468D02*
X0110862Y0178468D01*
X0110135Y0177870D02*
X0148811Y0177870D01*
X0151703Y0174877D02*
X0089529Y0174877D01*
X0088931Y0174278D02*
X0151233Y0174278D01*
X0151233Y0173680D02*
X0088332Y0173680D01*
X0087734Y0173081D02*
X0151233Y0173081D01*
X0150708Y0172483D02*
X0087135Y0172483D01*
X0086537Y0171884D02*
X0150109Y0171884D01*
X0149511Y0171286D02*
X0085938Y0171286D01*
X0085340Y0170687D02*
X0148912Y0170687D01*
X0148899Y0170089D02*
X0084741Y0170089D01*
X0084143Y0169490D02*
X0148899Y0169490D01*
X0148899Y0168892D02*
X0083544Y0168892D01*
X0082946Y0168293D02*
X0148899Y0168293D01*
X0148899Y0167695D02*
X0135769Y0167695D01*
X0134745Y0167695D02*
X0134745Y0167695D01*
X0134745Y0167096D02*
X0134745Y0167096D01*
X0134745Y0166498D02*
X0134745Y0166498D01*
X0134745Y0165899D02*
X0134745Y0165899D01*
X0134745Y0165301D02*
X0134745Y0165301D01*
X0134745Y0164702D02*
X0134745Y0164702D01*
X0134745Y0164512D02*
X0134745Y0161263D01*
X0134745Y0164512D01*
X0134745Y0164512D01*
X0134745Y0164104D02*
X0134745Y0164104D01*
X0134745Y0163505D02*
X0134745Y0163505D01*
X0134745Y0162907D02*
X0134745Y0162907D01*
X0134745Y0162308D02*
X0134745Y0162308D01*
X0134745Y0161710D02*
X0134745Y0161710D01*
X0133159Y0161710D02*
X0082222Y0161710D01*
X0082222Y0162308D02*
X0132867Y0162308D01*
X0132845Y0162907D02*
X0082222Y0162907D01*
X0082222Y0163505D02*
X0132845Y0163505D01*
X0132845Y0164104D02*
X0082222Y0164104D01*
X0082222Y0164702D02*
X0132845Y0164702D01*
X0132845Y0165301D02*
X0082222Y0165301D01*
X0082222Y0165899D02*
X0132845Y0165899D01*
X0132845Y0166498D02*
X0082222Y0166498D01*
X0082222Y0167096D02*
X0133009Y0167096D01*
X0133721Y0167695D02*
X0082347Y0167695D01*
X0082222Y0161111D02*
X0139613Y0161111D01*
X0140212Y0160513D02*
X0090487Y0160513D01*
X0090572Y0160485D02*
X0089929Y0160694D01*
X0089260Y0160800D01*
X0089222Y0160800D01*
X0089222Y0153800D01*
X0093222Y0153800D01*
X0093222Y0156838D01*
X0093116Y0157507D01*
X0092907Y0158151D01*
X0092599Y0158754D01*
X0092202Y0159301D01*
X0091723Y0159780D01*
X0091175Y0160178D01*
X0090572Y0160485D01*
X0091538Y0159914D02*
X0096973Y0159914D01*
X0096713Y0159806D02*
X0095615Y0158709D01*
X0095022Y0157276D01*
X0095022Y0149724D01*
X0095615Y0148291D01*
X0096713Y0147194D01*
X0098146Y0146600D01*
X0099697Y0146600D01*
X0101131Y0147194D01*
X0102228Y0148291D01*
X0102822Y0149724D01*
X0102822Y0157276D01*
X0102228Y0158709D01*
X0101131Y0159806D01*
X0099697Y0160400D01*
X0098146Y0160400D01*
X0096713Y0159806D01*
X0096222Y0159316D02*
X0092187Y0159316D01*
X0092618Y0158717D02*
X0095623Y0158717D01*
X0095371Y0158119D02*
X0092917Y0158119D01*
X0093112Y0157520D02*
X0095123Y0157520D01*
X0095022Y0156922D02*
X0093209Y0156922D01*
X0093222Y0156323D02*
X0095022Y0156323D01*
X0095022Y0155725D02*
X0093222Y0155725D01*
X0093222Y0155126D02*
X0095022Y0155126D01*
X0095022Y0154528D02*
X0093222Y0154528D01*
X0093222Y0153929D02*
X0095022Y0153929D01*
X0095022Y0153331D02*
X0089222Y0153331D01*
X0089222Y0153200D02*
X0089222Y0153800D01*
X0088622Y0153800D01*
X0088622Y0160800D01*
X0088583Y0160800D01*
X0087915Y0160694D01*
X0087271Y0160485D01*
X0086668Y0160178D01*
X0086120Y0159780D01*
X0085642Y0159301D01*
X0085244Y0158754D01*
X0084937Y0158151D01*
X0084728Y0157507D01*
X0084622Y0156838D01*
X0084622Y0153800D01*
X0088622Y0153800D01*
X0088622Y0153200D01*
X0089222Y0153200D01*
X0093222Y0153200D01*
X0093222Y0150162D01*
X0093116Y0149493D01*
X0092907Y0148849D01*
X0092599Y0148246D01*
X0092202Y0147699D01*
X0091723Y0147220D01*
X0091175Y0146822D01*
X0090572Y0146515D01*
X0089929Y0146306D01*
X0089260Y0146200D01*
X0089222Y0146200D01*
X0089222Y0153200D01*
X0089222Y0152732D02*
X0088622Y0152732D01*
X0088622Y0153200D02*
X0088622Y0146200D01*
X0088583Y0146200D01*
X0087915Y0146306D01*
X0087271Y0146515D01*
X0086668Y0146822D01*
X0086120Y0147220D01*
X0085642Y0147699D01*
X0085244Y0148246D01*
X0084937Y0148849D01*
X0084728Y0149493D01*
X0084622Y0150162D01*
X0084622Y0153200D01*
X0088622Y0153200D01*
X0088622Y0153331D02*
X0082222Y0153331D01*
X0082222Y0153929D02*
X0084622Y0153929D01*
X0084622Y0154528D02*
X0082222Y0154528D01*
X0082222Y0155126D02*
X0084622Y0155126D01*
X0084622Y0155725D02*
X0082222Y0155725D01*
X0082222Y0156323D02*
X0084622Y0156323D01*
X0084635Y0156922D02*
X0082222Y0156922D01*
X0082222Y0157520D02*
X0084732Y0157520D01*
X0084926Y0158119D02*
X0082222Y0158119D01*
X0082222Y0158717D02*
X0085225Y0158717D01*
X0085656Y0159316D02*
X0082222Y0159316D01*
X0082222Y0159914D02*
X0086305Y0159914D01*
X0087356Y0160513D02*
X0082222Y0160513D01*
X0088622Y0160513D02*
X0089222Y0160513D01*
X0089222Y0159914D02*
X0088622Y0159914D01*
X0088622Y0159316D02*
X0089222Y0159316D01*
X0089222Y0158717D02*
X0088622Y0158717D01*
X0088622Y0158119D02*
X0089222Y0158119D01*
X0089222Y0157520D02*
X0088622Y0157520D01*
X0088622Y0156922D02*
X0089222Y0156922D01*
X0089222Y0156323D02*
X0088622Y0156323D01*
X0088622Y0155725D02*
X0089222Y0155725D01*
X0089222Y0155126D02*
X0088622Y0155126D01*
X0088622Y0154528D02*
X0089222Y0154528D01*
X0089222Y0153929D02*
X0088622Y0153929D01*
X0088622Y0152134D02*
X0089222Y0152134D01*
X0089222Y0151535D02*
X0088622Y0151535D01*
X0088622Y0150937D02*
X0089222Y0150937D01*
X0089222Y0150338D02*
X0088622Y0150338D01*
X0088622Y0149739D02*
X0089222Y0149739D01*
X0089222Y0149141D02*
X0088622Y0149141D01*
X0088622Y0148542D02*
X0089222Y0148542D01*
X0089222Y0147944D02*
X0088622Y0147944D01*
X0088622Y0147345D02*
X0089222Y0147345D01*
X0089222Y0146747D02*
X0088622Y0146747D01*
X0086816Y0146747D02*
X0082222Y0146747D01*
X0082222Y0147345D02*
X0085995Y0147345D01*
X0085464Y0147944D02*
X0082222Y0147944D01*
X0082222Y0148542D02*
X0085093Y0148542D01*
X0084842Y0149141D02*
X0082222Y0149141D01*
X0082222Y0149739D02*
X0084689Y0149739D01*
X0084622Y0150338D02*
X0082222Y0150338D01*
X0082222Y0150937D02*
X0084622Y0150937D01*
X0084622Y0151535D02*
X0082222Y0151535D01*
X0082222Y0152134D02*
X0084622Y0152134D01*
X0084622Y0152732D02*
X0082222Y0152732D01*
X0093222Y0152732D02*
X0095022Y0152732D01*
X0095022Y0152134D02*
X0093222Y0152134D01*
X0093222Y0151535D02*
X0095022Y0151535D01*
X0095022Y0150937D02*
X0093222Y0150937D01*
X0093222Y0150338D02*
X0095022Y0150338D01*
X0095022Y0149739D02*
X0093155Y0149739D01*
X0093001Y0149141D02*
X0095263Y0149141D01*
X0095511Y0148542D02*
X0092750Y0148542D01*
X0092380Y0147944D02*
X0095962Y0147944D01*
X0096561Y0147345D02*
X0091848Y0147345D01*
X0091027Y0146747D02*
X0097791Y0146747D01*
X0100052Y0146747D02*
X0116628Y0146747D01*
X0116628Y0147345D02*
X0101283Y0147345D01*
X0101881Y0147944D02*
X0116628Y0147944D01*
X0116628Y0148542D02*
X0102332Y0148542D01*
X0102580Y0149141D02*
X0116628Y0149141D01*
X0116628Y0149739D02*
X0102822Y0149739D01*
X0102822Y0150338D02*
X0116628Y0150338D01*
X0116628Y0150937D02*
X0102822Y0150937D01*
X0102822Y0151535D02*
X0116628Y0151535D01*
X0116193Y0152134D02*
X0102822Y0152134D01*
X0102822Y0152732D02*
X0115639Y0152732D01*
X0115639Y0153331D02*
X0102822Y0153331D01*
X0102822Y0153929D02*
X0115639Y0153929D01*
X0115667Y0154528D02*
X0102822Y0154528D01*
X0102822Y0155126D02*
X0116265Y0155126D01*
X0116864Y0155725D02*
X0102822Y0155725D01*
X0102822Y0156323D02*
X0144402Y0156323D01*
X0145000Y0155725D02*
X0118793Y0155725D01*
X0119391Y0155126D02*
X0152241Y0155126D01*
X0152233Y0154528D02*
X0119990Y0154528D01*
X0120017Y0153929D02*
X0152233Y0153929D01*
X0152233Y0153331D02*
X0120017Y0153331D01*
X0120017Y0152732D02*
X0152805Y0152732D01*
X0153404Y0152134D02*
X0119464Y0152134D01*
X0119028Y0151535D02*
X0182598Y0151535D01*
X0182000Y0152134D02*
X0165940Y0152134D01*
X0166538Y0152732D02*
X0181401Y0152732D01*
X0180803Y0153331D02*
X0167111Y0153331D01*
X0167111Y0153929D02*
X0180204Y0153929D01*
X0179606Y0154528D02*
X0167111Y0154528D01*
X0167102Y0155126D02*
X0179007Y0155126D01*
X0179431Y0156400D02*
X0197244Y0138587D01*
X0197244Y0131500D01*
X0195659Y0129989D02*
X0140122Y0129989D01*
X0140122Y0130587D02*
X0195061Y0130587D01*
X0195055Y0131186D02*
X0140122Y0131186D01*
X0141211Y0131784D02*
X0195055Y0131784D01*
X0195055Y0132383D02*
X0141810Y0132383D01*
X0142357Y0132981D02*
X0195629Y0132981D01*
X0196044Y0133580D02*
X0142605Y0133580D01*
X0142853Y0134178D02*
X0196044Y0134178D01*
X0196044Y0134777D02*
X0143022Y0134777D01*
X0143022Y0135375D02*
X0196044Y0135375D01*
X0196044Y0135974D02*
X0167338Y0135974D01*
X0165981Y0135974D02*
X0165981Y0135974D01*
X0165981Y0136572D02*
X0165981Y0136572D01*
X0165981Y0137171D02*
X0165981Y0137171D01*
X0165981Y0137769D02*
X0165981Y0137769D01*
X0165981Y0138368D02*
X0165981Y0138368D01*
X0165981Y0138966D02*
X0165981Y0138966D01*
X0165981Y0138988D02*
X0165981Y0142237D01*
X0165981Y0138988D01*
X0165981Y0138988D01*
X0165981Y0139565D02*
X0165981Y0139565D01*
X0165981Y0140163D02*
X0165981Y0140163D01*
X0165981Y0140762D02*
X0165981Y0140762D01*
X0165981Y0141360D02*
X0165981Y0141360D01*
X0165981Y0141959D02*
X0165981Y0141959D01*
X0165981Y0142237D02*
X0165210Y0142237D01*
X0164879Y0142149D01*
X0164622Y0142000D01*
X0164622Y0144003D01*
X0165841Y0145222D01*
X0171026Y0145222D01*
X0171471Y0144777D01*
X0169502Y0144777D01*
X0168043Y0143318D01*
X0167340Y0142615D01*
X0167340Y0142000D01*
X0167083Y0142149D01*
X0166752Y0142237D01*
X0165981Y0142237D01*
X0164622Y0142557D02*
X0167340Y0142557D01*
X0167881Y0143156D02*
X0164622Y0143156D01*
X0164622Y0143754D02*
X0168479Y0143754D01*
X0169078Y0144353D02*
X0164972Y0144353D01*
X0165570Y0144951D02*
X0171297Y0144951D01*
X0169999Y0143577D02*
X0168540Y0142118D01*
X0168540Y0138987D01*
X0171099Y0138987D02*
X0171909Y0138987D01*
X0171922Y0139000D01*
X0171112Y0139000D01*
X0171922Y0139000D02*
X0177422Y0139000D01*
X0179611Y0138966D02*
X0195167Y0138966D01*
X0195766Y0138368D02*
X0179611Y0138368D01*
X0179611Y0137769D02*
X0196044Y0137769D01*
X0196044Y0137171D02*
X0179443Y0137171D01*
X0179611Y0139565D02*
X0194569Y0139565D01*
X0193970Y0140163D02*
X0179611Y0140163D01*
X0179511Y0140762D02*
X0193372Y0140762D01*
X0192773Y0141360D02*
X0172549Y0141360D01*
X0172599Y0140762D02*
X0175333Y0140762D01*
X0173733Y0141959D02*
X0170078Y0141959D01*
X0169999Y0143577D02*
X0175922Y0143577D01*
X0178111Y0143754D02*
X0190379Y0143754D01*
X0190978Y0143156D02*
X0178111Y0143156D01*
X0178111Y0142557D02*
X0191576Y0142557D01*
X0192175Y0141959D02*
X0178111Y0141959D01*
X0178111Y0144353D02*
X0189781Y0144353D01*
X0189182Y0144951D02*
X0178111Y0144951D01*
X0177800Y0145550D02*
X0188584Y0145550D01*
X0187985Y0146148D02*
X0175111Y0146148D01*
X0175111Y0146747D02*
X0187387Y0146747D01*
X0186788Y0147345D02*
X0175094Y0147345D01*
X0174495Y0147944D02*
X0186190Y0147944D01*
X0185591Y0148542D02*
X0173897Y0148542D01*
X0172111Y0149141D02*
X0184992Y0149141D01*
X0184394Y0149739D02*
X0171889Y0149739D01*
X0171290Y0150338D02*
X0183795Y0150338D01*
X0183197Y0150937D02*
X0119028Y0150937D01*
X0117828Y0153593D02*
X0117828Y0136093D01*
X0118422Y0135500D01*
X0115351Y0132429D01*
X0115351Y0103571D01*
X0117653Y0101260D02*
X0135922Y0101260D01*
X0135922Y0100662D02*
X0116851Y0100662D01*
X0118172Y0101859D02*
X0146159Y0101859D01*
X0148573Y0104253D02*
X0158818Y0104253D01*
X0158733Y0104851D02*
X0147975Y0104851D01*
X0147376Y0105450D02*
X0158733Y0105450D01*
X0158733Y0106048D02*
X0146778Y0106048D01*
X0146179Y0106647D02*
X0158733Y0106647D01*
X0158733Y0107245D02*
X0145581Y0107245D01*
X0149172Y0103654D02*
X0178733Y0103654D01*
X0178733Y0103056D02*
X0149770Y0103056D01*
X0150369Y0102457D02*
X0178733Y0102457D01*
X0178733Y0101859D02*
X0150967Y0101859D01*
X0151422Y0099000D02*
X0151672Y0098750D01*
X0153361Y0099465D02*
X0244622Y0099465D01*
X0244622Y0098866D02*
X0153960Y0098866D01*
X0154558Y0098268D02*
X0244622Y0098268D01*
X0244622Y0097669D02*
X0155157Y0097669D01*
X0155755Y0097070D02*
X0244622Y0097070D01*
X0244622Y0096472D02*
X0156354Y0096472D01*
X0156952Y0095873D02*
X0244622Y0095873D01*
X0244622Y0095275D02*
X0157551Y0095275D01*
X0158149Y0094676D02*
X0244622Y0094676D01*
X0244622Y0094078D02*
X0158748Y0094078D01*
X0159346Y0093479D02*
X0244622Y0093479D01*
X0244622Y0092881D02*
X0159945Y0092881D01*
X0160543Y0092282D02*
X0244622Y0092282D01*
X0244622Y0091684D02*
X0161142Y0091684D01*
X0161741Y0091085D02*
X0244622Y0091085D01*
X0244622Y0090487D02*
X0162339Y0090487D01*
X0162938Y0089888D02*
X0244622Y0089888D01*
X0244622Y0089290D02*
X0163536Y0089290D01*
X0164135Y0088691D02*
X0244622Y0088691D01*
X0244622Y0088093D02*
X0164733Y0088093D01*
X0165332Y0087494D02*
X0244622Y0087494D01*
X0244087Y0086896D02*
X0165930Y0086896D01*
X0166529Y0086297D02*
X0243488Y0086297D01*
X0242890Y0085699D02*
X0167127Y0085699D01*
X0167726Y0085100D02*
X0242291Y0085100D01*
X0241693Y0084502D02*
X0168324Y0084502D01*
X0168923Y0083903D02*
X0241094Y0083903D01*
X0240496Y0083305D02*
X0169521Y0083305D01*
X0170120Y0082706D02*
X0239897Y0082706D01*
X0239299Y0082108D02*
X0170718Y0082108D01*
X0171317Y0081509D02*
X0238700Y0081509D01*
X0238102Y0080911D02*
X0171915Y0080911D01*
X0172514Y0080312D02*
X0237503Y0080312D01*
X0236905Y0079714D02*
X0173112Y0079714D01*
X0173711Y0079115D02*
X0221018Y0079115D01*
X0219109Y0078517D02*
X0174309Y0078517D01*
X0174908Y0077918D02*
X0218073Y0077918D01*
X0217036Y0077320D02*
X0175506Y0077320D01*
X0176105Y0076721D02*
X0216171Y0076721D01*
X0215572Y0076123D02*
X0176703Y0076123D01*
X0177302Y0075524D02*
X0214974Y0075524D01*
X0214375Y0074926D02*
X0202592Y0074926D01*
X0203190Y0074327D02*
X0213857Y0074327D01*
X0213511Y0073729D02*
X0203611Y0073729D01*
X0203611Y0073130D02*
X0213166Y0073130D01*
X0212820Y0072532D02*
X0203611Y0072532D01*
X0203450Y0071933D02*
X0212475Y0071933D01*
X0211869Y0070137D02*
X0142422Y0070137D01*
X0142422Y0069539D02*
X0211709Y0069539D01*
X0211548Y0068940D02*
X0142422Y0068940D01*
X0135922Y0068940D02*
X0109603Y0068940D01*
X0109851Y0068342D02*
X0135922Y0068342D01*
X0135922Y0067743D02*
X0109997Y0067743D01*
X0109997Y0067145D02*
X0135922Y0067145D01*
X0135922Y0066546D02*
X0109997Y0066546D01*
X0109997Y0065948D02*
X0135922Y0065948D01*
X0135922Y0065349D02*
X0109997Y0065349D01*
X0109909Y0064751D02*
X0135922Y0064751D01*
X0135922Y0064152D02*
X0109661Y0064152D01*
X0109413Y0063554D02*
X0135922Y0063554D01*
X0135922Y0062955D02*
X0109165Y0062955D01*
X0108917Y0062357D02*
X0135922Y0062357D01*
X0135922Y0061758D02*
X0108427Y0061758D01*
X0108492Y0061160D02*
X0135922Y0061160D01*
X0135922Y0069539D02*
X0109355Y0069539D01*
X0109107Y0070137D02*
X0135922Y0070137D01*
X0135922Y0070736D02*
X0108859Y0070736D01*
X0108287Y0071334D02*
X0135922Y0071334D01*
X0135922Y0071933D02*
X0107688Y0071933D01*
X0107090Y0072532D02*
X0135922Y0072532D01*
X0135922Y0073130D02*
X0106192Y0073130D01*
X0104748Y0073729D02*
X0135922Y0073729D01*
X0135922Y0074327D02*
X0095325Y0074327D01*
X0094727Y0074926D02*
X0135922Y0074926D01*
X0135922Y0075524D02*
X0094128Y0075524D01*
X0093530Y0076123D02*
X0135922Y0076123D01*
X0135922Y0076721D02*
X0092931Y0076721D01*
X0092333Y0077320D02*
X0135922Y0077320D01*
X0135922Y0077918D02*
X0091734Y0077918D01*
X0091136Y0078517D02*
X0135922Y0078517D01*
X0135922Y0079115D02*
X0090537Y0079115D01*
X0089939Y0079714D02*
X0135922Y0079714D01*
X0135922Y0080312D02*
X0089340Y0080312D01*
X0088742Y0080911D02*
X0135922Y0080911D01*
X0135922Y0081509D02*
X0088143Y0081509D01*
X0087545Y0082108D02*
X0135922Y0082108D01*
X0135922Y0082706D02*
X0086946Y0082706D01*
X0086348Y0083305D02*
X0135922Y0083305D01*
X0135922Y0083903D02*
X0085749Y0083903D01*
X0085151Y0084502D02*
X0135922Y0084502D01*
X0135922Y0085100D02*
X0084552Y0085100D01*
X0083954Y0085699D02*
X0135922Y0085699D01*
X0135922Y0086297D02*
X0130457Y0086297D01*
X0130142Y0086167D02*
X0131341Y0086663D01*
X0132258Y0087581D01*
X0132755Y0088780D01*
X0132755Y0090078D01*
X0132258Y0091277D01*
X0131341Y0092194D01*
X0130142Y0092691D01*
X0128844Y0092691D01*
X0127645Y0092194D01*
X0126727Y0091277D01*
X0126231Y0090078D01*
X0126231Y0088780D01*
X0126727Y0087581D01*
X0127645Y0086663D01*
X0128844Y0086167D01*
X0130142Y0086167D01*
X0131573Y0086896D02*
X0135922Y0086896D01*
X0135922Y0087494D02*
X0132172Y0087494D01*
X0132470Y0088093D02*
X0135922Y0088093D01*
X0135922Y0088691D02*
X0132718Y0088691D01*
X0132755Y0089290D02*
X0135922Y0089290D01*
X0135922Y0089888D02*
X0132755Y0089888D01*
X0132586Y0090487D02*
X0135922Y0090487D01*
X0135922Y0091085D02*
X0132338Y0091085D01*
X0131851Y0091684D02*
X0135922Y0091684D01*
X0135922Y0092282D02*
X0131128Y0092282D01*
X0127857Y0092282D02*
X0082222Y0092282D01*
X0082222Y0091684D02*
X0127134Y0091684D01*
X0126648Y0091085D02*
X0082222Y0091085D01*
X0082222Y0090487D02*
X0126400Y0090487D01*
X0126231Y0089888D02*
X0082222Y0089888D01*
X0082222Y0089290D02*
X0126231Y0089290D01*
X0126267Y0088691D02*
X0082222Y0088691D01*
X0082222Y0088093D02*
X0126515Y0088093D01*
X0126814Y0087494D02*
X0082222Y0087494D01*
X0082757Y0086896D02*
X0127412Y0086896D01*
X0128529Y0086297D02*
X0083355Y0086297D01*
X0082222Y0092881D02*
X0121844Y0092881D01*
X0122061Y0092838D02*
X0122782Y0092838D01*
X0123490Y0092979D01*
X0124156Y0093255D01*
X0124756Y0093655D01*
X0124799Y0093698D01*
X0122422Y0096076D01*
X0122846Y0096500D01*
X0122422Y0096924D01*
X0124799Y0099302D01*
X0124756Y0099345D01*
X0124156Y0099745D01*
X0123490Y0100021D01*
X0122782Y0100162D01*
X0122061Y0100162D01*
X0121354Y0100021D01*
X0120687Y0099745D01*
X0120087Y0099345D01*
X0120044Y0099302D01*
X0122422Y0096924D01*
X0121997Y0096500D01*
X0119620Y0098877D01*
X0119577Y0098835D01*
X0119176Y0098235D01*
X0118900Y0097568D01*
X0118760Y0096861D01*
X0118760Y0096139D01*
X0118900Y0095432D01*
X0119176Y0094765D01*
X0119577Y0094165D01*
X0119620Y0094123D01*
X0121997Y0096500D01*
X0122422Y0096076D01*
X0120044Y0093698D01*
X0120087Y0093655D01*
X0120687Y0093255D01*
X0121354Y0092979D01*
X0122061Y0092838D01*
X0122999Y0092881D02*
X0135922Y0092881D01*
X0135922Y0093479D02*
X0124493Y0093479D01*
X0124420Y0094078D02*
X0135922Y0094078D01*
X0135922Y0094676D02*
X0125608Y0094676D01*
X0125667Y0094765D02*
X0125943Y0095432D01*
X0126084Y0096139D01*
X0126084Y0096861D01*
X0125943Y0097568D01*
X0125667Y0098235D01*
X0125266Y0098835D01*
X0125223Y0098877D01*
X0122846Y0096500D01*
X0125223Y0094123D01*
X0125266Y0094165D01*
X0125667Y0094765D01*
X0125878Y0095275D02*
X0135922Y0095275D01*
X0135922Y0095873D02*
X0126031Y0095873D01*
X0126084Y0096472D02*
X0135922Y0096472D01*
X0135922Y0097070D02*
X0126042Y0097070D01*
X0125901Y0097669D02*
X0135922Y0097669D01*
X0135922Y0098268D02*
X0125645Y0098268D01*
X0125235Y0098866D02*
X0135922Y0098866D01*
X0135922Y0099465D02*
X0124577Y0099465D01*
X0124364Y0098866D02*
X0125212Y0098866D01*
X0124613Y0098268D02*
X0123765Y0098268D01*
X0124015Y0097669D02*
X0123166Y0097669D01*
X0123416Y0097070D02*
X0122568Y0097070D01*
X0122275Y0097070D02*
X0121427Y0097070D01*
X0121677Y0097669D02*
X0120828Y0097669D01*
X0121078Y0098268D02*
X0120230Y0098268D01*
X0120480Y0098866D02*
X0119631Y0098866D01*
X0119609Y0098866D02*
X0082222Y0098866D01*
X0082222Y0098268D02*
X0119198Y0098268D01*
X0118942Y0097669D02*
X0082222Y0097669D01*
X0082222Y0097070D02*
X0118801Y0097070D01*
X0118760Y0096472D02*
X0082222Y0096472D01*
X0082222Y0095873D02*
X0118812Y0095873D01*
X0118965Y0095275D02*
X0082222Y0095275D01*
X0082222Y0094676D02*
X0119236Y0094676D01*
X0120174Y0094676D02*
X0121022Y0094676D01*
X0120772Y0095275D02*
X0121621Y0095275D01*
X0121371Y0095873D02*
X0122219Y0095873D01*
X0122624Y0095873D02*
X0123473Y0095873D01*
X0123223Y0095275D02*
X0124071Y0095275D01*
X0123821Y0094676D02*
X0124670Y0094676D01*
X0122874Y0096472D02*
X0122818Y0096472D01*
X0122025Y0096472D02*
X0121969Y0096472D01*
X0120424Y0094078D02*
X0082222Y0094078D01*
X0082222Y0093479D02*
X0120351Y0093479D01*
X0120267Y0099465D02*
X0082222Y0099465D01*
X0082222Y0100063D02*
X0121563Y0100063D01*
X0123281Y0100063D02*
X0135922Y0100063D01*
X0113850Y0100662D02*
X0082222Y0100662D01*
X0082222Y0101260D02*
X0113048Y0101260D01*
X0112529Y0101859D02*
X0082222Y0101859D01*
X0082222Y0102457D02*
X0112281Y0102457D01*
X0112088Y0103056D02*
X0082222Y0103056D01*
X0082222Y0103654D02*
X0112088Y0103654D01*
X0112102Y0104253D02*
X0082222Y0104253D01*
X0082222Y0104851D02*
X0112350Y0104851D01*
X0112616Y0105450D02*
X0082222Y0105450D01*
X0082222Y0106048D02*
X0113214Y0106048D01*
X0114151Y0106647D02*
X0082222Y0106647D01*
X0082222Y0107245D02*
X0114151Y0107245D01*
X0114151Y0107844D02*
X0082222Y0107844D01*
X0082222Y0108442D02*
X0114151Y0108442D01*
X0114151Y0109041D02*
X0082222Y0109041D01*
X0082222Y0109639D02*
X0114151Y0109639D01*
X0114151Y0110238D02*
X0082222Y0110238D01*
X0082222Y0110836D02*
X0114151Y0110836D01*
X0114151Y0111435D02*
X0082222Y0111435D01*
X0082222Y0112033D02*
X0114151Y0112033D01*
X0114151Y0112632D02*
X0082222Y0112632D01*
X0082222Y0113230D02*
X0114151Y0113230D01*
X0114151Y0113829D02*
X0082222Y0113829D01*
X0082222Y0114427D02*
X0114151Y0114427D01*
X0114151Y0115026D02*
X0082222Y0115026D01*
X0082222Y0115624D02*
X0114151Y0115624D01*
X0114151Y0116223D02*
X0082222Y0116223D01*
X0082222Y0116821D02*
X0114151Y0116821D01*
X0114151Y0117420D02*
X0082222Y0117420D01*
X0082222Y0118018D02*
X0114151Y0118018D01*
X0114151Y0118617D02*
X0082222Y0118617D01*
X0082222Y0119215D02*
X0114151Y0119215D01*
X0114151Y0119814D02*
X0082222Y0119814D01*
X0082222Y0120412D02*
X0114151Y0120412D01*
X0114151Y0121011D02*
X0082222Y0121011D01*
X0082222Y0121609D02*
X0114151Y0121609D01*
X0114151Y0122208D02*
X0082222Y0122208D01*
X0082222Y0122806D02*
X0114151Y0122806D01*
X0114151Y0123405D02*
X0082222Y0123405D01*
X0082222Y0124003D02*
X0114151Y0124003D01*
X0114151Y0124602D02*
X0082222Y0124602D01*
X0082222Y0125201D02*
X0114151Y0125201D01*
X0114151Y0125799D02*
X0082222Y0125799D01*
X0082222Y0126398D02*
X0114151Y0126398D01*
X0114151Y0126996D02*
X0082222Y0126996D01*
X0082222Y0127595D02*
X0114151Y0127595D01*
X0114151Y0128193D02*
X0082222Y0128193D01*
X0082222Y0128792D02*
X0114151Y0128792D01*
X0114151Y0129390D02*
X0082222Y0129390D01*
X0082222Y0129989D02*
X0114151Y0129989D01*
X0114151Y0130587D02*
X0082222Y0130587D01*
X0082222Y0131186D02*
X0114151Y0131186D01*
X0114151Y0131784D02*
X0082222Y0131784D01*
X0082222Y0132383D02*
X0114151Y0132383D01*
X0114206Y0132981D02*
X0082222Y0132981D01*
X0082222Y0133580D02*
X0114238Y0133580D01*
X0113990Y0134178D02*
X0082222Y0134178D01*
X0082222Y0134777D02*
X0113822Y0134777D01*
X0113822Y0135375D02*
X0082222Y0135375D01*
X0082222Y0135974D02*
X0113822Y0135974D01*
X0113887Y0136572D02*
X0082222Y0136572D01*
X0082222Y0137171D02*
X0114135Y0137171D01*
X0114383Y0137769D02*
X0082222Y0137769D01*
X0082222Y0138368D02*
X0114784Y0138368D01*
X0115383Y0138966D02*
X0082222Y0138966D01*
X0082222Y0139565D02*
X0116215Y0139565D01*
X0116628Y0140163D02*
X0082222Y0140163D01*
X0082222Y0140762D02*
X0116628Y0140762D01*
X0116628Y0141360D02*
X0082222Y0141360D01*
X0082222Y0141959D02*
X0116628Y0141959D01*
X0116628Y0142557D02*
X0082222Y0142557D01*
X0082222Y0143156D02*
X0116628Y0143156D01*
X0116628Y0143754D02*
X0082222Y0143754D01*
X0082222Y0144353D02*
X0116628Y0144353D01*
X0116628Y0144951D02*
X0082222Y0144951D01*
X0082222Y0145550D02*
X0116628Y0145550D01*
X0116628Y0146148D02*
X0082222Y0146148D01*
X0102822Y0156922D02*
X0143803Y0156922D01*
X0143205Y0157520D02*
X0102721Y0157520D01*
X0102473Y0158119D02*
X0142606Y0158119D01*
X0142008Y0158717D02*
X0102220Y0158717D01*
X0101621Y0159316D02*
X0141409Y0159316D01*
X0140811Y0159914D02*
X0100870Y0159914D01*
X0100498Y0175475D02*
X0090128Y0175475D01*
X0090726Y0176074D02*
X0098265Y0176074D01*
X0096734Y0176672D02*
X0091325Y0176672D01*
X0091923Y0177271D02*
X0095698Y0177271D01*
X0094661Y0177870D02*
X0092522Y0177870D01*
X0093120Y0178468D02*
X0093934Y0178468D01*
X0104298Y0175475D02*
X0152302Y0175475D01*
X0154542Y0175475D02*
X0180222Y0175475D01*
X0180222Y0174877D02*
X0155140Y0174877D01*
X0155611Y0174278D02*
X0169470Y0174278D01*
X0169515Y0174324D02*
X0168834Y0173643D01*
X0170314Y0172164D01*
X0171793Y0173643D01*
X0171112Y0174324D01*
X0170815Y0174495D01*
X0170485Y0174584D01*
X0170143Y0174584D01*
X0169812Y0174495D01*
X0169515Y0174324D01*
X0168871Y0173680D02*
X0155611Y0173680D01*
X0155611Y0173081D02*
X0168273Y0173081D01*
X0168563Y0173371D02*
X0167881Y0172690D01*
X0167710Y0172394D01*
X0167622Y0172063D01*
X0167622Y0171721D01*
X0167708Y0171400D01*
X0167157Y0171400D01*
X0166637Y0170880D01*
X0165828Y0171689D01*
X0164015Y0171689D01*
X0162733Y0170407D01*
X0162733Y0168593D01*
X0164015Y0167311D01*
X0165828Y0167311D01*
X0166245Y0167728D01*
X0167157Y0166816D01*
X0167903Y0166816D01*
X0169822Y0168735D01*
X0169822Y0169286D01*
X0170143Y0169200D01*
X0170485Y0169200D01*
X0170815Y0169289D01*
X0171112Y0169460D01*
X0171793Y0170141D01*
X0170314Y0171620D01*
X0170585Y0171892D01*
X0170314Y0172164D01*
X0170042Y0171892D01*
X0168563Y0173371D01*
X0168852Y0173081D02*
X0169396Y0173081D01*
X0169451Y0172483D02*
X0169994Y0172483D01*
X0170633Y0172483D02*
X0171176Y0172483D01*
X0171231Y0173081D02*
X0171775Y0173081D01*
X0172065Y0173371D02*
X0170585Y0171892D01*
X0172065Y0170413D01*
X0172746Y0171094D01*
X0172917Y0171390D01*
X0173006Y0171721D01*
X0173006Y0172063D01*
X0172917Y0172394D01*
X0172746Y0172690D01*
X0172065Y0173371D01*
X0172355Y0173081D02*
X0180222Y0173081D01*
X0180222Y0172483D02*
X0172866Y0172483D01*
X0173006Y0171884D02*
X0180222Y0171884D01*
X0180222Y0171286D02*
X0172857Y0171286D01*
X0172340Y0170687D02*
X0180222Y0170687D01*
X0180222Y0170089D02*
X0171741Y0170089D01*
X0171790Y0170687D02*
X0171247Y0170687D01*
X0171191Y0171286D02*
X0170648Y0171286D01*
X0170593Y0171884D02*
X0170578Y0171884D01*
X0171756Y0173680D02*
X0180222Y0173680D01*
X0180222Y0174278D02*
X0171158Y0174278D01*
X0167762Y0172483D02*
X0155500Y0172483D01*
X0154902Y0171884D02*
X0167622Y0171884D01*
X0167043Y0171286D02*
X0166232Y0171286D01*
X0164922Y0169500D02*
X0165314Y0169108D01*
X0167530Y0169108D01*
X0168781Y0167695D02*
X0180222Y0167695D01*
X0180222Y0168293D02*
X0169380Y0168293D01*
X0169822Y0168892D02*
X0180222Y0168892D01*
X0180222Y0169490D02*
X0171143Y0169490D01*
X0168183Y0167096D02*
X0180222Y0167096D01*
X0180222Y0166498D02*
X0159199Y0166498D01*
X0159173Y0166524D02*
X0158876Y0166696D01*
X0158546Y0166784D01*
X0157582Y0166784D01*
X0157582Y0164692D01*
X0159674Y0164692D01*
X0159674Y0165655D01*
X0159586Y0165986D01*
X0159415Y0166282D01*
X0159173Y0166524D01*
X0159609Y0165899D02*
X0180222Y0165899D01*
X0180222Y0165301D02*
X0159674Y0165301D01*
X0159674Y0164702D02*
X0180222Y0164702D01*
X0180222Y0164104D02*
X0163603Y0164104D01*
X0164201Y0163505D02*
X0180222Y0163505D01*
X0180222Y0162907D02*
X0164611Y0162907D01*
X0164611Y0162308D02*
X0180222Y0162308D01*
X0180222Y0161710D02*
X0164611Y0161710D01*
X0162422Y0162189D02*
X0155764Y0162189D01*
X0153453Y0164500D01*
X0153441Y0164513D01*
X0150099Y0164513D01*
X0150099Y0170177D01*
X0153422Y0173500D01*
X0152905Y0171286D02*
X0163612Y0171286D01*
X0163013Y0170687D02*
X0152306Y0170687D01*
X0151708Y0170089D02*
X0162733Y0170089D01*
X0162733Y0169490D02*
X0151299Y0169490D01*
X0151299Y0168892D02*
X0162733Y0168892D01*
X0163033Y0168293D02*
X0151299Y0168293D01*
X0151299Y0167695D02*
X0163631Y0167695D01*
X0166212Y0167695D02*
X0166278Y0167695D01*
X0166877Y0167096D02*
X0151338Y0167096D01*
X0151599Y0166498D02*
X0155581Y0166498D01*
X0157198Y0166498D02*
X0157582Y0166498D01*
X0157582Y0165899D02*
X0157198Y0165899D01*
X0157198Y0165301D02*
X0157582Y0165301D01*
X0157582Y0164702D02*
X0157198Y0164702D01*
X0159674Y0164104D02*
X0161241Y0164104D01*
X0160642Y0163505D02*
X0159674Y0163505D01*
X0151611Y0165899D02*
X0151599Y0165899D01*
X0148860Y0167096D02*
X0148779Y0167096D01*
X0146301Y0167096D02*
X0146220Y0167096D01*
X0143742Y0167096D02*
X0143661Y0167096D01*
X0141183Y0167096D02*
X0141102Y0167096D01*
X0138624Y0167096D02*
X0138543Y0167096D01*
X0139863Y0164513D02*
X0139863Y0162559D01*
X0146022Y0156400D01*
X0179431Y0156400D01*
X0180922Y0160000D02*
X0200581Y0140340D01*
X0203922Y0140340D01*
X0206111Y0140163D02*
X0206489Y0140163D01*
X0206111Y0140762D02*
X0207963Y0140762D01*
X0208354Y0140163D02*
X0208561Y0140163D01*
X0207364Y0141360D02*
X0205998Y0141360D01*
X0208364Y0143754D02*
X0244622Y0143754D01*
X0244622Y0143156D02*
X0208963Y0143156D01*
X0209561Y0142557D02*
X0244622Y0142557D01*
X0244622Y0141959D02*
X0210160Y0141959D01*
X0210758Y0141360D02*
X0244622Y0141360D01*
X0244622Y0140762D02*
X0211357Y0140762D01*
X0211955Y0140163D02*
X0244622Y0140163D01*
X0244622Y0139565D02*
X0241911Y0139565D01*
X0241825Y0139651D02*
X0240843Y0140057D01*
X0237024Y0140057D01*
X0236042Y0139651D01*
X0235291Y0138899D01*
X0234884Y0137917D01*
X0234884Y0136854D01*
X0235291Y0135872D01*
X0236042Y0135121D01*
X0237024Y0134714D01*
X0240843Y0134714D01*
X0241825Y0135121D01*
X0242576Y0135872D01*
X0242983Y0136854D01*
X0242983Y0137917D01*
X0242576Y0138899D01*
X0241825Y0139651D01*
X0242509Y0138966D02*
X0244622Y0138966D01*
X0244622Y0138368D02*
X0242797Y0138368D01*
X0242983Y0137769D02*
X0244622Y0137769D01*
X0244622Y0137171D02*
X0242983Y0137171D01*
X0242866Y0136572D02*
X0244622Y0136572D01*
X0244622Y0135974D02*
X0242618Y0135974D01*
X0242079Y0135375D02*
X0244622Y0135375D01*
X0244622Y0134777D02*
X0240994Y0134777D01*
X0244622Y0134178D02*
X0213811Y0134178D01*
X0213811Y0133580D02*
X0244622Y0133580D01*
X0244622Y0132981D02*
X0213811Y0132981D01*
X0213811Y0132383D02*
X0244622Y0132383D01*
X0244622Y0131784D02*
X0213811Y0131784D01*
X0213811Y0131186D02*
X0244622Y0131186D01*
X0244622Y0130587D02*
X0213811Y0130587D01*
X0213811Y0129989D02*
X0244622Y0129989D01*
X0244622Y0129390D02*
X0213811Y0129390D01*
X0213811Y0128792D02*
X0244622Y0128792D01*
X0244622Y0128193D02*
X0213811Y0128193D01*
X0214112Y0127595D02*
X0244622Y0127595D01*
X0244622Y0126996D02*
X0214710Y0126996D01*
X0214800Y0126398D02*
X0244622Y0126398D01*
X0244622Y0125799D02*
X0214800Y0125799D01*
X0214800Y0125201D02*
X0244622Y0125201D01*
X0244622Y0124602D02*
X0214308Y0124602D01*
X0213710Y0124003D02*
X0244622Y0124003D01*
X0236873Y0134777D02*
X0213811Y0134777D01*
X0213811Y0135375D02*
X0235788Y0135375D01*
X0235249Y0135974D02*
X0213811Y0135974D01*
X0213811Y0136572D02*
X0235001Y0136572D01*
X0234884Y0137171D02*
X0213811Y0137171D01*
X0213811Y0137769D02*
X0234884Y0137769D01*
X0235071Y0138368D02*
X0213751Y0138368D01*
X0213152Y0138966D02*
X0235358Y0138966D01*
X0235956Y0139565D02*
X0212554Y0139565D01*
X0212611Y0137811D02*
X0212611Y0126000D01*
X0200422Y0132500D02*
X0200422Y0137106D01*
X0196044Y0136572D02*
X0172507Y0136572D01*
X0172599Y0137171D02*
X0175400Y0137171D01*
X0175233Y0137769D02*
X0172599Y0137769D01*
X0164623Y0135974D02*
X0143022Y0135974D01*
X0142957Y0136572D02*
X0154337Y0136572D01*
X0154245Y0137171D02*
X0142709Y0137171D01*
X0142461Y0137769D02*
X0154245Y0137769D01*
X0154245Y0138368D02*
X0142059Y0138368D01*
X0141461Y0138966D02*
X0154222Y0138966D01*
X0154222Y0139565D02*
X0140629Y0139565D01*
X0136215Y0139565D02*
X0131334Y0139565D01*
X0132027Y0138966D02*
X0135383Y0138966D01*
X0134784Y0138368D02*
X0132519Y0138368D01*
X0132877Y0137769D02*
X0134383Y0137769D01*
X0134135Y0137171D02*
X0133136Y0137171D01*
X0133314Y0136572D02*
X0133887Y0136572D01*
X0133822Y0135974D02*
X0133409Y0135974D01*
X0130250Y0140163D02*
X0154222Y0140163D01*
X0155422Y0140500D02*
X0155422Y0139310D01*
X0155745Y0138987D02*
X0155745Y0140177D01*
X0155422Y0140500D01*
X0155422Y0145500D01*
X0157427Y0147345D02*
X0157719Y0147345D01*
X0155440Y0152134D02*
X0163904Y0152134D01*
X0163305Y0152732D02*
X0156038Y0152732D01*
X0154422Y0154211D02*
X0164922Y0154211D01*
X0165344Y0146422D02*
X0163422Y0144500D01*
X0165344Y0146422D02*
X0172922Y0146422D01*
X0188591Y0155725D02*
X0192722Y0155725D01*
X0192722Y0156323D02*
X0187993Y0156323D01*
X0187394Y0156922D02*
X0192722Y0156922D01*
X0192722Y0157520D02*
X0186796Y0157520D01*
X0186197Y0158119D02*
X0192722Y0158119D01*
X0192722Y0158497D02*
X0192722Y0154503D01*
X0195722Y0151503D01*
X0196425Y0150800D01*
X0200203Y0150800D01*
X0200330Y0150927D01*
X0200441Y0150816D01*
X0201186Y0150816D01*
X0203106Y0152735D01*
X0203106Y0153481D01*
X0202995Y0153592D01*
X0203330Y0153927D01*
X0203441Y0153816D01*
X0204186Y0153816D01*
X0206106Y0155735D01*
X0206106Y0156481D01*
X0205995Y0156592D01*
X0206330Y0156927D01*
X0206441Y0156816D01*
X0207186Y0156816D01*
X0209106Y0158735D01*
X0209106Y0159311D01*
X0210584Y0159311D01*
X0211111Y0159838D01*
X0211111Y0163162D01*
X0210584Y0163689D01*
X0207260Y0163689D01*
X0206733Y0163162D01*
X0206733Y0161400D01*
X0206636Y0161400D01*
X0206722Y0161721D01*
X0206722Y0162063D01*
X0206633Y0162394D01*
X0206462Y0162690D01*
X0205781Y0163371D01*
X0204302Y0161892D01*
X0204030Y0162164D01*
X0205509Y0163643D01*
X0204828Y0164324D01*
X0204532Y0164495D01*
X0204201Y0164584D01*
X0203859Y0164584D01*
X0203528Y0164495D01*
X0203232Y0164324D01*
X0202737Y0163829D01*
X0202737Y0164675D01*
X0202261Y0165151D01*
X0202425Y0165315D01*
X0204579Y0165315D01*
X0205106Y0165843D01*
X0205106Y0169166D01*
X0204579Y0169693D01*
X0201256Y0169693D01*
X0200728Y0169166D01*
X0200728Y0167013D01*
X0200564Y0166848D01*
X0200097Y0167315D01*
X0198989Y0167315D01*
X0196349Y0164675D01*
X0196349Y0163567D01*
X0198989Y0160928D01*
X0199835Y0160928D01*
X0199550Y0160643D01*
X0201030Y0159164D01*
X0202377Y0160511D01*
X0203758Y0161892D01*
X0204030Y0161620D01*
X0202649Y0160240D01*
X0201302Y0158892D01*
X0201030Y0159164D01*
X0200758Y0158892D01*
X0199279Y0160371D01*
X0198598Y0159690D01*
X0198494Y0159511D01*
X0198494Y0160433D01*
X0195854Y0163072D01*
X0194746Y0163072D01*
X0192107Y0160433D01*
X0192107Y0159325D01*
X0192828Y0158603D01*
X0192722Y0158497D01*
X0192714Y0158717D02*
X0185599Y0158717D01*
X0185000Y0159316D02*
X0192116Y0159316D01*
X0192107Y0159914D02*
X0184402Y0159914D01*
X0183803Y0160513D02*
X0192187Y0160513D01*
X0192785Y0161111D02*
X0183205Y0161111D01*
X0182622Y0161710D02*
X0193384Y0161710D01*
X0193982Y0162308D02*
X0182622Y0162308D01*
X0182622Y0162907D02*
X0194581Y0162907D01*
X0196020Y0162907D02*
X0197010Y0162907D01*
X0196619Y0162308D02*
X0197608Y0162308D01*
X0197217Y0161710D02*
X0198207Y0161710D01*
X0197816Y0161111D02*
X0198805Y0161111D01*
X0198414Y0160513D02*
X0199681Y0160513D01*
X0199736Y0159914D02*
X0200279Y0159914D01*
X0200334Y0159316D02*
X0200878Y0159316D01*
X0201182Y0159316D02*
X0201725Y0159316D01*
X0201780Y0159914D02*
X0202324Y0159914D01*
X0202379Y0160513D02*
X0202922Y0160513D01*
X0202977Y0161111D02*
X0203521Y0161111D01*
X0203576Y0161710D02*
X0203940Y0161710D01*
X0204030Y0161892D02*
X0201030Y0158892D01*
X0198030Y0155892D01*
X0197925Y0155725D02*
X0197591Y0155725D01*
X0197758Y0155892D02*
X0198030Y0155620D01*
X0196550Y0154141D01*
X0197232Y0153460D01*
X0197528Y0153289D01*
X0197859Y0153200D01*
X0198201Y0153200D01*
X0198522Y0153286D01*
X0198522Y0153200D01*
X0197419Y0153200D01*
X0195122Y0155497D01*
X0195122Y0156685D01*
X0195595Y0156685D01*
X0195426Y0156394D01*
X0195338Y0156063D01*
X0195338Y0155721D01*
X0195426Y0155390D01*
X0195598Y0155094D01*
X0196279Y0154413D01*
X0197758Y0155892D01*
X0198030Y0156164D02*
X0199435Y0157569D01*
X0200758Y0158892D01*
X0201030Y0158620D01*
X0199707Y0157297D01*
X0198302Y0155892D01*
X0198030Y0156164D01*
X0198189Y0156323D02*
X0198733Y0156323D01*
X0198788Y0156922D02*
X0199331Y0156922D01*
X0199386Y0157520D02*
X0199930Y0157520D01*
X0199985Y0158119D02*
X0200528Y0158119D01*
X0200583Y0158717D02*
X0200933Y0158717D01*
X0198822Y0159914D02*
X0198494Y0159914D01*
X0195300Y0159879D02*
X0195300Y0159379D01*
X0193922Y0158000D01*
X0193922Y0155000D01*
X0196922Y0152000D01*
X0199706Y0152000D01*
X0200814Y0153108D01*
X0203814Y0156108D01*
X0206814Y0159108D01*
X0208922Y0161216D01*
X0208922Y0161500D01*
X0211111Y0161710D02*
X0225151Y0161710D01*
X0225749Y0162308D02*
X0211111Y0162308D01*
X0211111Y0162907D02*
X0226348Y0162907D01*
X0226946Y0163505D02*
X0210767Y0163505D01*
X0211111Y0161111D02*
X0224552Y0161111D01*
X0223953Y0160513D02*
X0211111Y0160513D01*
X0211111Y0159914D02*
X0223355Y0159914D01*
X0222756Y0159316D02*
X0210588Y0159316D01*
X0209088Y0158717D02*
X0222158Y0158717D01*
X0221559Y0158119D02*
X0208489Y0158119D01*
X0207891Y0157520D02*
X0220961Y0157520D01*
X0220362Y0156922D02*
X0207292Y0156922D01*
X0206335Y0156922D02*
X0206324Y0156922D01*
X0206106Y0156323D02*
X0219764Y0156323D01*
X0219165Y0155725D02*
X0206095Y0155725D01*
X0205496Y0155126D02*
X0218567Y0155126D01*
X0217968Y0154528D02*
X0204898Y0154528D01*
X0204299Y0153929D02*
X0216186Y0153929D01*
X0215588Y0153331D02*
X0203106Y0153331D01*
X0203102Y0152732D02*
X0214989Y0152732D01*
X0214522Y0152134D02*
X0202504Y0152134D01*
X0201905Y0151535D02*
X0213226Y0151535D01*
X0212628Y0150937D02*
X0201307Y0150937D01*
X0197455Y0153331D02*
X0197288Y0153331D01*
X0196762Y0153929D02*
X0196690Y0153929D01*
X0196937Y0154528D02*
X0196394Y0154528D01*
X0196164Y0154528D02*
X0196091Y0154528D01*
X0195579Y0155126D02*
X0195493Y0155126D01*
X0195338Y0155725D02*
X0195122Y0155725D01*
X0195122Y0156323D02*
X0195408Y0156323D01*
X0196992Y0155126D02*
X0197536Y0155126D01*
X0195091Y0152134D02*
X0192182Y0152134D01*
X0191584Y0152732D02*
X0194493Y0152732D01*
X0193894Y0153331D02*
X0190985Y0153331D01*
X0190387Y0153929D02*
X0193296Y0153929D01*
X0192722Y0154528D02*
X0189788Y0154528D01*
X0189190Y0155126D02*
X0192722Y0155126D01*
X0192781Y0151535D02*
X0195690Y0151535D01*
X0196288Y0150937D02*
X0193379Y0150937D01*
X0193978Y0150338D02*
X0212029Y0150338D01*
X0212279Y0150587D02*
X0211598Y0149906D01*
X0211426Y0149610D01*
X0211338Y0149279D01*
X0211338Y0148937D01*
X0211426Y0148606D01*
X0211598Y0148310D01*
X0212279Y0147629D01*
X0213758Y0149108D01*
X0212279Y0150587D01*
X0212528Y0150338D02*
X0213072Y0150338D01*
X0213127Y0149739D02*
X0213670Y0149739D01*
X0213725Y0149141D02*
X0213791Y0149141D01*
X0214030Y0149108D02*
X0216020Y0147118D01*
X0216020Y0146897D01*
X0215509Y0147357D02*
X0214030Y0148836D01*
X0212550Y0147357D01*
X0213232Y0146676D01*
X0213528Y0146505D01*
X0213859Y0146416D01*
X0214201Y0146416D01*
X0214532Y0146505D01*
X0214828Y0146676D01*
X0215509Y0147357D01*
X0215498Y0147345D02*
X0244622Y0147345D01*
X0244622Y0146747D02*
X0214899Y0146747D01*
X0214922Y0147944D02*
X0215466Y0147944D01*
X0216096Y0147944D02*
X0217127Y0147944D01*
X0216733Y0148542D02*
X0216596Y0148542D01*
X0216722Y0149141D02*
X0216733Y0149141D01*
X0214867Y0148542D02*
X0214324Y0148542D01*
X0213736Y0148542D02*
X0213192Y0148542D01*
X0213137Y0147944D02*
X0212594Y0147944D01*
X0212562Y0147345D02*
X0196970Y0147345D01*
X0197569Y0146747D02*
X0213160Y0146747D01*
X0211963Y0147944D02*
X0196372Y0147944D01*
X0195773Y0148542D02*
X0211463Y0148542D01*
X0211338Y0149141D02*
X0195175Y0149141D01*
X0194576Y0149739D02*
X0211501Y0149739D01*
X0216814Y0151892D02*
X0217030Y0151892D01*
X0230422Y0165284D01*
X0230422Y0172000D01*
X0228922Y0173500D01*
X0224922Y0173500D01*
X0226402Y0171884D02*
X0228840Y0171884D01*
X0229222Y0171286D02*
X0182622Y0171286D01*
X0182622Y0171884D02*
X0223442Y0171884D01*
X0222843Y0172483D02*
X0182622Y0172483D01*
X0182622Y0173081D02*
X0222733Y0173081D01*
X0222733Y0173680D02*
X0182622Y0173680D01*
X0182622Y0174278D02*
X0222733Y0174278D01*
X0223203Y0174877D02*
X0182622Y0174877D01*
X0182622Y0175475D02*
X0222545Y0175475D01*
X0220312Y0176074D02*
X0182622Y0176074D01*
X0182622Y0176672D02*
X0218782Y0176672D01*
X0217745Y0177271D02*
X0182622Y0177271D01*
X0182622Y0177870D02*
X0186087Y0177870D01*
X0187552Y0179500D02*
X0168422Y0198630D01*
X0168422Y0205500D01*
X0172274Y0205401D02*
X0206790Y0205401D01*
X0206192Y0206000D02*
X0172274Y0206000D01*
X0172137Y0206598D02*
X0205593Y0206598D01*
X0204995Y0207197D02*
X0171889Y0207197D01*
X0171575Y0207795D02*
X0204396Y0207795D01*
X0203798Y0208394D02*
X0170977Y0208394D01*
X0172274Y0204803D02*
X0207389Y0204803D01*
X0207987Y0204204D02*
X0172055Y0204204D01*
X0171807Y0203605D02*
X0208586Y0203605D01*
X0209184Y0203007D02*
X0171377Y0203007D01*
X0170779Y0202408D02*
X0209783Y0202408D01*
X0210381Y0201810D02*
X0169622Y0201810D01*
X0169622Y0201211D02*
X0210980Y0201211D01*
X0211578Y0200613D02*
X0169622Y0200613D01*
X0169622Y0200014D02*
X0212177Y0200014D01*
X0212775Y0199416D02*
X0169622Y0199416D01*
X0169932Y0198817D02*
X0213374Y0198817D01*
X0213972Y0198219D02*
X0170530Y0198219D01*
X0171129Y0197620D02*
X0214571Y0197620D01*
X0214424Y0197022D02*
X0171727Y0197022D01*
X0172326Y0196423D02*
X0213885Y0196423D01*
X0213540Y0195825D02*
X0172924Y0195825D01*
X0173523Y0195226D02*
X0213194Y0195226D01*
X0212849Y0194628D02*
X0174121Y0194628D01*
X0174720Y0194029D02*
X0212503Y0194029D01*
X0212203Y0193431D02*
X0175318Y0193431D01*
X0175917Y0192832D02*
X0212043Y0192832D01*
X0211882Y0192234D02*
X0176515Y0192234D01*
X0177114Y0191635D02*
X0211722Y0191635D01*
X0211562Y0191037D02*
X0177712Y0191037D01*
X0178311Y0190438D02*
X0211401Y0190438D01*
X0211350Y0189840D02*
X0178909Y0189840D01*
X0179508Y0189241D02*
X0211350Y0189241D01*
X0211350Y0188643D02*
X0180106Y0188643D01*
X0180705Y0188044D02*
X0211350Y0188044D01*
X0211350Y0187446D02*
X0181303Y0187446D01*
X0181902Y0186847D02*
X0211350Y0186847D01*
X0211498Y0186249D02*
X0182500Y0186249D01*
X0183099Y0185650D02*
X0211658Y0185650D01*
X0211818Y0185052D02*
X0183697Y0185052D01*
X0184296Y0184453D02*
X0211979Y0184453D01*
X0212139Y0183855D02*
X0184894Y0183855D01*
X0185493Y0183256D02*
X0212365Y0183256D01*
X0212711Y0182658D02*
X0186091Y0182658D01*
X0186690Y0182059D02*
X0213057Y0182059D01*
X0213402Y0181461D02*
X0188687Y0181461D01*
X0189285Y0180862D02*
X0213748Y0180862D01*
X0214186Y0180264D02*
X0189741Y0180264D01*
X0189741Y0179665D02*
X0214784Y0179665D01*
X0215383Y0179067D02*
X0189741Y0179067D01*
X0189616Y0178468D02*
X0215981Y0178468D01*
X0216708Y0177870D02*
X0189017Y0177870D01*
X0180222Y0176672D02*
X0108062Y0176672D01*
X0109099Y0177271D02*
X0179954Y0177271D01*
X0180222Y0176074D02*
X0106532Y0176074D01*
X0115493Y0189840D02*
X0133274Y0189840D01*
X0135991Y0192234D02*
X0114961Y0192234D01*
X0114801Y0192832D02*
X0122392Y0192832D01*
X0122222Y0193003D02*
X0122222Y0193003D01*
X0121794Y0193431D02*
X0114640Y0193431D01*
X0114341Y0194029D02*
X0121195Y0194029D01*
X0120597Y0194628D02*
X0113995Y0194628D01*
X0113649Y0195226D02*
X0119998Y0195226D01*
X0119400Y0195825D02*
X0113304Y0195825D01*
X0112958Y0196423D02*
X0118801Y0196423D01*
X0118203Y0197022D02*
X0112419Y0197022D01*
X0112273Y0197620D02*
X0117604Y0197620D01*
X0117925Y0197300D02*
X0117925Y0197300D01*
X0117222Y0198219D02*
X0112871Y0198219D01*
X0113470Y0198817D02*
X0117222Y0198817D01*
X0117222Y0199416D02*
X0114068Y0199416D01*
X0114667Y0200014D02*
X0117222Y0200014D01*
X0117222Y0200613D02*
X0115265Y0200613D01*
X0115864Y0201211D02*
X0117222Y0201211D01*
X0117222Y0201810D02*
X0116462Y0201810D01*
X0118422Y0198500D02*
X0123422Y0193500D01*
X0136422Y0193500D01*
X0139863Y0190059D01*
X0139863Y0187487D01*
X0142422Y0187487D02*
X0142422Y0192500D01*
X0138922Y0196000D01*
X0130922Y0196000D01*
X0128922Y0198000D01*
X0128922Y0205000D01*
X0128422Y0205500D01*
X0118422Y0205500D02*
X0118422Y0198500D01*
X0115122Y0191635D02*
X0136589Y0191635D01*
X0137188Y0191037D02*
X0115282Y0191037D01*
X0115442Y0190438D02*
X0137786Y0190438D01*
X0144981Y0187487D02*
X0144981Y0194441D01*
X0142422Y0197000D01*
X0140422Y0197000D01*
X0138422Y0199000D01*
X0138422Y0205500D01*
X0148422Y0205500D02*
X0148422Y0196000D01*
X0147422Y0195000D01*
X0147422Y0187606D01*
X0147540Y0187487D01*
X0152274Y0206000D02*
X0154569Y0206000D01*
X0154706Y0206598D02*
X0152137Y0206598D01*
X0151889Y0207197D02*
X0154954Y0207197D01*
X0155268Y0207795D02*
X0151575Y0207795D01*
X0150977Y0208394D02*
X0155867Y0208394D01*
X0182622Y0170687D02*
X0229222Y0170687D01*
X0229222Y0170089D02*
X0182622Y0170089D01*
X0182622Y0169490D02*
X0201052Y0169490D01*
X0200728Y0168892D02*
X0182622Y0168892D01*
X0182622Y0168293D02*
X0200728Y0168293D01*
X0200728Y0167695D02*
X0182622Y0167695D01*
X0182622Y0167096D02*
X0198770Y0167096D01*
X0198172Y0166498D02*
X0182622Y0166498D01*
X0182622Y0165899D02*
X0197573Y0165899D01*
X0196975Y0165301D02*
X0182622Y0165301D01*
X0182622Y0164702D02*
X0196376Y0164702D01*
X0196349Y0164104D02*
X0182622Y0164104D01*
X0182622Y0163505D02*
X0196411Y0163505D01*
X0199543Y0164121D02*
X0199543Y0164130D01*
X0202917Y0167504D01*
X0205106Y0167695D02*
X0229222Y0167695D01*
X0229222Y0168293D02*
X0205106Y0168293D01*
X0205106Y0168892D02*
X0229222Y0168892D01*
X0229222Y0169490D02*
X0204782Y0169490D01*
X0205106Y0167096D02*
X0229222Y0167096D01*
X0229222Y0166498D02*
X0205106Y0166498D01*
X0205106Y0165899D02*
X0229222Y0165899D01*
X0228742Y0165301D02*
X0202411Y0165301D01*
X0202710Y0164702D02*
X0228143Y0164702D01*
X0227545Y0164104D02*
X0205048Y0164104D01*
X0205371Y0163505D02*
X0207076Y0163505D01*
X0206733Y0162907D02*
X0206245Y0162907D01*
X0206656Y0162308D02*
X0206733Y0162308D01*
X0206719Y0161710D02*
X0206733Y0161710D01*
X0205316Y0162907D02*
X0204773Y0162907D01*
X0204718Y0162308D02*
X0204174Y0162308D01*
X0204030Y0162612D02*
X0204030Y0161892D01*
X0204030Y0162612D02*
X0205920Y0164502D01*
X0203011Y0164104D02*
X0202737Y0164104D01*
X0200728Y0167096D02*
X0200316Y0167096D01*
X0180922Y0160000D02*
X0149422Y0160000D01*
X0147540Y0161882D01*
X0147540Y0164513D01*
X0138843Y0161710D02*
X0138324Y0161710D01*
X0125510Y0139565D02*
X0120629Y0139565D01*
X0121461Y0138966D02*
X0124817Y0138966D01*
X0124325Y0138368D02*
X0122059Y0138368D01*
X0122461Y0137769D02*
X0123966Y0137769D01*
X0123707Y0137171D02*
X0122709Y0137171D01*
X0122957Y0136572D02*
X0123529Y0136572D01*
X0123434Y0135974D02*
X0123022Y0135974D01*
X0116817Y0131186D02*
X0116551Y0131186D01*
X0140122Y0129390D02*
X0196258Y0129390D01*
X0189922Y0125000D02*
X0197922Y0117000D01*
X0186922Y0119000D02*
X0186922Y0119284D01*
X0185314Y0120892D01*
X0169880Y0118617D02*
X0169758Y0118617D01*
X0167321Y0118617D02*
X0167199Y0118617D01*
X0164762Y0118617D02*
X0164640Y0118617D01*
X0162203Y0118617D02*
X0162081Y0118617D01*
X0160863Y0116013D02*
X0163422Y0116013D01*
X0160890Y0115985D02*
X0160863Y0116013D01*
X0160890Y0115985D02*
X0160890Y0110500D01*
X0160863Y0110528D01*
X0160863Y0106059D01*
X0160922Y0106000D01*
X0163111Y0106048D02*
X0244622Y0106048D01*
X0244622Y0105450D02*
X0163111Y0105450D01*
X0163111Y0104851D02*
X0244622Y0104851D01*
X0244622Y0104253D02*
X0203265Y0104253D01*
X0203863Y0103654D02*
X0244622Y0103654D01*
X0244622Y0103056D02*
X0204111Y0103056D01*
X0204111Y0102457D02*
X0244622Y0102457D01*
X0244622Y0101859D02*
X0204111Y0101859D01*
X0201922Y0102500D02*
X0181029Y0102500D01*
X0180922Y0102393D01*
X0182913Y0104253D02*
X0200579Y0104253D01*
X0178931Y0104253D02*
X0163025Y0104253D01*
X0163111Y0106647D02*
X0244622Y0106647D01*
X0244622Y0107245D02*
X0163111Y0107245D01*
X0162929Y0107844D02*
X0244622Y0107844D01*
X0236306Y0079115D02*
X0227873Y0079115D01*
X0229782Y0078517D02*
X0235708Y0078517D01*
X0235109Y0077918D02*
X0230818Y0077918D01*
X0231855Y0077320D02*
X0234511Y0077320D01*
X0233912Y0076721D02*
X0232720Y0076721D01*
X0200252Y0074926D02*
X0178592Y0074926D01*
X0178518Y0054576D02*
X0183449Y0054576D01*
X0182004Y0053978D02*
X0179022Y0053978D01*
X0179022Y0053379D02*
X0181296Y0053379D01*
X0180697Y0052781D02*
X0179022Y0052781D01*
X0179022Y0052182D02*
X0180347Y0052182D01*
X0180099Y0051584D02*
X0179022Y0051584D01*
X0179022Y0050985D02*
X0179851Y0050985D01*
X0179822Y0050387D02*
X0179022Y0050387D01*
X0179022Y0049788D02*
X0179822Y0049788D01*
X0179822Y0049190D02*
X0179022Y0049190D01*
X0179022Y0048591D02*
X0180026Y0048591D01*
X0180274Y0047993D02*
X0179022Y0047993D01*
X0180522Y0047394D02*
X0181616Y0046300D01*
X0187227Y0046300D02*
X0188321Y0047394D01*
X0188569Y0047993D02*
X0190274Y0047993D01*
X0190026Y0048591D02*
X0188817Y0048591D01*
X0189022Y0049190D02*
X0189822Y0049190D01*
X0189822Y0049788D02*
X0189022Y0049788D01*
X0189022Y0050387D02*
X0189822Y0050387D01*
X0189851Y0050985D02*
X0188993Y0050985D01*
X0188745Y0051584D02*
X0190099Y0051584D01*
X0190347Y0052182D02*
X0188497Y0052182D01*
X0188146Y0052781D02*
X0190697Y0052781D01*
X0191296Y0053379D02*
X0187548Y0053379D01*
X0186839Y0053978D02*
X0192004Y0053978D01*
X0193449Y0054576D02*
X0185394Y0054576D01*
X0187723Y0046796D02*
X0191121Y0046796D01*
X0191616Y0046300D02*
X0190522Y0047394D01*
X0191616Y0046300D02*
X0187227Y0046300D01*
X0100049Y0073729D02*
X0095924Y0073729D01*
X0096522Y0073130D02*
X0098604Y0073130D01*
X0097706Y0072532D02*
X0097121Y0072532D01*
X0156761Y0111435D02*
X0157145Y0111435D01*
X0157145Y0112033D02*
X0156761Y0112033D01*
X0156761Y0112632D02*
X0157145Y0112632D01*
X0158304Y0113230D02*
X0158304Y0113230D01*
X0158304Y0113829D02*
X0158304Y0113829D01*
X0158304Y0114427D02*
X0158304Y0114427D01*
X0158304Y0115026D02*
X0158304Y0115026D01*
X0158304Y0115624D02*
X0158304Y0115624D01*
X0158550Y0112632D02*
X0159690Y0112632D01*
X0159182Y0112033D02*
X0159122Y0112033D01*
X0162090Y0113230D02*
X0162381Y0113230D01*
X0164462Y0113230D02*
X0164940Y0113230D01*
X0167021Y0113230D02*
X0167499Y0113230D01*
X0169580Y0113230D02*
X0170058Y0113230D01*
X0199963Y0144353D02*
X0244622Y0144353D01*
X0244622Y0144951D02*
X0199364Y0144951D01*
X0198766Y0145550D02*
X0244622Y0145550D01*
X0244622Y0146148D02*
X0198167Y0146148D01*
X0217030Y0151892D02*
X0218922Y0150000D01*
X0221111Y0149739D02*
X0244622Y0149739D01*
X0244622Y0149141D02*
X0221111Y0149141D01*
X0221111Y0148542D02*
X0244622Y0148542D01*
X0244622Y0147944D02*
X0220716Y0147944D01*
X0221111Y0150338D02*
X0244622Y0150338D01*
X0244622Y0150937D02*
X0221111Y0150937D01*
X0221111Y0151535D02*
X0244622Y0151535D01*
X0244622Y0152134D02*
X0220639Y0152134D01*
X0219567Y0152732D02*
X0244622Y0152732D01*
X0244622Y0153331D02*
X0220165Y0153331D01*
X0220764Y0153929D02*
X0244622Y0153929D01*
X0244622Y0154528D02*
X0221362Y0154528D01*
X0221961Y0155126D02*
X0244622Y0155126D01*
X0244622Y0155725D02*
X0222559Y0155725D01*
X0223158Y0156323D02*
X0244622Y0156323D01*
X0244622Y0156922D02*
X0223757Y0156922D01*
X0224355Y0157520D02*
X0244622Y0157520D01*
X0244622Y0158119D02*
X0224954Y0158119D01*
X0225552Y0158717D02*
X0244622Y0158717D01*
X0244622Y0159316D02*
X0226151Y0159316D01*
X0226749Y0159914D02*
X0244622Y0159914D01*
X0244622Y0160513D02*
X0227348Y0160513D01*
X0227946Y0161111D02*
X0244622Y0161111D01*
X0244622Y0161710D02*
X0228545Y0161710D01*
X0229143Y0162308D02*
X0244622Y0162308D01*
X0244622Y0162907D02*
X0229742Y0162907D01*
X0230340Y0163505D02*
X0244622Y0163505D01*
X0244622Y0164104D02*
X0230939Y0164104D01*
X0231537Y0164702D02*
X0244622Y0164702D01*
X0244622Y0165301D02*
X0231622Y0165301D01*
X0231622Y0165899D02*
X0244622Y0165899D01*
X0244622Y0166498D02*
X0231622Y0166498D01*
X0231622Y0167096D02*
X0244622Y0167096D01*
X0244496Y0167695D02*
X0231622Y0167695D01*
X0231622Y0168293D02*
X0243898Y0168293D01*
X0243299Y0168892D02*
X0231622Y0168892D01*
X0231622Y0169490D02*
X0242701Y0169490D01*
X0242102Y0170089D02*
X0231622Y0170089D01*
X0231622Y0170687D02*
X0241504Y0170687D01*
X0240905Y0171286D02*
X0231622Y0171286D01*
X0231622Y0171884D02*
X0240307Y0171884D01*
X0239708Y0172483D02*
X0231622Y0172483D01*
X0231037Y0173081D02*
X0239110Y0173081D01*
X0238511Y0173680D02*
X0230439Y0173680D01*
X0230122Y0173997D02*
X0230122Y0173997D01*
X0229840Y0174278D02*
X0237913Y0174278D01*
X0237314Y0174877D02*
X0226640Y0174877D01*
X0226345Y0175475D02*
X0236716Y0175475D01*
X0236117Y0176074D02*
X0228579Y0176074D01*
X0230109Y0176672D02*
X0235519Y0176672D01*
X0234920Y0177271D02*
X0231146Y0177271D01*
X0232182Y0177870D02*
X0234322Y0177870D01*
X0233723Y0178468D02*
X0232909Y0178468D01*
D23*
X0227922Y0169500D03*
X0208922Y0161500D03*
X0205920Y0164502D03*
X0202917Y0167504D03*
X0218922Y0150000D03*
X0216020Y0146897D03*
X0238422Y0148000D03*
X0177422Y0139000D03*
X0175922Y0143577D03*
X0160922Y0145000D03*
X0155422Y0145500D03*
X0149922Y0129000D03*
X0128422Y0125000D03*
X0160922Y0106000D03*
X0180922Y0102393D03*
X0214422Y0091500D03*
X0214422Y0063972D03*
X0176746Y0182175D03*
X0190922Y0194500D03*
X0182984Y0199000D03*
D24*
X0204422Y0066500D03*
M02*
